{
copyright = "Copyright (c) 2000, Modular Infotech, Pune, INDIA.";
customParameters = (
{
name = vendorID;
value = MODI;
}
);
date = "2014-07-28 00:00:00 +0000";
familyName = "Benares";
fontMaster = (
{
ascender = 587;
capHeight = 564;
customParameters = (
{
name = typoAscender;
value = 750;
},
{
name = typoDescender;
value = "-250";
},
{
name = typoLineGap;
value = 149;
},
{
name = underlinePosition;
value = "-352";
}
);
descender = "-192";
guideLines = (
{
position = "{456, 407}";
},
{
position = "{111, -12}";
},
{
position = "{397, 599}";
},
{
angle = 90;
position = "{310, 576}";
},
{
position = "{215, -204}";
}
);
id = "5BCE6BDF-3D16-43B2-91D3-33CD61D1CB11";
weightValue = 0;
xHeight = 395;
},
{
ascender = 587;
capHeight = 564;
customParameters = (
{
name = typoAscender;
value = 750;
},
{
name = typoDescender;
value = "-250";
},
{
name = typoLineGap;
value = 236;
},
{
name = underlinePosition;
value = "-402";
}
);
descender = "-192";
guideLines = (
{
angle = 90;
position = "{244, 425}";
},
{
position = "{216, 599}";
},
{
position = "{343, -12}";
},
{
position = "{135, 576}";
},
{
position = "{242, 425}";
},
{
position = "{260, -204}";
},
{
angle = 90;
position = "{244, 425}";
}
);
id = "DF715B94-208D-4FDD-A2D8-DFDAF561BFB9";
weight = Bold;
xHeight = 413;
}
);
glyphs = (
{
glyphname = "ka-deva";
lastChange = "2014-09-28 11:15:52 +0000";
layers = (
{
layerId = "5BCE6BDF-3D16-43B2-91D3-33CD61D1CB11";
name = Regular;
paths = (
{
closed = 1;
nodes = (
"-10 500 LINE",
"-10 440 LINE",
"327 440 LINE",
"327 170 LINE",
"311 154 OFFCURVE",
"286 145 OFFCURVE",
"257 145 CURVE SMOOTH",
"209 145 OFFCURVE",
"169 174 OFFCURVE",
"169 210 CURVE SMOOTH",
"169 265 OFFCURVE",
"212 300 OFFCURVE",
"277 300 CURVE",
"277 365 LINE",
"122 365 OFFCURVE",
"22 300 OFFCURVE",
"22 200 CURVE SMOOTH",
"22 117 OFFCURVE",
"96 50 OFFCURVE",
"187 50 CURVE SMOOTH",
"239 50 OFFCURVE",
"288 68 OFFCURVE",
"327 100 CURVE",
"327 0 LINE",
"467 0 LINE",
"467 250 LINE",
"486 266 OFFCURVE",
"512 275 OFFCURVE",
"537 275 CURVE SMOOTH",
"584 275 OFFCURVE",
"622 237 OFFCURVE",
"622 190 CURVE SMOOTH",
"622 138 OFFCURVE",
"573 95 OFFCURVE",
"512 95 CURVE",
"512 25 LINE",
"668 25 OFFCURVE",
"769 95 OFFCURVE",
"769 200 CURVE SMOOTH",
"769 283 OFFCURVE",
"685 350 OFFCURVE",
"582 350 CURVE SMOOTH",
"534 350 OFFCURVE",
"494 338 OFFCURVE",
"467 315 CURVE",
"467 440 LINE",
"801 440 LINE",
"801 500 LINE"
);
}
);
width = 791;
},
{
layerId = "DF715B94-208D-4FDD-A2D8-DFDAF561BFB9";
name = Bold;
paths = (
{
closed = 1;
nodes = (
"-10 500 LINE",
"-10 420 LINE",
"341 420 LINE",
"341 190 LINE",
"325 174 OFFCURVE",
"307 165 OFFCURVE",
"291 165 CURVE SMOOTH",
"258 165 OFFCURVE",
"231 189 OFFCURVE",
"231 220 CURVE SMOOTH",
"231 263 OFFCURVE",
"261 290 OFFCURVE",
"306 290 CURVE",
"306 365 LINE",
"134 365 OFFCURVE",
"21 298 OFFCURVE",
"21 195 CURVE SMOOTH",
"21 112 OFFCURVE",
"93 45 OFFCURVE",
"181 45 CURVE SMOOTH",
"238 45 OFFCURVE",
"294 66 OFFCURVE",
"341 105 CURVE",
"341 0 LINE",
"541 0 LINE",
"541 220 LINE",
"557 233 OFFCURVE",
"577 240 OFFCURVE",
"601 240 CURVE SMOOTH",
"637 240 OFFCURVE",
"666 216 OFFCURVE",
"666 185 CURVE SMOOTH",
"666 146 OFFCURVE",
"630 115 OFFCURVE",
"586 115 CURVE",
"586 25 LINE",
"762 25 OFFCURVE",
"876 92 OFFCURVE",
"876 195 CURVE SMOOTH",
"876 280 OFFCURVE",
"782 350 OFFCURVE",
"666 350 CURVE SMOOTH",
"613 350 OFFCURVE",
"568 338 OFFCURVE",
"541 315 CURVE",
"541 420 LINE",
"906 420 LINE",
"906 500 LINE"
);
}
);
width = 896;
}
);
unicode = 0915;
},
{
glyphname = "kha-deva";
lastChange = "2014-09-28 11:15:52 +0000";
layers = (
{
layerId = "5BCE6BDF-3D16-43B2-91D3-33CD61D1CB11";
name = Regular;
paths = (
{
closed = 1;
nodes = (
"-10 500 LINE",
"-10 440 LINE",
"105 440 LINE",
"140 433 OFFCURVE",
"165 395 OFFCURVE",
"165 350 CURVE SMOOTH",
"165 301 OFFCURVE",
"127 260 OFFCURVE",
"80 260 CURVE SMOOTH",
"10 260 LINE",
"10 200 LINE",
"30 200 OFFCURVE",
"45 194 OFFCURVE",
"50 185 CURVE SMOOTH",
"117 70 OFFCURVE",
"207 0 OFFCURVE",
"290 0 CURVE SMOOTH",
"373 0 OFFCURVE",
"442 31 OFFCURVE",
"470 80 CURVE",
"495 73 OFFCURVE",
"518 70 OFFCURVE",
"540 70 CURVE SMOOTH",
"588 70 OFFCURVE",
"637 89 OFFCURVE",
"680 125 CURVE",
"680 0 LINE",
"820 0 LINE",
"820 440 LINE",
"890 440 LINE",
"890 500 LINE"
);
},
{
closed = 1;
nodes = (
"680 240 LINE",
"661 188 OFFCURVE",
"620 155 OFFCURVE",
"575 155 CURVE SMOOTH",
"527 155 OFFCURVE",
"487 193 OFFCURVE",
"487 240 CURVE SMOOTH",
"487 287 OFFCURVE",
"522 325 OFFCURVE",
"565 325 CURVE SMOOTH",
"584 325 OFFCURVE",
"603 320 OFFCURVE",
"620 310 CURVE",
"650 365 LINE",
"627 381 OFFCURVE",
"584 390 OFFCURVE",
"525 390 CURVE SMOOTH",
"422 390 OFFCURVE",
"340 318 OFFCURVE",
"340 230 CURVE SMOOTH",
"340 189 OFFCURVE",
"361 147 OFFCURVE",
"400 115 CURVE",
"381 92 OFFCURVE",
"352 80 OFFCURVE",
"320 80 CURVE SMOOTH",
"261 80 OFFCURVE",
"198 125 OFFCURVE",
"155 200 CURVE",
"244 208 OFFCURVE",
"312 270 OFFCURVE",
"312 345 CURVE SMOOTH",
"312 377 OFFCURVE",
"293 412 OFFCURVE",
"260 440 CURVE",
"680 440 LINE"
);
}
);
width = 880;
},
{
layerId = "DF715B94-208D-4FDD-A2D8-DFDAF561BFB9";
name = Bold;
paths = (
{
closed = 1;
nodes = (
"-10 500 LINE",
"-10 420 LINE",
"115 420 LINE",
"150 413 OFFCURVE",
"175 385 OFFCURVE",
"175 350 CURVE SMOOTH",
"175 309 OFFCURVE",
"137 275 OFFCURVE",
"90 275 CURVE SMOOTH",
"40 275 LINE",
"10 190 LINE",
"30 190 OFFCURVE",
"45 184 OFFCURVE",
"50 175 CURVE SMOOTH",
"113 67 OFFCURVE",
"228 0 OFFCURVE",
"355 0 CURVE SMOOTH",
"438 0 OFFCURVE",
"512 27 OFFCURVE",
"560 75 CURVE",
"573 72 OFFCURVE",
"599 70 OFFCURVE",
"640 70 CURVE SMOOTH",
"695 70 OFFCURVE",
"747 89 OFFCURVE",
"790 125 CURVE",
"790 0 LINE",
"990 0 LINE",
"990 420 LINE",
"1055 420 LINE",
"1055 500 LINE"
);
},
{
closed = 1;
nodes = (
"790 250 LINE",
"771 198 OFFCURVE",
"734 165 OFFCURVE",
"695 165 CURVE SMOOTH",
"654 165 OFFCURVE",
"620 194 OFFCURVE",
"620 230 CURVE SMOOTH",
"620 269 OFFCURVE",
"647 300 OFFCURVE",
"680 300 CURVE SMOOTH",
"702 300 OFFCURVE",
"719 297 OFFCURVE",
"730 290 CURVE",
"765 365 LINE",
"742 381 OFFCURVE",
"694 390 OFFCURVE",
"630 390 CURVE SMOOTH",
"509 390 OFFCURVE",
"410 318 OFFCURVE",
"410 230 CURVE SMOOTH",
"410 177 OFFCURVE",
"433 131 OFFCURVE",
"470 110 CURVE",
"459 97 OFFCURVE",
"436 90 OFFCURVE",
"405 90 CURVE SMOOTH",
"340 90 OFFCURVE",
"274 132 OFFCURVE",
"235 200 CURVE",
"320 208 OFFCURVE",
"385 273 OFFCURVE",
"385 350 CURVE SMOOTH",
"385 371 OFFCURVE",
"367 399 OFFCURVE",
"335 420 CURVE",
"790 420 LINE"
);
}
);
width = 1045;
}
);
unicode = 0916;
},
{
glyphname = "ga-deva";
lastChange = "2014-09-28 11:15:52 +0000";
layers = (
{
layerId = "5BCE6BDF-3D16-43B2-91D3-33CD61D1CB11";
name = Regular;
paths = (
{
closed = 1;
nodes = (
"-10 500 LINE",
"-10 440 LINE",
"169 440 LINE SMOOTH",
"229 440 OFFCURVE",
"289 356 OFFCURVE",
"289 275 CURVE SMOOTH",
"289 203 OFFCURVE",
"248 155 OFFCURVE",
"184 155 CURVE SMOOTH",
"148 155 OFFCURVE",
"119 182 OFFCURVE",
"119 215 CURVE SMOOTH",
"119 246 OFFCURVE",
"137 265 OFFCURVE",
"164 265 CURVE",
"164 335 LINE",
"84 335 OFFCURVE",
"19 284 OFFCURVE",
"19 220 CURVE SMOOTH",
"19 143 OFFCURVE",
"98 80 OFFCURVE",
"194 80 CURVE SMOOTH",
"327 80 OFFCURVE",
"436 169 OFFCURVE",
"436 280 CURVE SMOOTH",
"436 337 OFFCURVE",
"406 396 OFFCURVE",
"354 440 CURVE",
"509 440 LINE",
"509 0 LINE",
"649 0 LINE",
"649 440 LINE",
"719 440 LINE",
"719 500 LINE"
);
}
);
width = 709;
},
{
layerId = "DF715B94-208D-4FDD-A2D8-DFDAF561BFB9";
name = Bold;
paths = (
{
closed = 1;
nodes = (
"-10 500 LINE",
"-10 420 LINE",
"172 420 LINE SMOOTH",
"232 420 OFFCURVE",
"292 342 OFFCURVE",
"292 265 CURVE SMOOTH",
"292 205 OFFCURVE",
"259 165 OFFCURVE",
"207 165 CURVE SMOOTH",
"182 165 OFFCURVE",
"162 185 OFFCURVE",
"162 210 CURVE SMOOTH",
"162 237 OFFCURVE",
"180 255 OFFCURVE",
"207 255 CURVE",
"207 345 LINE",
"102 345 OFFCURVE",
"17 285 OFFCURVE",
"17 210 CURVE SMOOTH",
"17 133 OFFCURVE",
"111 70 OFFCURVE",
"227 70 CURVE SMOOTH",
"379 70 OFFCURVE",
"502 157 OFFCURVE",
"502 265 CURVE SMOOTH",
"502 334 OFFCURVE",
"474 393 OFFCURVE",
"427 420 CURVE",
"572 420 LINE",
"572 0 LINE",
"772 0 LINE",
"772 420 LINE",
"837 420 LINE",
"837 500 LINE"
);
}
);
width = 827;
}
);
unicode = 0917;
},
{
glyphname = "gha-deva";
lastChange = "2014-09-28 11:15:52 +0000";
layers = (
{
layerId = "5BCE6BDF-3D16-43B2-91D3-33CD61D1CB11";
name = Regular;
paths = (
{
closed = 1;
nodes = (
"-10 500 LINE",
"-10 440 LINE",
"53 440 LINE",
"41 433 OFFCURVE",
"33 414 OFFCURVE",
"33 390 CURVE SMOOTH",
"33 350 OFFCURVE",
"65 312 OFFCURVE",
"113 295 CURVE",
"65 278 OFFCURVE",
"33 238 OFFCURVE",
"33 195 CURVE SMOOTH",
"33 118 OFFCURVE",
"115 55 OFFCURVE",
"218 55 CURVE SMOOTH",
"295 55 OFFCURVE",
"362 88 OFFCURVE",
"393 140 CURVE",
"393 0 LINE",
"533 0 LINE",
"533 440 LINE",
"603 440 LINE",
"603 500 LINE"
);
},
{
closed = 1;
nodes = (
"393 235 LINE",
"365 175 OFFCURVE",
"309 135 OFFCURVE",
"253 135 CURVE SMOOTH",
"213 135 OFFCURVE",
"180 162 OFFCURVE",
"180 195 CURVE SMOOTH",
"180 231 OFFCURVE",
"215 260 OFFCURVE",
"258 260 CURVE",
"258 330 LINE",
"211 330 OFFCURVE",
"180 354 OFFCURVE",
"180 390 CURVE SMOOTH",
"180 417 OFFCURVE",
"192 437 OFFCURVE",
"208 440 CURVE",
"393 440 LINE"
);
}
);
width = 593;
},
{
layerId = "DF715B94-208D-4FDD-A2D8-DFDAF561BFB9";
name = Bold;
paths = (
{
closed = 1;
nodes = (
"-10 500 LINE",
"-10 420 LINE",
"48 420 LINE",
"36 413 OFFCURVE",
"28 397 OFFCURVE",
"28 380 CURVE SMOOTH",
"28 340 OFFCURVE",
"60 302 OFFCURVE",
"108 285 CURVE",
"60 268 OFFCURVE",
"28 228 OFFCURVE",
"28 185 CURVE SMOOTH",
"28 113 OFFCURVE",
"122 55 OFFCURVE",
"238 55 CURVE SMOOTH",
"315 55 OFFCURVE",
"383 80 OFFCURVE",
"428 125 CURVE",
"428 0 LINE",
"628 0 LINE",
"628 420 LINE",
"693 420 LINE",
"693 500 LINE"
);
},
{
closed = 1;
nodes = (
"428 240 LINE",
"401 183 OFFCURVE",
"345 145 OFFCURVE",
"288 145 CURVE SMOOTH",
"260 145 OFFCURVE",
"238 167 OFFCURVE",
"238 195 CURVE SMOOTH",
"238 223 OFFCURVE",
"272 245 OFFCURVE",
"313 245 CURVE",
"313 325 LINE",
"268 325 OFFCURVE",
"238 347 OFFCURVE",
"238 380 CURVE SMOOTH",
"238 400 OFFCURVE",
"246 417 OFFCURVE",
"258 420 CURVE",
"428 420 LINE"
);
}
);
width = 683;
}
);
unicode = 0918;
},
{
glyphname = "nga-deva";
lastChange = "2014-09-28 11:15:52 +0000";
layers = (
{
layerId = "5BCE6BDF-3D16-43B2-91D3-33CD61D1CB11";
name = Regular;
paths = (
{
closed = 1;
nodes = (
"-10 500 LINE",
"-10 440 LINE",
"291 440 LINE",
"291 385 LINE",
"161 385 LINE SMOOTH",
"94 385 OFFCURVE",
"41 340 OFFCURVE",
"41 285 CURVE SMOOTH",
"41 232 OFFCURVE",
"100 187 OFFCURVE",
"176 180 CURVE",
"271 180 LINE SMOOTH",
"299 180 OFFCURVE",
"321 160 OFFCURVE",
"321 135 CURVE SMOOTH",
"321 102 OFFCURVE",
"280 75 OFFCURVE",
"231 75 CURVE SMOOTH",
"172 75 OFFCURVE",
"109 100 OFFCURVE",
"56 145 CURVE",
"16 100 LINE",
"69 36 OFFCURVE",
"154 0 OFFCURVE",
"246 0 CURVE SMOOTH",
"369 0 OFFCURVE",
"468 60 OFFCURVE",
"468 135 CURVE SMOOTH",
"468 191 OFFCURVE",
"411 238 OFFCURVE",
"336 245 CURVE",
"231 245 LINE SMOOTH",
"207 245 OFFCURVE",
"188 262 OFFCURVE",
"188 285 CURVE SMOOTH",
"188 304 OFFCURVE",
"205 320 OFFCURVE",
"226 320 CURVE SMOOTH",
"431 320 LINE",
"431 440 LINE",
"621 440 LINE",
"621 500 LINE"
);
},
{
closed = 1;
nodes = (
"490 305 OFFCURVE",
"456 288 OFFCURVE",
"456 265 CURVE SMOOTH",
"456 242 OFFCURVE",
"490 225 OFFCURVE",
"531 225 CURVE SMOOTH",
"571 225 OFFCURVE",
"603 242 OFFCURVE",
"603 265 CURVE SMOOTH",
"603 288 OFFCURVE",
"571 305 OFFCURVE",
"531 305 CURVE SMOOTH"
);
}
);
width = 611;
},
{
layerId = "DF715B94-208D-4FDD-A2D8-DFDAF561BFB9";
name = Bold;
paths = (
{
closed = 1;
nodes = (
"-10 500 LINE",
"-10 420 LINE",
"284 420 LINE",
"284 385 LINE",
"154 385 LINE SMOOTH",
"90 385 OFFCURVE",
"39 340 OFFCURVE",
"39 285 CURVE SMOOTH",
"39 230 OFFCURVE",
"101 182 OFFCURVE",
"184 175 CURVE",
"249 175 LINE SMOOTH",
"277 175 OFFCURVE",
"299 158 OFFCURVE",
"299 135 CURVE SMOOTH",
"299 107 OFFCURVE",
"263 85 OFFCURVE",
"219 85 CURVE SMOOTH",
"172 85 OFFCURVE",
"117 110 OFFCURVE",
"64 155 CURVE",
"14 100 LINE",
"67 36 OFFCURVE",
"156 0 OFFCURVE",
"259 0 CURVE SMOOTH",
"398 0 OFFCURVE",
"509 60 OFFCURVE",
"509 135 CURVE SMOOTH",
"509 190 OFFCURVE",
"444 237 OFFCURVE",
"359 245 CURVE",
"289 245 LINE SMOOTH",
"266 245 OFFCURVE",
"249 262 OFFCURVE",
"249 285 CURVE SMOOTH",
"249 298 OFFCURVE",
"265 310 OFFCURVE",
"284 310 CURVE SMOOTH",
"459 310 LINE",
"459 420 LINE",
"678 420 LINE",
"678 500 LINE"
);
},
{
closed = 1;
nodes = (
"532 315 OFFCURVE",
"494 293 OFFCURVE",
"494 265 CURVE SMOOTH",
"494 237 OFFCURVE",
"532 215 OFFCURVE",
"579 215 CURVE SMOOTH",
"623 215 OFFCURVE",
"659 237 OFFCURVE",
"659 265 CURVE SMOOTH",
"659 293 OFFCURVE",
"623 315 OFFCURVE",
"579 315 CURVE SMOOTH"
);
}
);
width = 668;
}
);
unicode = 0919;
},
{
glyphname = "ca-deva";
lastChange = "2014-09-28 11:15:52 +0000";
layers = (
{
layerId = "5BCE6BDF-3D16-43B2-91D3-33CD61D1CB11";
name = Regular;
paths = (
{
closed = 1;
nodes = (
"-10 500 LINE",
"-10 440 LINE",
"419 440 LINE",
"419 210 LINE",
"403 167 OFFCURVE",
"362 140 OFFCURVE",
"314 140 CURVE SMOOTH",
"274 140 OFFCURVE",
"241 176 OFFCURVE",
"241 220 CURVE SMOOTH",
"241 267 OFFCURVE",
"269 305 OFFCURVE",
"304 305 CURVE SMOOTH",
"354 305 LINE",
"354 365 LINE",
"9 365 LINE",
"9 305 LINE",
"134 305 LINE",
"109 284 OFFCURVE",
"94 249 OFFCURVE",
"94 210 CURVE SMOOTH",
"94 125 OFFCURVE",
"176 55 OFFCURVE",
"279 55 CURVE SMOOTH",
"334 55 OFFCURVE",
"384 79 OFFCURVE",
"419 120 CURVE",
"419 0 LINE",
"559 0 LINE",
"559 440 LINE",
"629 440 LINE",
"629 500 LINE"
);
}
);
width = 619;
},
{
layerId = "DF715B94-208D-4FDD-A2D8-DFDAF561BFB9";
name = Bold;
paths = (
{
closed = 1;
nodes = (
"-10 500 LINE",
"-10 420 LINE",
"447 420 LINE",
"447 205 LINE",
"432 166 OFFCURVE",
"399 140 OFFCURVE",
"362 140 CURVE SMOOTH",
"323 140 OFFCURVE",
"292 169 OFFCURVE",
"292 205 CURVE SMOOTH",
"292 246 OFFCURVE",
"316 280 OFFCURVE",
"347 280 CURVE SMOOTH",
"382 280 LINE",
"382 365 LINE",
"12 365 LINE",
"12 280 LINE",
"122 280 LINE",
"97 265 OFFCURVE",
"82 231 OFFCURVE",
"82 190 CURVE SMOOTH",
"82 90 OFFCURVE",
"161 25 OFFCURVE",
"282 25 CURVE SMOOTH",
"349 25 OFFCURVE",
"410 57 OFFCURVE",
"447 110 CURVE",
"447 0 LINE",
"647 0 LINE",
"647 420 LINE",
"712 420 LINE",
"712 500 LINE"
);
}
);
width = 702;
}
);
unicode = 091A;
},
{
glyphname = "cha-deva";
lastChange = "2014-09-28 11:15:52 +0000";
layers = (
{
layerId = "5BCE6BDF-3D16-43B2-91D3-33CD61D1CB11";
name = Regular;
paths = (
{
closed = 1;
nodes = (
"-10 500 LINE",
"-10 440 LINE",
"77 440 LINE",
"52 425 OFFCURVE",
"37 399 OFFCURVE",
"37 370 CURVE SMOOTH",
"37 326 OFFCURVE",
"70 288 OFFCURVE",
"117 280 CURVE",
"69 263 OFFCURVE",
"37 220 OFFCURVE",
"37 175 CURVE SMOOTH",
"37 70 OFFCURVE",
"143 0 OFFCURVE",
"304 0 CURVE SMOOTH",
"479 0 OFFCURVE",
"592 95 OFFCURVE",
"592 240 CURVE SMOOTH",
"592 301 OFFCURVE",
"572 350 OFFCURVE",
"537 370 CURVE",
"537 440 LINE",
"632 440 LINE",
"632 500 LINE"
);
},
{
closed = 1;
nodes = (
"397 390 LINE",
"336 390 OFFCURVE",
"287 342 OFFCURVE",
"287 285 CURVE SMOOTH",
"287 224 OFFCURVE",
"343 175 OFFCURVE",
"412 175 CURVE SMOOTH",
"429 175 OFFCURVE",
"445 181 OFFCURVE",
"457 190 CURVE",
"450 119 OFFCURVE",
"386 65 OFFCURVE",
"307 65 CURVE SMOOTH",
"239 65 OFFCURVE",
"184 110 OFFCURVE",
"184 165 CURVE SMOOTH",
"184 202 OFFCURVE",
"209 235 OFFCURVE",
"242 240 CURVE",
"242 310 LINE",
"210 310 OFFCURVE",
"184 339 OFFCURVE",
"184 375 CURVE SMOOTH",
"184 411 OFFCURVE",
"203 440 OFFCURVE",
"227 440 CURVE SMOOTH",
"397 440 LINE"
);
},
{
closed = 1;
nodes = (
"432 325 OFFCURVE",
"452 308 OFFCURVE",
"452 285 CURVE SMOOTH",
"452 260 OFFCURVE",
"432 240 OFFCURVE",
"407 240 CURVE SMOOTH",
"384 240 OFFCURVE",
"367 260 OFFCURVE",
"367 285 CURVE SMOOTH",
"367 308 OFFCURVE",
"384 325 OFFCURVE",
"407 325 CURVE SMOOTH"
);
}
);
width = 622;
},
{
layerId = "DF715B94-208D-4FDD-A2D8-DFDAF561BFB9";
name = Bold;
paths = (
{
closed = 1;
nodes = (
"-10 500 LINE",
"-10 420 LINE",
"70 420 LINE",
"49 408 OFFCURVE",
"35 389 OFFCURVE",
"35 370 CURVE SMOOTH",
"35 330 OFFCURVE",
"61 295 OFFCURVE",
"100 280 CURVE",
"57 255 OFFCURVE",
"30 212 OFFCURVE",
"30 165 CURVE SMOOTH",
"30 65 OFFCURVE",
"155 0 OFFCURVE",
"347 0 CURVE SMOOTH",
"546 0 OFFCURVE",
"675 95 OFFCURVE",
"675 240 CURVE SMOOTH",
"675 300 OFFCURVE",
"650 352 OFFCURVE",
"610 375 CURVE",
"610 420 LINE",
"711 420 LINE",
"711 500 LINE"
);
},
{
closed = 1;
nodes = (
"410 390 LINE",
"361 381 OFFCURVE",
"325 337 OFFCURVE",
"325 285 CURVE SMOOTH",
"325 224 OFFCURVE",
"376 175 OFFCURVE",
"440 175 CURVE SMOOTH",
"452 175 OFFCURVE",
"462 178 OFFCURVE",
"470 185 CURVE",
"465 132 OFFCURVE",
"407 90 OFFCURVE",
"335 90 CURVE SMOOTH",
"286 90 OFFCURVE",
"245 124 OFFCURVE",
"245 165 CURVE SMOOTH",
"245 201 OFFCURVE",
"263 231 OFFCURVE",
"290 235 CURVE",
"290 320 LINE",
"265 320 OFFCURVE",
"245 342 OFFCURVE",
"245 370 CURVE SMOOTH",
"245 398 OFFCURVE",
"259 420 OFFCURVE",
"275 420 CURVE SMOOTH",
"410 420 LINE"
);
},
{
closed = 1;
nodes = (
"453 315 OFFCURVE",
"465 301 OFFCURVE",
"465 285 CURVE SMOOTH",
"465 274 OFFCURVE",
"451 260 OFFCURVE",
"440 260 CURVE SMOOTH",
"424 260 OFFCURVE",
"410 272 OFFCURVE",
"410 285 CURVE SMOOTH",
"410 301 OFFCURVE",
"424 315 OFFCURVE",
"440 315 CURVE SMOOTH"
);
}
);
width = 701;
}
);
unicode = 091B;
},
{
glyphname = "ja-deva";
lastChange = "2014-09-28 11:16:19 +0000";
layers = (
{
layerId = "5BCE6BDF-3D16-43B2-91D3-33CD61D1CB11";
name = Regular;
paths = (
{
closed = 1;
nodes = (
"-10 500 LINE",
"-10 440 LINE",
"502 440 LINE",
"502 345 LINE",
"222 345 LINE",
"222 280 LINE",
"262 273 OFFCURVE",
"292 235 OFFCURVE",
"292 190 CURVE SMOOTH",
"292 157 OFFCURVE",
"258 130 OFFCURVE",
"217 130 CURVE SMOOTH",
"160 130 OFFCURVE",
"104 195 OFFCURVE",
"77 295 CURVE",
"12 295 LINE",
"39 147 OFFCURVE",
"137 50 OFFCURVE",
"262 50 CURVE SMOOTH",
"359 50 OFFCURVE",
"439 113 OFFCURVE",
"439 190 CURVE SMOOTH",
"439 221 OFFCURVE",
"424 253 OFFCURVE",
"397 280 CURVE",
"502 280 LINE",
"502 0 LINE",
"642 0 LINE",
"642 440 LINE",
"712 440 LINE",
"712 500 LINE"
);
}
);
width = 702;
},
{
layerId = "DF715B94-208D-4FDD-A2D8-DFDAF561BFB9";
name = Bold;
paths = (
{
closed = 1;
nodes = (
"-10 500 LINE",
"-10 420 LINE",
"561 420 LINE",
"561 365 LINE",
"221 365 LINE",
"221 270 LINE",
"261 263 OFFCURVE",
"291 233 OFFCURVE",
"291 200 CURVE SMOOTH",
"291 161 OFFCURVE",
"267 130 OFFCURVE",
"236 130 CURVE SMOOTH",
"179 130 OFFCURVE",
"123 195 OFFCURVE",
"96 295 CURVE",
"11 295 LINE",
"39 138 OFFCURVE",
"145 35 OFFCURVE",
"281 35 CURVE SMOOTH",
"402 35 OFFCURVE",
"501 112 OFFCURVE",
"501 205 CURVE SMOOTH",
"501 224 OFFCURVE",
"480 247 OFFCURVE",
"461 270 CURVE",
"561 270 LINE",
"561 0 LINE",
"761 0 LINE",
"761 420 LINE",
"826 420 LINE",
"826 500 LINE"
);
}
);
width = 816;
}
);
unicode = 091C;
},
{
glyphname = "jha-deva";
lastChange = "2014-09-28 11:16:28 +0000";
layers = (
{
layerId = "5BCE6BDF-3D16-43B2-91D3-33CD61D1CB11";
name = Regular;
paths = (
{
closed = 1;
nodes = (
"-10 500 LINE",
"-10 440 LINE",
"248 440 LINE",
"248 380 LINE",
"158 380 LINE SMOOTH",
"91 380 OFFCURVE",
"38 337 OFFCURVE",
"38 285 CURVE SMOOTH",
"38 234 OFFCURVE",
"90 190 OFFCURVE",
"158 185 CURVE",
"238 185 LINE SMOOTH",
"257 185 OFFCURVE",
"273 171 OFFCURVE",
"273 155 CURVE SMOOTH",
"273 124 OFFCURVE",
"225 100 OFFCURVE",
"168 100 CURVE SMOOTH",
"123 100 OFFCURVE",
"83 115 OFFCURVE",
"58 140 CURVE",
"18 85 LINE",
"104 13 OFFCURVE",
"210 -75 OFFCURVE",
"268 -75 CURVE SMOOTH",
"323 -75 OFFCURVE",
"365 -66 OFFCURVE",
"388 -50 CURVE",
"363 5 LINE",
"350 -4 OFFCURVE",
"323 -10 OFFCURVE",
"288 -10 CURVE SMOOTH",
"241 -10 OFFCURVE",
"203 9 OFFCURVE",
"188 40 CURVE",
"201 33 OFFCURVE",
"220 30 OFFCURVE",
"243 30 CURVE SMOOTH",
"334 30 OFFCURVE",
"408 80 OFFCURVE",
"413 145 CURVE",
"427 138 OFFCURVE",
"442 135 OFFCURVE",
"458 135 CURVE SMOOTH",
"479 135 OFFCURVE",
"496 141 OFFCURVE",
"508 150 CURVE",
"508 0 LINE",
"648 0 LINE",
"648 440 LINE",
"718 440 LINE",
"718 500 LINE"
);
},
{
closed = 1;
nodes = (
"508 210 LINE",
"496 201 OFFCURVE",
"480 195 OFFCURVE",
"463 195 CURVE SMOOTH",
"436 195 OFFCURVE",
"417 198 OFFCURVE",
"408 205 CURVE",
"391 236 OFFCURVE",
"354 256 OFFCURVE",
"313 260 CURVE",
"213 260 LINE",
"197 261 OFFCURVE",
"185 274 OFFCURVE",
"185 290 CURVE SMOOTH",
"185 303 OFFCURVE",
"197 315 OFFCURVE",
"213 315 CURVE SMOOTH",
"388 315 LINE",
"388 440 LINE",
"508 440 LINE"
);
}
);
width = 708;
},
{
layerId = "DF715B94-208D-4FDD-A2D8-DFDAF561BFB9";
name = Bold;
paths = (
{
closed = 1;
nodes = (
"-10 500 LINE",
"-10 420 LINE",
"247 420 LINE",
"247 385 LINE",
"162 385 LINE SMOOTH",
"93 385 OFFCURVE",
"37 340 OFFCURVE",
"37 285 CURVE SMOOTH",
"37 232 OFFCURVE",
"94 187 OFFCURVE",
"167 180 CURVE",
"247 180 LINE SMOOTH",
"272 180 OFFCURVE",
"292 168 OFFCURVE",
"292 155 CURVE SMOOTH",
"292 132 OFFCURVE",
"249 115 OFFCURVE",
"197 115 CURVE SMOOTH",
"133 115 OFFCURVE",
"84 127 OFFCURVE",
"57 150 CURVE",
"17 85 LINE",
"144 -22 OFFCURVE",
"245 -80 OFFCURVE",
"302 -80 CURVE SMOOTH",
"353 -80 OFFCURVE",
"393 -72 OFFCURVE",
"422 -55 CURVE",
"402 5 LINE",
"389 -4 OFFCURVE",
"361 -10 OFFCURVE",
"322 -10 CURVE SMOOTH",
"275 -10 OFFCURVE",
"238 9 OFFCURVE",
"227 40 CURVE",
"240 33 OFFCURVE",
"264 30 OFFCURVE",
"297 30 CURVE SMOOTH",
"390 30 OFFCURVE",
"467 75 OFFCURVE",
"472 135 CURVE",
"479 132 OFFCURVE",
"489 130 OFFCURVE",
"502 130 CURVE SMOOTH",
"519 130 OFFCURVE",
"535 136 OFFCURVE",
"547 145 CURVE",
"547 0 LINE",
"747 0 LINE",
"747 420 LINE",
"812 420 LINE",
"812 500 LINE"
);
},
{
closed = 1;
nodes = (
"547 220 LINE",
"535 211 OFFCURVE",
"522 205 OFFCURVE",
"507 205 CURVE SMOOTH",
"492 205 OFFCURVE",
"478 208 OFFCURVE",
"467 215 CURVE",
"448 242 OFFCURVE",
"403 260 OFFCURVE",
"342 265 CURVE",
"262 265 LINE",
"254 266 OFFCURVE",
"247 274 OFFCURVE",
"247 285 CURVE SMOOTH",
"247 293 OFFCURVE",
"254 300 OFFCURVE",
"262 300 CURVE SMOOTH",
"447 300 LINE",
"447 420 LINE",
"547 420 LINE"
);
}
);
width = 802;
}
);
unicode = 091D;
},
{
glyphname = "nya-deva";
lastChange = "2014-09-28 11:15:52 +0000";
layers = (
{
layerId = "5BCE6BDF-3D16-43B2-91D3-33CD61D1CB11";
name = Regular;
paths = (
{
closed = 1;
nodes = (
"-10 500 LINE",
"-10 440 LINE",
"429 440 LINE",
"429 290 LINE",
"417 280 OFFCURVE",
"404 275 OFFCURVE",
"389 275 CURVE SMOOTH",
"374 275 OFFCURVE",
"363 280 OFFCURVE",
"354 290 CURVE",
"339 333 OFFCURVE",
"287 360 OFFCURVE",
"224 360 CURVE SMOOTH",
"114 360 LINE",
"114 290 LINE",
"174 290 LINE SMOOTH",
"207 290 OFFCURVE",
"234 254 OFFCURVE",
"234 210 CURVE SMOOTH",
"234 171 OFFCURVE",
"203 140 OFFCURVE",
"164 140 CURVE SMOOTH",
"116 140 OFFCURVE",
"74 167 OFFCURVE",
"59 210 CURVE",
"9 170 LINE",
"42 99 OFFCURVE",
"109 55 OFFCURVE",
"184 55 CURVE SMOOTH",
"281 55 OFFCURVE",
"361 122 OFFCURVE",
"369 210 CURVE",
"379 204 OFFCURVE",
"389 201 OFFCURVE",
"400 201 CURVE SMOOTH",
"411 201 OFFCURVE",
"421 204 OFFCURVE",
"429 210 CURVE",
"429 0 LINE",
"569 0 LINE",
"569 440 LINE",
"639 440 LINE",
"639 500 LINE"
);
}
);
width = 629;
},
{
layerId = "DF715B94-208D-4FDD-A2D8-DFDAF561BFB9";
name = Bold;
paths = (
{
closed = 1;
nodes = (
"-10 500 LINE",
"-10 420 LINE",
"448 420 LINE",
"448 290 LINE",
"440 283 OFFCURVE",
"431 280 OFFCURVE",
"421 280 CURVE SMOOTH",
"412 280 OFFCURVE",
"404 283 OFFCURVE",
"398 290 CURVE",
"381 338 OFFCURVE",
"328 370 OFFCURVE",
"268 370 CURVE SMOOTH",
"133 370 LINE",
"133 285 LINE",
"168 285 LINE SMOOTH",
"193 285 OFFCURVE",
"213 251 OFFCURVE",
"213 210 CURVE SMOOTH",
"213 174 OFFCURVE",
"186 145 OFFCURVE",
"153 145 CURVE SMOOTH",
"124 145 OFFCURVE",
"93 172 OFFCURVE",
"78 215 CURVE",
"8 170 LINE",
"44 94 OFFCURVE",
"119 45 OFFCURVE",
"203 45 CURVE SMOOTH",
"311 45 OFFCURVE",
"400 112 OFFCURVE",
"408 200 CURVE",
"415 196 OFFCURVE",
"422 194 OFFCURVE",
"429 194 CURVE SMOOTH",
"436 194 OFFCURVE",
"443 196 OFFCURVE",
"448 200 CURVE",
"448 0 LINE",
"648 0 LINE",
"648 420 LINE",
"713 420 LINE",
"713 500 LINE"
);
}
);
width = 703;
}
);
unicode = 091E;
},
{
glyphname = "tta-deva";
lastChange = "2014-09-28 11:15:52 +0000";
layers = (
{
layerId = "5BCE6BDF-3D16-43B2-91D3-33CD61D1CB11";
name = Regular;
paths = (
{
closed = 1;
nodes = (
"-10 500 LINE",
"-10 440 LINE",
"321 440 LINE",
"321 370 LINE",
"236 370 LINE SMOOTH",
"109 370 OFFCURVE",
"26 300 OFFCURVE",
"26 195 CURVE SMOOTH",
"26 78 OFFCURVE",
"125 0 OFFCURVE",
"276 0 CURVE SMOOTH",
"375 0 OFFCURVE",
"461 30 OFFCURVE",
"516 85 CURVE",
"471 135 LINE",
"420 94 OFFCURVE",
"361 70 OFFCURVE",
"301 70 CURVE SMOOTH",
"224 70 OFFCURVE",
"173 119 OFFCURVE",
"173 195 CURVE SMOOTH",
"173 259 OFFCURVE",
"219 300 OFFCURVE",
"291 300 CURVE SMOOTH",
"461 300 LINE",
"461 440 LINE",
"535 440 LINE",
"535 500 LINE"
);
}
);
width = 525;
},
{
layerId = "DF715B94-208D-4FDD-A2D8-DFDAF561BFB9";
name = Bold;
paths = (
{
closed = 1;
nodes = (
"-10 500 LINE",
"-10 420 LINE",
"318 420 LINE",
"318 365 LINE",
"248 365 LINE SMOOTH",
"112 365 OFFCURVE",
"23 295 OFFCURVE",
"23 190 CURVE SMOOTH",
"23 73 OFFCURVE",
"131 -5 OFFCURVE",
"298 -5 CURVE SMOOTH",
"407 -5 OFFCURVE",
"498 25 OFFCURVE",
"553 80 CURVE",
"508 150 LINE",
"457 109 OFFCURVE",
"407 85 OFFCURVE",
"363 85 CURVE SMOOTH",
"284 85 OFFCURVE",
"233 126 OFFCURVE",
"233 190 CURVE SMOOTH",
"233 242 OFFCURVE",
"268 275 OFFCURVE",
"323 275 CURVE SMOOTH",
"518 275 LINE",
"518 420 LINE",
"578 420 LINE",
"578 500 LINE"
);
}
);
width = 568;
}
);
unicode = 091F;
},
{
glyphname = "ttha-deva";
lastChange = "2014-09-28 11:15:52 +0000";
layers = (
{
layerId = "5BCE6BDF-3D16-43B2-91D3-33CD61D1CB11";
name = Regular;
paths = (
{
closed = 1;
nodes = (
"-10 500 LINE",
"-10 440 LINE",
"222 440 LINE",
"222 365 LINE",
"103 365 OFFCURVE",
"26 295 OFFCURVE",
"26 190 CURVE SMOOTH",
"26 81 OFFCURVE",
"130 0 OFFCURVE",
"271 0 CURVE SMOOTH",
"418 0 OFFCURVE",
"525 81 OFFCURVE",
"525 190 CURVE SMOOTH",
"525 275 OFFCURVE",
"461 343 OFFCURVE",
"362 360 CURVE",
"362 440 LINE",
"559 440 LINE",
"559 500 LINE"
);
},
{
closed = 1;
nodes = (
"330 305 OFFCURVE",
"378 252 OFFCURVE",
"378 185 CURVE SMOOTH",
"378 118 OFFCURVE",
"330 65 OFFCURVE",
"270 65 CURVE SMOOTH",
"217 65 OFFCURVE",
"173 118 OFFCURVE",
"173 185 CURVE SMOOTH",
"173 252 OFFCURVE",
"217 305 OFFCURVE",
"270 305 CURVE SMOOTH"
);
}
);
width = 549;
},
{
layerId = "DF715B94-208D-4FDD-A2D8-DFDAF561BFB9";
name = Bold;
paths = (
{
closed = 1;
nodes = (
"-10 500 LINE",
"-10 420 LINE",
"246 420 LINE",
"246 365 LINE",
"111 365 OFFCURVE",
"23 295 OFFCURVE",
"23 190 CURVE SMOOTH",
"23 75 OFFCURVE",
"134 0 OFFCURVE",
"303 0 CURVE SMOOTH",
"483 0 OFFCURVE",
"600 75 OFFCURVE",
"600 190 CURVE SMOOTH",
"600 274 OFFCURVE",
"528 341 OFFCURVE",
"419 360 CURVE",
"419 420 LINE",
"632 420 LINE",
"632 500 LINE"
);
},
{
closed = 1;
nodes = (
"350 285 OFFCURVE",
"390 240 OFFCURVE",
"390 185 CURVE SMOOTH",
"390 130 OFFCURVE",
"350 85 OFFCURVE",
"302 85 CURVE SMOOTH",
"263 85 OFFCURVE",
"233 130 OFFCURVE",
"233 185 CURVE SMOOTH",
"233 240 OFFCURVE",
"263 285 OFFCURVE",
"302 285 CURVE SMOOTH"
);
}
);
width = 622;
}
);
unicode = 0920;
},
{
glyphname = "dda-deva";
lastChange = "2014-09-28 11:16:53 +0000";
layers = (
{
layerId = "5BCE6BDF-3D16-43B2-91D3-33CD61D1CB11";
name = Regular;
paths = (
{
closed = 1;
nodes = (
"-10 500 LINE",
"-10 440 LINE",
"291 440 LINE",
"291 385 LINE",
"161 385 LINE SMOOTH",
"94 385 OFFCURVE",
"41 340 OFFCURVE",
"41 285 CURVE SMOOTH",
"41 232 OFFCURVE",
"100 187 OFFCURVE",
"176 180 CURVE",
"271 180 LINE SMOOTH",
"299 180 OFFCURVE",
"321 160 OFFCURVE",
"321 135 CURVE SMOOTH",
"321 102 OFFCURVE",
"280 75 OFFCURVE",
"231 75 CURVE SMOOTH",
"172 75 OFFCURVE",
"109 100 OFFCURVE",
"56 145 CURVE",
"16 100 LINE",
"69 36 OFFCURVE",
"154 0 OFFCURVE",
"246 0 CURVE SMOOTH",
"369 0 OFFCURVE",
"468 60 OFFCURVE",
"468 135 CURVE SMOOTH",
"468 191 OFFCURVE",
"411 238 OFFCURVE",
"336 245 CURVE",
"231 245 LINE SMOOTH",
"207 245 OFFCURVE",
"188 262 OFFCURVE",
"188 285 CURVE SMOOTH",
"188 304 OFFCURVE",
"205 320 OFFCURVE",
"226 320 CURVE SMOOTH",
"431 320 LINE",
"431 440 LINE",
"501 440 LINE",
"501 500 LINE"
);
}
);
width = 491;
},
{
layerId = "DF715B94-208D-4FDD-A2D8-DFDAF561BFB9";
name = Bold;
paths = (
{
closed = 1;
nodes = (
"-10 500 LINE",
"-10 420 LINE",
"296 420 LINE",
"296 385 LINE",
"206 385 LINE SMOOTH",
"121 385 OFFCURVE",
"51 337 OFFCURVE",
"51 280 CURVE SMOOTH",
"51 216 OFFCURVE",
"116 165 OFFCURVE",
"196 165 CURVE SMOOTH",
"271 165 LINE SMOOTH",
"304 165 OFFCURVE",
"331 148 OFFCURVE",
"331 125 CURVE SMOOTH",
"331 95 OFFCURVE",
"275 85 OFFCURVE",
"231 85 CURVE SMOOTH",
"174 85 OFFCURVE",
"112 110 OFFCURVE",
"56 155 CURVE",
"11 85 LINE",
"66 30 OFFCURVE",
"162 0 OFFCURVE",
"281 0 CURVE SMOOTH",
"438 0 OFFCURVE",
"541 49 OFFCURVE",
"541 125 CURVE SMOOTH",
"541 186 OFFCURVE",
"464 235 OFFCURVE",
"371 235 CURVE SMOOTH",
"301 235 LINE SMOOTH",
"278 235 OFFCURVE",
"261 250 OFFCURVE",
"261 267 CURVE SMOOTH",
"261 286 OFFCURVE",
"277 300 OFFCURVE",
"296 300 CURVE SMOOTH",
"496 300 LINE",
"496 420 LINE",
"569 420 LINE",
"569 500 LINE"
);
}
);
width = 559;
}
);
unicode = 0921;
},
{
glyphname = "ddha-deva";
lastChange = "2014-09-28 11:17:03 +0000";
layers = (
{
layerId = "5BCE6BDF-3D16-43B2-91D3-33CD61D1CB11";
name = Regular;
paths = (
{
closed = 1;
nodes = (
"-10 500 LINE",
"-10 440 LINE",
"310 440 LINE",
"310 385 LINE",
"250 385 LINE SMOOTH",
"126 385 OFFCURVE",
"25 305 OFFCURVE",
"25 205 CURVE SMOOTH",
"25 86 OFFCURVE",
"134 0 OFFCURVE",
"285 0 CURVE SMOOTH",
"433 0 OFFCURVE",
"530 51 OFFCURVE",
"530 130 CURVE SMOOTH",
"530 197 OFFCURVE",
"475 240 OFFCURVE",
"390 240 CURVE SMOOTH",
"302 240 OFFCURVE",
"224 186 OFFCURVE",
"195 105 CURVE",
"180 117 OFFCURVE",
"172 150 OFFCURVE",
"172 195 CURVE SMOOTH",
"172 264 OFFCURVE",
"234 320 OFFCURVE",
"310 320 CURVE SMOOTH",
"450 320 LINE",
"450 440 LINE",
"558 440 LINE",
"558 500 LINE"
);
},
{
closed = 1;
nodes = (
"411 175 OFFCURVE",
"435 158 OFFCURVE",
"435 135 CURVE SMOOTH",
"435 99 OFFCURVE",
"390 70 OFFCURVE",
"335 70 CURVE SMOOTH",
"299 70 OFFCURVE",
"274 73 OFFCURVE",
"265 80 CURVE",
"286 137 OFFCURVE",
"332 175 OFFCURVE",
"380 175 CURVE SMOOTH"
);
}
);
width = 548;
},
{
layerId = "DF715B94-208D-4FDD-A2D8-DFDAF561BFB9";
name = Bold;
paths = (
{
closed = 1;
nodes = (
"-10 500 LINE",
"-10 420 LINE",
"308 420 LINE",
"308 385 LINE",
"253 385 LINE SMOOTH",
"126 385 OFFCURVE",
"23 303 OFFCURVE",
"23 200 CURVE SMOOTH",
"23 79 OFFCURVE",
"142 0 OFFCURVE",
"323 0 CURVE SMOOTH",
"480 0 OFFCURVE",
"583 51 OFFCURVE",
"583 130 CURVE SMOOTH",
"583 202 OFFCURVE",
"524 250 OFFCURVE",
"433 250 CURVE SMOOTH",
"345 250 OFFCURVE",
"270 202 OFFCURVE",
"243 130 CURVE",
"232 138 OFFCURVE",
"233 171 OFFCURVE",
"233 200 CURVE SMOOTH",
"233 255 OFFCURVE",
"289 300 OFFCURVE",
"358 300 CURVE SMOOTH",
"508 300 LINE",
"508 420 LINE",
"610 420 LINE",
"610 500 LINE"
);
},
{
closed = 1;
nodes = (
"449 175 OFFCURVE",
"473 158 OFFCURVE",
"473 135 CURVE SMOOTH",
"473 104 OFFCURVE",
"428 80 OFFCURVE",
"373 80 CURVE SMOOTH",
"344 80 OFFCURVE",
"322 83 OFFCURVE",
"313 90 CURVE",
"332 141 OFFCURVE",
"374 175 OFFCURVE",
"418 175 CURVE SMOOTH"
);
}
);
width = 600;
}
);
unicode = 0922;
},
{
glyphname = "nna-deva";
lastChange = "2014-09-28 11:15:52 +0000";
layers = (
{
layerId = "5BCE6BDF-3D16-43B2-91D3-33CD61D1CB11";
name = Regular;
paths = (
{
closed = 1;
nodes = (
"-10 500 LINE",
"-10 440 LINE",
"56 440 LINE",
"40 412 OFFCURVE",
"31 362 OFFCURVE",
"31 295 CURVE SMOOTH",
"31 176 OFFCURVE",
"130 80 OFFCURVE",
"251 80 CURVE SMOOTH",
"371 80 OFFCURVE",
"468 176 OFFCURVE",
"468 295 CURVE SMOOTH",
"468 353 OFFCURVE",
"459 401 OFFCURVE",
"441 440 CURVE",
"546 440 LINE",
"546 0 LINE",
"686 0 LINE",
"686 440 LINE",
"756 440 LINE",
"756 500 LINE"
);
},
{
closed = 1;
nodes = (
"313 404 OFFCURVE",
"321 356 OFFCURVE",
"321 295 CURVE SMOOTH",
"321 231 OFFCURVE",
"270 180 OFFCURVE",
"206 180 CURVE SMOOTH",
"151 180 OFFCURVE",
"106 236 OFFCURVE",
"106 305 CURVE SMOOTH",
"106 366 OFFCURVE",
"114 411 OFFCURVE",
"131 440 CURVE",
"296 440 LINE"
);
}
);
width = 746;
},
{
layerId = "DF715B94-208D-4FDD-A2D8-DFDAF561BFB9";
name = Bold;
paths = (
{
closed = 1;
nodes = (
"-10 500 LINE",
"-10 420 LINE",
"54 420 LINE",
"38 392 OFFCURVE",
"29 342 OFFCURVE",
"29 275 CURVE SMOOTH",
"29 156 OFFCURVE",
"132 60 OFFCURVE",
"259 60 CURVE SMOOTH",
"403 60 OFFCURVE",
"519 156 OFFCURVE",
"519 275 CURVE SMOOTH",
"519 329 OFFCURVE",
"509 377 OFFCURVE",
"489 420 CURVE",
"594 420 LINE",
"594 0 LINE",
"794 0 LINE",
"794 420 LINE",
"859 420 LINE",
"859 500 LINE"
);
},
{
closed = 1;
nodes = (
"301 384 OFFCURVE",
"309 336 OFFCURVE",
"309 275 CURVE SMOOTH",
"309 223 OFFCURVE",
"266 180 OFFCURVE",
"214 180 CURVE SMOOTH",
"159 180 OFFCURVE",
"114 223 OFFCURVE",
"114 275 CURVE SMOOTH",
"114 331 OFFCURVE",
"126 379 OFFCURVE",
"149 420 CURVE",
"284 420 LINE"
);
}
);
width = 849;
}
);
unicode = 0923;
},
{
glyphname = "ta-deva";
lastChange = "2014-09-28 11:15:52 +0000";
layers = (
{
layerId = "5BCE6BDF-3D16-43B2-91D3-33CD61D1CB11";
name = Regular;
paths = (
{
closed = 1;
nodes = (
"-10 500 LINE",
"-10 440 LINE",
"349 440 LINE",
"349 375 LINE",
"164 375 LINE SMOOTH",
"87 375 OFFCURVE",
"24 315 OFFCURVE",
"24 240 CURVE SMOOTH",
"24 157 OFFCURVE",
"94 67 OFFCURVE",
"209 0 CURVE",
"239 45 LINE",
"196 81 OFFCURVE",
"171 143 OFFCURVE",
"171 215 CURVE SMOOTH",
"171 264 OFFCURVE",
"204 305 OFFCURVE",
"244 305 CURVE SMOOTH",
"349 305 LINE",
"349 0 LINE",
"489 0 LINE",
"489 440 LINE",
"559 440 LINE",
"559 500 LINE"
);
}
);
width = 549;
},
{
layerId = "DF715B94-208D-4FDD-A2D8-DFDAF561BFB9";
name = Bold;
paths = (
{
closed = 1;
nodes = (
"-10 500 LINE",
"-10 420 LINE",
"385 420 LINE",
"385 370 LINE",
"175 370 LINE SMOOTH",
"90 370 OFFCURVE",
"20 310 OFFCURVE",
"20 235 CURVE SMOOTH",
"20 155 OFFCURVE",
"108 64 OFFCURVE",
"245 0 CURVE",
"290 65 LINE",
"251 97 OFFCURVE",
"230 148 OFFCURVE",
"230 205 CURVE SMOOTH",
"230 246 OFFCURVE",
"259 280 OFFCURVE",
"295 280 CURVE SMOOTH",
"385 280 LINE",
"385 0 LINE",
"585 0 LINE",
"585 420 LINE",
"650 420 LINE",
"650 500 LINE"
);
}
);
width = 640;
}
);
unicode = 0924;
},
{
glyphname = "tha-deva";
lastChange = "2014-09-28 11:17:30 +0000";
layers = (
{
layerId = "5BCE6BDF-3D16-43B2-91D3-33CD61D1CB11";
name = Regular;
paths = (
{
closed = 1;
nodes = (
"135 540 OFFCURVE",
"61 482 OFFCURVE",
"61 410 CURVE SMOOTH",
"61 358 OFFCURVE",
"95 313 OFFCURVE",
"146 300 CURVE",
"128 293 OFFCURVE",
"86 290 OFFCURVE",
"21 290 CURVE",
"21 250 LINE SMOOTH",
"21 142 OFFCURVE",
"122 55 OFFCURVE",
"246 55 CURVE SMOOTH",
"335 55 OFFCURVE",
"415 84 OFFCURVE",
"466 135 CURVE",
"466 0 LINE",
"606 0 LINE",
"606 440 LINE",
"676 440 LINE",
"676 500 LINE",
"416 500 LINE",
"416 440 LINE",
"466 440 LINE",
"466 215 LINE",
"415 164 OFFCURVE",
"359 135 OFFCURVE",
"311 135 CURVE SMOOTH",
"228 135 OFFCURVE",
"161 184 OFFCURVE",
"161 245 CURVE",
"290 245 OFFCURVE",
"396 319 OFFCURVE",
"396 410 CURVE SMOOTH",
"396 482 OFFCURVE",
"319 540 OFFCURVE",
"226 540 CURVE SMOOTH"
);
},
{
closed = 1;
nodes = (
"259 465 OFFCURVE",
"286 441 OFFCURVE",
"286 410 CURVE SMOOTH",
"286 371 OFFCURVE",
"259 340 OFFCURVE",
"226 340 CURVE SMOOTH",
"193 340 OFFCURVE",
"166 369 OFFCURVE",
"166 405 CURVE SMOOTH",
"166 438 OFFCURVE",
"193 465 OFFCURVE",
"226 465 CURVE SMOOTH"
);
}
);
width = 666;
},
{
layerId = "DF715B94-208D-4FDD-A2D8-DFDAF561BFB9";
name = Bold;
paths = (
{
closed = 1;
nodes = (
"152 540 OFFCURVE",
"70 482 OFFCURVE",
"70 410 CURVE SMOOTH",
"70 374 OFFCURVE",
"90 339 OFFCURVE",
"125 315 CURVE",
"116 312 OFFCURVE",
"88 310 OFFCURVE",
"20 310 CURVE",
"20 245 LINE SMOOTH",
"20 137 OFFCURVE",
"134 50 OFFCURVE",
"275 50 CURVE SMOOTH",
"362 50 OFFCURVE",
"440 80 OFFCURVE",
"495 135 CURVE",
"495 0 LINE",
"695 0 LINE",
"695 420 LINE",
"760 420 LINE",
"760 500 LINE",
"465 500 LINE",
"465 420 LINE",
"495 420 LINE",
"495 225 LINE",
"444 174 OFFCURVE",
"395 145 OFFCURVE",
"360 145 CURVE SMOOTH",
"283 145 OFFCURVE",
"220 190 OFFCURVE",
"220 245 CURVE",
"344 245 OFFCURVE",
"445 319 OFFCURVE",
"445 410 CURVE SMOOTH",
"445 482 OFFCURVE",
"360 540 OFFCURVE",
"255 540 CURVE SMOOTH"
);
},
{
closed = 1;
nodes = (
"283 455 OFFCURVE",
"305 435 OFFCURVE",
"305 410 CURVE SMOOTH",
"305 377 OFFCURVE",
"283 350 OFFCURVE",
"255 350 CURVE SMOOTH",
"227 350 OFFCURVE",
"205 377 OFFCURVE",
"205 410 CURVE SMOOTH",
"205 435 OFFCURVE",
"227 455 OFFCURVE",
"255 455 CURVE SMOOTH"
);
}
);
width = 750;
}
);
unicode = 0925;
},
{
glyphname = "da-deva";
lastChange = "2014-09-28 11:15:52 +0000";
layers = (
{
layerId = "5BCE6BDF-3D16-43B2-91D3-33CD61D1CB11";
name = Regular;
paths = (
{
closed = 1;
nodes = (
"-10 500 LINE",
"-10 440 LINE",
"309 440 LINE",
"309 375 LINE",
"209 375 LINE SMOOTH",
"97 375 OFFCURVE",
"24 313 OFFCURVE",
"24 220 CURVE SMOOTH",
"24 124 OFFCURVE",
"120 45 OFFCURVE",
"239 45 CURVE SMOOTH",
"289 45 LINE",
"324 -80 LINE",
"464 -80 LINE",
"424 45 LINE",
"460 58 OFFCURVE",
"484 85 OFFCURVE",
"484 110 CURVE SMOOTH",
"484 154 OFFCURVE",
"436 190 OFFCURVE",
"379 190 CURVE SMOOTH",
"322 190 OFFCURVE",
"274 154 OFFCURVE",
"274 110 CURVE",
"211 110 OFFCURVE",
"171 153 OFFCURVE",
"171 220 CURVE SMOOTH",
"171 269 OFFCURVE",
"211 310 OFFCURVE",
"259 310 CURVE SMOOTH",
"449 310 LINE",
"449 440 LINE",
"515 440 LINE",
"515 500 LINE"
);
}
);
width = 505;
},
{
layerId = "DF715B94-208D-4FDD-A2D8-DFDAF561BFB9";
name = Bold;
paths = (
{
closed = 1;
nodes = (
"-10 500 LINE",
"-10 420 LINE",
"307 420 LINE",
"307 375 LINE",
"207 375 LINE SMOOTH",
"95 375 OFFCURVE",
"22 313 OFFCURVE",
"22 220 CURVE SMOOTH",
"22 115 OFFCURVE",
"114 45 OFFCURVE",
"257 45 CURVE SMOOTH",
"307 45 LINE",
"342 -80 LINE",
"537 -80 LINE",
"497 45 LINE",
"536 60 OFFCURVE",
"562 89 OFFCURVE",
"562 120 CURVE SMOOTH",
"562 172 OFFCURVE",
"504 215 OFFCURVE",
"432 215 CURVE SMOOTH",
"365 215 OFFCURVE",
"312 179 OFFCURVE",
"312 135 CURVE",
"264 135 OFFCURVE",
"232 170 OFFCURVE",
"232 225 CURVE SMOOTH",
"232 264 OFFCURVE",
"261 295 OFFCURVE",
"297 295 CURVE SMOOTH",
"507 295 LINE",
"507 420 LINE",
"586 420 LINE",
"586 500 LINE"
);
}
);
width = 576;
}
);
unicode = 0926;
},
{
glyphname = "dha-deva";
lastChange = "2014-09-28 11:15:52 +0000";
layers = (
{
layerId = "5BCE6BDF-3D16-43B2-91D3-33CD61D1CB11";
name = Regular;
paths = (
{
closed = 1;
nodes = (
"106 535 OFFCURVE",
"26 479 OFFCURVE",
"26 410 CURVE SMOOTH",
"26 357 OFFCURVE",
"63 310 OFFCURVE",
"116 295 CURVE",
"68 278 OFFCURVE",
"36 241 OFFCURVE",
"36 205 CURVE SMOOTH",
"36 125 OFFCURVE",
"132 60 OFFCURVE",
"251 60 CURVE SMOOTH",
"314 60 OFFCURVE",
"375 84 OFFCURVE",
"426 125 CURVE",
"426 0 LINE",
"566 0 LINE",
"566 440 LINE",
"636 440 LINE",
"636 500 LINE",
"391 500 LINE",
"391 440 LINE",
"426 440 LINE",
"426 230 LINE",
"399 173 OFFCURVE",
"340 135 OFFCURVE",
"276 135 CURVE SMOOTH",
"224 135 OFFCURVE",
"183 166 OFFCURVE",
"183 205 CURVE SMOOTH",
"183 233 OFFCURVE",
"212 258 OFFCURVE",
"251 265 CURVE",
"251 325 LINE",
"208 325 OFFCURVE",
"173 363 OFFCURVE",
"173 410 CURVE SMOOTH",
"173 443 OFFCURVE",
"204 470 OFFCURVE",
"241 470 CURVE SMOOTH",
"264 470 OFFCURVE",
"281 456 OFFCURVE",
"281 440 CURVE SMOOTH",
"281 432 OFFCURVE",
"272 425 OFFCURVE",
"261 425 CURVE",
"261 370 LINE",
"313 370 OFFCURVE",
"356 404 OFFCURVE",
"356 445 CURVE SMOOTH",
"356 494 OFFCURVE",
"289 535 OFFCURVE",
"206 535 CURVE SMOOTH"
);
}
);
width = 626;
},
{
layerId = "DF715B94-208D-4FDD-A2D8-DFDAF561BFB9";
name = Bold;
paths = (
{
closed = 1;
nodes = (
"107 540 OFFCURVE",
"18 482 OFFCURVE",
"18 410 CURVE SMOOTH",
"18 357 OFFCURVE",
"55 310 OFFCURVE",
"108 295 CURVE",
"65 280 OFFCURVE",
"38 241 OFFCURVE",
"38 200 CURVE SMOOTH",
"38 123 OFFCURVE",
"141 60 OFFCURVE",
"268 60 CURVE SMOOTH",
"337 60 OFFCURVE",
"401 80 OFFCURVE",
"458 120 CURVE",
"458 0 LINE",
"658 0 LINE",
"658 420 LINE",
"723 420 LINE",
"723 500 LINE",
"423 500 LINE",
"423 415 LINE",
"458 415 LINE",
"458 240 LINE",
"431 183 OFFCURVE",
"375 145 OFFCURVE",
"318 145 CURVE SMOOTH",
"279 145 OFFCURVE",
"248 169 OFFCURVE",
"248 200 CURVE SMOOTH",
"248 229 OFFCURVE",
"271 255 OFFCURVE",
"303 260 CURVE",
"303 330 LINE",
"262 330 OFFCURVE",
"228 366 OFFCURVE",
"228 410 CURVE SMOOTH",
"228 441 OFFCURVE",
"248 465 OFFCURVE",
"273 465 CURVE SMOOTH",
"296 465 OFFCURVE",
"313 456 OFFCURVE",
"313 445 CURVE SMOOTH",
"313 434 OFFCURVE",
"304 425 OFFCURVE",
"293 425 CURVE",
"293 365 LINE",
"348 365 OFFCURVE",
"393 401 OFFCURVE",
"393 445 CURVE SMOOTH",
"393 497 OFFCURVE",
"314 540 OFFCURVE",
"218 540 CURVE SMOOTH"
);
}
);
width = 713;
}
);
unicode = 0927;
},
{
glyphname = "na-deva";
lastChange = "2014-09-28 11:15:52 +0000";
layers = (
{
layerId = "5BCE6BDF-3D16-43B2-91D3-33CD61D1CB11";
name = Regular;
paths = (
{
closed = 1;
nodes = (
"-10 500 LINE",
"-10 440 LINE",
"412 440 LINE",
"412 350 LINE",
"187 350 LINE SMOOTH",
"96 350 OFFCURVE",
"22 287 OFFCURVE",
"22 210 CURVE SMOOTH",
"22 127 OFFCURVE",
"99 60 OFFCURVE",
"192 60 CURVE SMOOTH",
"280 60 OFFCURVE",
"352 125 OFFCURVE",
"352 205 CURVE",
"277 205 LINE",
"277 172 OFFCURVE",
"255 145 OFFCURVE",
"227 145 CURVE SMOOTH",
"195 145 OFFCURVE",
"169 174 OFFCURVE",
"169 210 CURVE SMOOTH",
"169 251 OFFCURVE",
"195 285 OFFCURVE",
"227 285 CURVE SMOOTH",
"412 285 LINE",
"412 0 LINE",
"552 0 LINE",
"552 440 LINE",
"622 440 LINE",
"622 500 LINE"
);
}
);
width = 612;
},
{
layerId = "DF715B94-208D-4FDD-A2D8-DFDAF561BFB9";
name = Bold;
paths = (
{
closed = 1;
nodes = (
"-10 500 LINE",
"-10 420 LINE",
"470 420 LINE",
"470 360 LINE",
"210 360 LINE SMOOTH",
"105 360 OFFCURVE",
"20 290 OFFCURVE",
"20 205 CURVE SMOOTH",
"20 122 OFFCURVE",
"105 55 OFFCURVE",
"210 55 CURVE SMOOTH",
"321 55 OFFCURVE",
"410 122 OFFCURVE",
"410 205 CURVE",
"320 205 LINE",
"320 177 OFFCURVE",
"300 155 OFFCURVE",
"275 155 CURVE SMOOTH",
"250 155 OFFCURVE",
"230 177 OFFCURVE",
"230 205 CURVE SMOOTH",
"230 244 OFFCURVE",
"250 275 OFFCURVE",
"275 275 CURVE SMOOTH",
"470 275 LINE",
"470 0 LINE",
"670 0 LINE",
"670 420 LINE",
"735 420 LINE",
"735 500 LINE"
);
}
);
width = 725;
}
);
unicode = 0928;
},
{
glyphname = "nnna-deva";
lastChange = "2014-09-28 11:15:52 +0000";
layers = (
{
layerId = "5BCE6BDF-3D16-43B2-91D3-33CD61D1CB11";
name = Regular;
paths = (
{
closed = 1;
nodes = (
"-10 500 LINE",
"-10 440 LINE",
"412 440 LINE",
"412 350 LINE",
"187 350 LINE SMOOTH",
"96 350 OFFCURVE",
"22 287 OFFCURVE",
"22 210 CURVE SMOOTH",
"22 127 OFFCURVE",
"99 60 OFFCURVE",
"192 60 CURVE SMOOTH",
"280 60 OFFCURVE",
"352 125 OFFCURVE",
"352 205 CURVE",
"277 205 LINE",
"277 172 OFFCURVE",
"255 145 OFFCURVE",
"227 145 CURVE SMOOTH",
"195 145 OFFCURVE",
"169 174 OFFCURVE",
"169 210 CURVE SMOOTH",
"169 251 OFFCURVE",
"195 285 OFFCURVE",
"227 285 CURVE SMOOTH",
"412 285 LINE",
"412 0 LINE",
"552 0 LINE",
"552 440 LINE",
"622 440 LINE",
"622 500 LINE"
);
},
{
closed = 1;
nodes = (
"165 0 OFFCURVE",
"134 -24 OFFCURVE",
"134 -55 CURVE SMOOTH",
"134 -86 OFFCURVE",
"165 -110 OFFCURVE",
"204 -110 CURVE SMOOTH",
"247 -110 OFFCURVE",
"281 -86 OFFCURVE",
"281 -55 CURVE SMOOTH",
"281 -24 OFFCURVE",
"247 0 OFFCURVE",
"204 0 CURVE SMOOTH"
);
}
);
width = 612;
},
{
layerId = "DF715B94-208D-4FDD-A2D8-DFDAF561BFB9";
name = Bold;
paths = (
{
closed = 1;
nodes = (
"-10 500 LINE",
"-10 420 LINE",
"470 420 LINE",
"470 360 LINE",
"210 360 LINE SMOOTH",
"105 360 OFFCURVE",
"20 290 OFFCURVE",
"20 205 CURVE SMOOTH",
"20 122 OFFCURVE",
"105 55 OFFCURVE",
"210 55 CURVE SMOOTH",
"321 55 OFFCURVE",
"410 122 OFFCURVE",
"410 205 CURVE",
"320 205 LINE",
"320 177 OFFCURVE",
"300 155 OFFCURVE",
"275 155 CURVE SMOOTH",
"250 155 OFFCURVE",
"230 177 OFFCURVE",
"230 205 CURVE SMOOTH",
"230 244 OFFCURVE",
"250 275 OFFCURVE",
"275 275 CURVE SMOOTH",
"470 275 LINE",
"470 0 LINE",
"670 0 LINE",
"670 420 LINE",
"735 420 LINE",
"735 500 LINE"
);
},
{
closed = 1;
nodes = (
"187 0 OFFCURVE",
"149 -31 OFFCURVE",
"149 -70 CURVE SMOOTH",
"149 -109 OFFCURVE",
"187 -140 OFFCURVE",
"234 -140 CURVE SMOOTH",
"278 -140 OFFCURVE",
"314 -109 OFFCURVE",
"314 -70 CURVE SMOOTH",
"314 -31 OFFCURVE",
"278 0 OFFCURVE",
"234 0 CURVE SMOOTH"
);
}
);
width = 725;
}
);
unicode = 0929;
},
{
glyphname = "pa-deva";
lastChange = "2014-09-28 11:15:52 +0000";
layers = (
{
layerId = "5BCE6BDF-3D16-43B2-91D3-33CD61D1CB11";
name = Regular;
paths = (
{
closed = 1;
nodes = (
"-10 500 LINE",
"-10 440 LINE",
"37 440 LINE",
"37 245 LINE SMOOTH",
"37 157 OFFCURVE",
"119 85 OFFCURVE",
"222 85 CURVE SMOOTH",
"281 85 OFFCURVE",
"333 103 OFFCURVE",
"372 135 CURVE",
"372 0 LINE",
"512 0 LINE",
"512 440 LINE",
"582 440 LINE",
"582 500 LINE"
);
},
{
closed = 1;
nodes = (
"372 235 LINE",
"356 190 OFFCURVE",
"317 160 OFFCURVE",
"277 160 CURVE SMOOTH",
"225 160 OFFCURVE",
"184 196 OFFCURVE",
"184 240 CURVE SMOOTH",
"184 440 LINE",
"372 440 LINE"
);
}
);
width = 572;
},
{
layerId = "DF715B94-208D-4FDD-A2D8-DFDAF561BFB9";
name = Bold;
paths = (
{
closed = 1;
nodes = (
"-10 500 LINE",
"-10 420 LINE",
"32 420 LINE",
"32 245 LINE SMOOTH",
"32 154 OFFCURVE",
"131 80 OFFCURVE",
"252 80 CURVE SMOOTH",
"313 80 OFFCURVE",
"368 98 OFFCURVE",
"407 130 CURVE",
"407 0 LINE",
"607 0 LINE",
"607 420 LINE",
"672 420 LINE",
"672 500 LINE"
);
},
{
closed = 1;
nodes = (
"407 245 LINE",
"391 200 OFFCURVE",
"354 170 OFFCURVE",
"317 170 CURVE SMOOTH",
"270 170 OFFCURVE",
"232 204 OFFCURVE",
"232 245 CURVE SMOOTH",
"232 420 LINE",
"407 420 LINE"
);
}
);
width = 662;
}
);
unicode = 092A;
},
{
glyphname = "pha-deva";
lastChange = "2014-09-28 11:15:52 +0000";
layers = (
{
layerId = "5BCE6BDF-3D16-43B2-91D3-33CD61D1CB11";
name = Regular;
paths = (
{
closed = 1;
nodes = (
"-10 500 LINE",
"-10 440 LINE",
"37 440 LINE",
"37 250 LINE SMOOTH",
"37 167 OFFCURVE",
"109 100 OFFCURVE",
"197 100 CURVE SMOOTH",
"252 100 OFFCURVE",
"300 118 OFFCURVE",
"332 150 CURVE",
"332 0 LINE",
"472 0 LINE",
"472 270 LINE",
"487 295 OFFCURVE",
"515 310 OFFCURVE",
"547 310 CURVE SMOOTH",
"594 310 OFFCURVE",
"632 272 OFFCURVE",
"632 225 CURVE SMOOTH",
"632 170 OFFCURVE",
"584 125 OFFCURVE",
"527 125 CURVE",
"532 65 LINE",
"681 65 OFFCURVE",
"779 128 OFFCURVE",
"779 225 CURVE SMOOTH",
"779 318 OFFCURVE",
"700 380 OFFCURVE",
"577 380 CURVE SMOOTH",
"536 380 OFFCURVE",
"501 370 OFFCURVE",
"472 350 CURVE",
"472 440 LINE",
"806 440 LINE",
"806 500 LINE"
);
},
{
closed = 1;
nodes = (
"332 225 LINE",
"316 197 OFFCURVE",
"283 180 OFFCURVE",
"247 180 CURVE SMOOTH",
"212 180 OFFCURVE",
"184 211 OFFCURVE",
"184 250 CURVE SMOOTH",
"184 440 LINE",
"332 440 LINE"
);
}
);
width = 796;
},
{
layerId = "DF715B94-208D-4FDD-A2D8-DFDAF561BFB9";
name = Bold;
paths = (
{
closed = 1;
nodes = (
"-10 500 LINE",
"-10 420 LINE",
"32 420 LINE",
"32 250 LINE SMOOTH",
"32 162 OFFCURVE",
"114 90 OFFCURVE",
"217 90 CURVE SMOOTH",
"281 90 OFFCURVE",
"335 108 OFFCURVE",
"367 140 CURVE",
"367 0 LINE",
"567 0 LINE",
"567 250 LINE",
"583 278 OFFCURVE",
"608 295 OFFCURVE",
"632 295 CURVE SMOOTH",
"673 295 OFFCURVE",
"707 259 OFFCURVE",
"707 215 CURVE SMOOTH",
"707 168 OFFCURVE",
"671 130 OFFCURVE",
"627 130 CURVE",
"627 60 LINE",
"803 60 OFFCURVE",
"917 125 OFFCURVE",
"917 225 CURVE SMOOTH",
"917 318 OFFCURVE",
"834 380 OFFCURVE",
"707 380 CURVE SMOOTH",
"644 380 OFFCURVE",
"595 370 OFFCURVE",
"567 350 CURVE",
"567 420 LINE",
"932 420 LINE",
"932 500 LINE"
);
},
{
closed = 1;
nodes = (
"367 225 LINE",
"355 204 OFFCURVE",
"331 190 OFFCURVE",
"307 190 CURVE SMOOTH",
"266 190 OFFCURVE",
"232 217 OFFCURVE",
"232 250 CURVE SMOOTH",
"232 420 LINE",
"367 420 LINE"
);
}
);
width = 922;
}
);
unicode = 092B;
},
{
glyphname = "ba-deva";
lastChange = "2014-09-28 11:18:06 +0000";
layers = (
{
layerId = "5BCE6BDF-3D16-43B2-91D3-33CD61D1CB11";
name = Regular;
paths = (
{
closed = 1;
nodes = (
"-10 500 LINE",
"-10 440 LINE",
"399 440 LINE",
"399 215 LINE",
"391 198 OFFCURVE",
"376 183 OFFCURVE",
"354 170 CURVE",
"209 315 LINE",
"226 325 OFFCURVE",
"246 330 OFFCURVE",
"269 330 CURVE SMOOTH",
"286 330 OFFCURVE",
"302 324 OFFCURVE",
"314 315 CURVE",
"359 355 LINE",
"348 372 OFFCURVE",
"288 395 OFFCURVE",
"249 395 CURVE SMOOTH",
"113 395 OFFCURVE",
"24 330 OFFCURVE",
"24 230 CURVE SMOOTH",
"24 131 OFFCURVE",
"116 50 OFFCURVE",
"229 50 CURVE SMOOTH",
"290 50 OFFCURVE",
"351 77 OFFCURVE",
"399 125 CURVE",
"399 0 LINE",
"539 0 LINE",
"539 440 LINE",
"609 440 LINE",
"609 500 LINE"
);
},
{
closed = 1;
nodes = (
"334 145 LINE",
"311 132 OFFCURVE",
"286 125 OFFCURVE",
"259 125 CURVE SMOOTH",
"211 125 OFFCURVE",
"171 174 OFFCURVE",
"171 235 CURVE SMOOTH",
"171 254 OFFCURVE",
"173 284 OFFCURVE",
"179 290 CURVE"
);
}
);
width = 599;
},
{
layerId = "DF715B94-208D-4FDD-A2D8-DFDAF561BFB9";
name = Bold;
paths = (
{
closed = 1;
nodes = (
"-10 500 LINE",
"-10 420 LINE",
"438 420 LINE",
"438 215 LINE",
"430 198 OFFCURVE",
"415 183 OFFCURVE",
"393 170 CURVE",
"283 315 LINE",
"292 315 OFFCURVE",
"299 315 OFFCURVE",
"308 315 CURVE SMOOTH",
"321 315 OFFCURVE",
"337 308 OFFCURVE",
"353 295 CURVE",
"408 355 LINE",
"396 372 OFFCURVE",
"311 395 OFFCURVE",
"258 395 CURVE SMOOTH",
"115 395 OFFCURVE",
"23 325 OFFCURVE",
"23 220 CURVE SMOOTH",
"23 111 OFFCURVE",
"107 40 OFFCURVE",
"238 40 CURVE SMOOTH",
"322 40 OFFCURVE",
"395 69 OFFCURVE",
"438 120 CURVE",
"438 0 LINE",
"638 0 LINE",
"638 420 LINE",
"703 420 LINE",
"703 500 LINE"
);
},
{
closed = 1;
nodes = (
"353 145 LINE",
"335 138 OFFCURVE",
"318 135 OFFCURVE",
"303 135 CURVE SMOOTH",
"264 135 OFFCURVE",
"233 180 OFFCURVE",
"233 235 CURVE SMOOTH",
"233 266 OFFCURVE",
"235 281 OFFCURVE",
"238 285 CURVE"
);
}
);
width = 693;
}
);
unicode = 092C;
},
{
glyphname = "bha-deva";
lastChange = "2014-09-28 11:15:52 +0000";
layers = (
{
layerId = "5BCE6BDF-3D16-43B2-91D3-33CD61D1CB11";
name = Regular;
paths = (
{
closed = 1;
nodes = (
"93 530 OFFCURVE",
"26 482 OFFCURVE",
"26 425 CURVE SMOOTH",
"26 381 OFFCURVE",
"69 345 OFFCURVE",
"121 345 CURVE",
"121 405 LINE",
"110 405 OFFCURVE",
"101 417 OFFCURVE",
"101 430 CURVE SMOOTH",
"101 446 OFFCURVE",
"117 460 OFFCURVE",
"136 460 CURVE SMOOTH",
"159 460 OFFCURVE",
"176 440 OFFCURVE",
"176 415 CURVE SMOOTH",
"176 265 LINE",
"131 265 LINE SMOOTH",
"74 265 OFFCURVE",
"26 220 OFFCURVE",
"26 165 CURVE SMOOTH",
"26 104 OFFCURVE",
"89 55 OFFCURVE",
"166 55 CURVE SMOOTH",
"253 55 OFFCURVE",
"323 106 OFFCURVE",
"323 170 CURVE SMOOTH",
"323 195 LINE",
"396 195 LINE",
"396 0 LINE",
"536 0 LINE",
"536 440 LINE",
"606 440 LINE",
"606 500 LINE",
"351 500 LINE",
"351 440 LINE",
"396 440 LINE",
"396 265 LINE",
"316 265 LINE",
"316 415 LINE SMOOTH",
"316 479 OFFCURVE",
"253 530 OFFCURVE",
"176 530 CURVE SMOOTH"
);
},
{
closed = 1;
nodes = (
"176 170 LINE SMOOTH",
"176 147 OFFCURVE",
"159 130 OFFCURVE",
"136 130 CURVE SMOOTH",
"117 130 OFFCURVE",
"101 144 OFFCURVE",
"101 160 CURVE SMOOTH",
"101 179 OFFCURVE",
"115 195 OFFCURVE",
"131 195 CURVE SMOOTH",
"176 195 LINE"
);
}
);
width = 596;
},
{
layerId = "DF715B94-208D-4FDD-A2D8-DFDAF561BFB9";
name = Bold;
paths = (
{
closed = 1;
nodes = (
"101 530 OFFCURVE",
"27 481 OFFCURVE",
"27 420 CURVE SMOOTH",
"27 373 OFFCURVE",
"72 335 OFFCURVE",
"127 335 CURVE",
"127 405 LINE",
"116 405 OFFCURVE",
"107 412 OFFCURVE",
"107 420 CURVE SMOOTH",
"107 433 OFFCURVE",
"123 445 OFFCURVE",
"142 445 CURVE SMOOTH",
"153 445 OFFCURVE",
"162 431 OFFCURVE",
"162 415 CURVE SMOOTH",
"162 275 LINE",
"142 275 LINE SMOOTH",
"75 275 OFFCURVE",
"22 224 OFFCURVE",
"22 160 CURVE SMOOTH",
"22 96 OFFCURVE",
"94 45 OFFCURVE",
"182 45 CURVE SMOOTH",
"285 45 OFFCURVE",
"367 101 OFFCURVE",
"367 170 CURVE SMOOTH",
"367 190 LINE",
"442 190 LINE",
"442 0 LINE",
"642 0 LINE",
"642 420 LINE",
"707 420 LINE",
"707 500 LINE",
"417 500 LINE",
"417 420 LINE",
"442 420 LINE",
"442 275 LINE",
"362 275 LINE",
"362 415 LINE SMOOTH",
"362 479 OFFCURVE",
"285 530 OFFCURVE",
"192 530 CURVE SMOOTH"
);
},
{
closed = 1;
nodes = (
"167 170 LINE SMOOTH",
"167 147 OFFCURVE",
"155 130 OFFCURVE",
"142 130 CURVE SMOOTH",
"123 130 OFFCURVE",
"107 144 OFFCURVE",
"107 160 CURVE SMOOTH",
"107 173 OFFCURVE",
"123 185 OFFCURVE",
"142 185 CURVE SMOOTH",
"167 185 LINE"
);
}
);
width = 697;
}
);
unicode = 092D;
},
{
glyphname = "ma-deva";
lastChange = "2014-09-28 11:15:52 +0000";
layers = (
{
layerId = "5BCE6BDF-3D16-43B2-91D3-33CD61D1CB11";
name = Regular;
paths = (
{
closed = 1;
nodes = (
"-10 500 LINE",
"-10 440 LINE",
"180 440 LINE",
"180 285 LINE",
"130 285 LINE SMOOTH",
"69 285 OFFCURVE",
"20 236 OFFCURVE",
"20 175 CURVE SMOOTH",
"20 99 OFFCURVE",
"77 50 OFFCURVE",
"165 50 CURVE SMOOTH",
"250 50 OFFCURVE",
"320 108 OFFCURVE",
"320 180 CURVE SMOOTH",
"320 220 LINE",
"400 220 LINE",
"400 0 LINE",
"540 0 LINE",
"540 440 LINE",
"610 440 LINE",
"610 500 LINE"
);
},
{
closed = 1;
nodes = (
"180 160 LINE SMOOTH",
"180 137 OFFCURVE",
"160 120 OFFCURVE",
"135 120 CURVE SMOOTH",
"110 120 OFFCURVE",
"90 142 OFFCURVE",
"90 170 CURVE SMOOTH",
"90 198 OFFCURVE",
"110 220 OFFCURVE",
"135 220 CURVE SMOOTH",
"180 220 LINE"
);
},
{
closed = 1;
nodes = (
"400 285 LINE",
"320 285 LINE",
"320 440 LINE",
"400 440 LINE"
);
}
);
width = 600;
},
{
layerId = "DF715B94-208D-4FDD-A2D8-DFDAF561BFB9";
name = Bold;
paths = (
{
closed = 1;
nodes = (
"-10 500 LINE",
"-10 420 LINE",
"169 420 LINE",
"169 295 LINE",
"144 295 LINE SMOOTH",
"75 295 OFFCURVE",
"19 239 OFFCURVE",
"19 170 CURVE SMOOTH",
"19 91 OFFCURVE",
"89 40 OFFCURVE",
"194 40 CURVE SMOOTH",
"290 40 OFFCURVE",
"369 98 OFFCURVE",
"369 170 CURVE SMOOTH",
"369 210 LINE",
"444 210 LINE",
"444 0 LINE",
"644 0 LINE",
"644 420 LINE",
"709 420 LINE",
"709 500 LINE"
);
},
{
closed = 1;
nodes = (
"169 170 LINE SMOOTH",
"169 147 OFFCURVE",
"157 130 OFFCURVE",
"144 130 CURVE SMOOTH",
"125 130 OFFCURVE",
"109 147 OFFCURVE",
"109 170 CURVE SMOOTH",
"109 193 OFFCURVE",
"125 210 OFFCURVE",
"144 210 CURVE SMOOTH",
"169 210 LINE"
);
},
{
closed = 1;
nodes = (
"444 295 LINE",
"369 295 LINE",
"369 420 LINE",
"444 420 LINE"
);
}
);
width = 699;
}
);
unicode = 092E;
},
{
glyphname = "ya-deva";
lastChange = "2014-09-28 11:15:52 +0000";
layers = (
{
layerId = "5BCE6BDF-3D16-43B2-91D3-33CD61D1CB11";
name = Regular;
paths = (
{
closed = 1;
nodes = (
"-10 500 LINE",
"-10 440 LINE",
"127 440 LINE",
"148 431 OFFCURVE",
"162 407 OFFCURVE",
"162 380 CURVE SMOOTH",
"162 349 OFFCURVE",
"138 325 OFFCURVE",
"107 325 CURVE SMOOTH",
"22 325 LINE",
"22 245 LINE SMOOTH",
"22 157 OFFCURVE",
"114 85 OFFCURVE",
"227 85 CURVE SMOOTH",
"298 85 OFFCURVE",
"362 112 OFFCURVE",
"402 160 CURVE",
"402 0 LINE",
"542 0 LINE",
"542 440 LINE",
"612 440 LINE",
"612 500 LINE"
);
},
{
closed = 1;
nodes = (
"402 240 LINE",
"374 191 OFFCURVE",
"322 160 OFFCURVE",
"267 160 CURVE SMOOTH",
"210 160 OFFCURVE",
"162 198 OFFCURVE",
"162 245 CURVE",
"243 245 OFFCURVE",
"309 301 OFFCURVE",
"309 370 CURVE SMOOTH",
"309 390 OFFCURVE",
"299 415 OFFCURVE",
"282 440 CURVE",
"402 440 LINE"
);
}
);
width = 602;
},
{
layerId = "DF715B94-208D-4FDD-A2D8-DFDAF561BFB9";
name = Bold;
paths = (
{
closed = 1;
nodes = (
"-10 500 LINE",
"-10 420 LINE",
"126 420 LINE",
"147 411 OFFCURVE",
"161 390 OFFCURVE",
"161 370 CURVE SMOOTH",
"161 339 OFFCURVE",
"144 315 OFFCURVE",
"121 315 CURVE SMOOTH",
"21 315 LINE",
"21 235 LINE SMOOTH",
"21 142 OFFCURVE",
"129 65 OFFCURVE",
"261 65 CURVE SMOOTH",
"338 65 OFFCURVE",
"406 94 OFFCURVE",
"441 145 CURVE",
"441 0 LINE",
"641 0 LINE",
"641 420 LINE",
"706 420 LINE",
"706 500 LINE"
);
},
{
closed = 1;
nodes = (
"441 240 LINE",
"413 191 OFFCURVE",
"363 160 OFFCURVE",
"311 160 CURVE SMOOTH",
"262 160 OFFCURVE",
"221 194 OFFCURVE",
"221 235 CURVE",
"304 235 OFFCURVE",
"371 291 OFFCURVE",
"371 360 CURVE SMOOTH",
"371 371 OFFCURVE",
"361 392 OFFCURVE",
"341 420 CURVE",
"441 420 LINE"
);
}
);
width = 696;
}
);
unicode = 092F;
},
{
glyphname = "ra-deva";
lastChange = "2014-09-28 11:15:52 +0000";
layers = (
{
layerId = "5BCE6BDF-3D16-43B2-91D3-33CD61D1CB11";
name = Regular;
paths = (
{
closed = 1;
nodes = (
"-10 500 LINE",
"-10 440 LINE",
"144 440 LINE SMOOTH",
"193 440 OFFCURVE",
"234 402 OFFCURVE",
"234 355 CURVE SMOOTH",
"234 311 OFFCURVE",
"185 275 OFFCURVE",
"124 275 CURVE SMOOTH",
"99 275 OFFCURVE",
"78 280 OFFCURVE",
"59 290 CURVE",
"9 220 LINE",
"22 219 OFFCURVE",
"38 207 OFFCURVE",
"56 185 CURVE SMOOTH",
"74 162 OFFCURVE",
"92 132 OFFCURVE",
"109 95 CURVE SMOOTH",
"136 38 OFFCURVE",
"196 0 OFFCURVE",
"264 0 CURVE SMOOTH",
"319 0 OFFCURVE",
"367 18 OFFCURVE",
"399 50 CURVE",
"364 90 LINE",
"351 77 OFFCURVE",
"328 70 OFFCURVE",
"299 70 CURVE SMOOTH",
"264 70 OFFCURVE",
"222 121 OFFCURVE",
"194 200 CURVE",
"297 200 OFFCURVE",
"381 267 OFFCURVE",
"381 350 CURVE SMOOTH",
"381 390 OFFCURVE",
"354 425 OFFCURVE",
"314 440 CURVE",
"428 440 LINE",
"428 500 LINE"
);
}
);
width = 418;
},
{
layerId = "DF715B94-208D-4FDD-A2D8-DFDAF561BFB9";
name = Bold;
paths = (
{
closed = 1;
nodes = (
"-10 500 LINE",
"-10 420 LINE",
"136 420 LINE SMOOTH",
"185 420 OFFCURVE",
"226 384 OFFCURVE",
"226 340 CURVE SMOOTH",
"226 301 OFFCURVE",
"178 270 OFFCURVE",
"121 270 CURVE SMOOTH",
"90 270 OFFCURVE",
"65 275 OFFCURVE",
"46 285 CURVE",
"11 195 LINE",
"21 194 OFFCURVE",
"32 185 OFFCURVE",
"45 166 CURVE SMOOTH",
"56 150 OFFCURVE",
"70 125 OFFCURVE",
"86 90 CURVE SMOOTH",
"113 33 OFFCURVE",
"187 -5 OFFCURVE",
"276 -5 CURVE SMOOTH",
"347 -5 OFFCURVE",
"404 13 OFFCURVE",
"436 45 CURVE",
"396 100 LINE",
"383 87 OFFCURVE",
"365 80 OFFCURVE",
"346 80 CURVE SMOOTH",
"309 80 OFFCURVE",
"269 122 OFFCURVE",
"246 185 CURVE",
"351 185 OFFCURVE",
"436 255 OFFCURVE",
"436 340 CURVE SMOOTH",
"436 372 OFFCURVE",
"417 403 OFFCURVE",
"386 420 CURVE",
"471 420 LINE",
"471 500 LINE"
);
}
);
width = 461;
}
);
unicode = 0930;
},
{
glyphname = "rra-deva";
lastChange = "2014-09-28 11:15:52 +0000";
layers = (
{
layerId = "5BCE6BDF-3D16-43B2-91D3-33CD61D1CB11";
name = Regular;
paths = (
{
closed = 1;
nodes = (
"-10 500 LINE",
"-10 440 LINE",
"146 440 LINE SMOOTH",
"195 440 OFFCURVE",
"236 402 OFFCURVE",
"236 355 CURVE SMOOTH",
"236 311 OFFCURVE",
"187 275 OFFCURVE",
"126 275 CURVE SMOOTH",
"101 275 OFFCURVE",
"80 280 OFFCURVE",
"61 290 CURVE",
"11 220 LINE",
"24 219 OFFCURVE",
"40 207 OFFCURVE",
"58 185 CURVE SMOOTH",
"76 162 OFFCURVE",
"94 132 OFFCURVE",
"111 95 CURVE SMOOTH",
"138 38 OFFCURVE",
"198 0 OFFCURVE",
"266 0 CURVE SMOOTH",
"321 0 OFFCURVE",
"369 18 OFFCURVE",
"401 50 CURVE",
"366 90 LINE",
"353 77 OFFCURVE",
"330 70 OFFCURVE",
"301 70 CURVE SMOOTH",
"266 70 OFFCURVE",
"224 121 OFFCURVE",
"196 200 CURVE",
"299 200 OFFCURVE",
"383 267 OFFCURVE",
"383 350 CURVE SMOOTH",
"383 390 OFFCURVE",
"356 425 OFFCURVE",
"316 440 CURVE",
"430 440 LINE",
"430 500 LINE"
);
},
{
closed = 1;
nodes = (
"37 30 OFFCURVE",
"6 6 OFFCURVE",
"6 -25 CURVE SMOOTH",
"6 -56 OFFCURVE",
"37 -80 OFFCURVE",
"76 -80 CURVE SMOOTH",
"119 -80 OFFCURVE",
"153 -56 OFFCURVE",
"153 -25 CURVE SMOOTH",
"153 6 OFFCURVE",
"119 30 OFFCURVE",
"76 30 CURVE SMOOTH"
);
}
);
width = 420;
},
{
layerId = "DF715B94-208D-4FDD-A2D8-DFDAF561BFB9";
name = Bold;
paths = (
{
closed = 1;
nodes = (
"-10 500 LINE",
"-10 420 LINE",
"200 420 LINE SMOOTH",
"249 420 OFFCURVE",
"290 384 OFFCURVE",
"290 340 CURVE SMOOTH",
"290 301 OFFCURVE",
"242 270 OFFCURVE",
"185 270 CURVE SMOOTH",
"154 270 OFFCURVE",
"129 275 OFFCURVE",
"110 285 CURVE",
"75 195 LINE",
"85 194 OFFCURVE",
"96 185 OFFCURVE",
"109 166 CURVE SMOOTH",
"120 150 OFFCURVE",
"134 125 OFFCURVE",
"150 90 CURVE SMOOTH",
"177 33 OFFCURVE",
"251 -5 OFFCURVE",
"340 -5 CURVE SMOOTH",
"411 -5 OFFCURVE",
"468 13 OFFCURVE",
"500 45 CURVE",
"460 100 LINE",
"447 87 OFFCURVE",
"429 80 OFFCURVE",
"410 80 CURVE SMOOTH",
"373 80 OFFCURVE",
"333 122 OFFCURVE",
"310 185 CURVE",
"415 185 OFFCURVE",
"500 255 OFFCURVE",
"500 340 CURVE SMOOTH",
"500 372 OFFCURVE",
"481 403 OFFCURVE",
"450 420 CURVE",
"535 420 LINE",
"535 500 LINE"
);
},
{
closed = 1;
nodes = (
"46 80 OFFCURVE",
"8 49 OFFCURVE",
"8 10 CURVE SMOOTH",
"8 -29 OFFCURVE",
"46 -60 OFFCURVE",
"91 -60 CURVE SMOOTH",
"136 -60 OFFCURVE",
"173 -29 OFFCURVE",
"173 10 CURVE SMOOTH",
"173 49 OFFCURVE",
"136 80 OFFCURVE",
"91 80 CURVE SMOOTH"
);
}
);
width = 525;
}
);
unicode = 0931;
},
{
glyphname = "la-deva";
lastChange = "2014-09-28 11:15:52 +0000";
layers = (
{
layerId = "5BCE6BDF-3D16-43B2-91D3-33CD61D1CB11";
name = Regular;
paths = (
{
closed = 1;
nodes = (
"-10 500 LINE",
"-10 440 LINE",
"442 440 LINE",
"442 365 LINE",
"372 315 LINE",
"340 354 OFFCURVE",
"289 375 OFFCURVE",
"232 375 CURVE SMOOTH",
"108 375 OFFCURVE",
"27 305 OFFCURVE",
"27 200 CURVE SMOOTH",
"27 79 OFFCURVE",
"116 0 OFFCURVE",
"252 0 CURVE",
"252 70 LINE",
"209 70 OFFCURVE",
"174 130 OFFCURVE",
"174 205 CURVE SMOOTH",
"174 260 OFFCURVE",
"207 305 OFFCURVE",
"247 305 CURVE SMOOTH",
"274 305 OFFCURVE",
"296 294 OFFCURVE",
"307 275 CURVE",
"262 240 LINE",
"302 195 LINE",
"442 295 LINE",
"442 0 LINE",
"582 0 LINE",
"582 440 LINE",
"652 440 LINE",
"652 500 LINE"
);
}
);
width = 642;
},
{
layerId = "DF715B94-208D-4FDD-A2D8-DFDAF561BFB9";
name = Bold;
paths = (
{
closed = 1;
nodes = (
"-10 500 LINE",
"-10 420 LINE",
"499 420 LINE",
"499 375 LINE",
"439 330 LINE",
"400 369 OFFCURVE",
"334 390 OFFCURVE",
"254 390 CURVE SMOOTH",
"115 390 OFFCURVE",
"24 312 OFFCURVE",
"24 195 CURVE SMOOTH",
"24 78 OFFCURVE",
"137 0 OFFCURVE",
"309 0 CURVE",
"309 85 LINE",
"268 85 OFFCURVE",
"234 134 OFFCURVE",
"234 195 CURVE SMOOTH",
"234 256 OFFCURVE",
"265 305 OFFCURVE",
"304 305 CURVE SMOOTH",
"331 305 OFFCURVE",
"353 294 OFFCURVE",
"364 275 CURVE",
"319 240 LINE",
"364 180 LINE",
"499 280 LINE",
"499 0 LINE",
"699 0 LINE",
"699 420 LINE",
"764 420 LINE",
"764 500 LINE"
);
}
);
width = 754;
}
);
unicode = 0932;
},
{
glyphname = "lla-deva";
lastChange = "2014-09-28 11:15:52 +0000";
layers = (
{
layerId = "5BCE6BDF-3D16-43B2-91D3-33CD61D1CB11";
name = Regular;
paths = (
{
closed = 1;
nodes = (
"-10 500 LINE",
"-10 440 LINE",
"443 440 LINE",
"443 380 LINE",
"426 375 OFFCURVE",
"401 358 OFFCURVE",
"373 330 CURVE",
"338 365 OFFCURVE",
"288 385 OFFCURVE",
"233 385 CURVE SMOOTH",
"109 385 OFFCURVE",
"28 312 OFFCURVE",
"28 200 CURVE SMOOTH",
"28 84 OFFCURVE",
"114 0 OFFCURVE",
"233 0 CURVE SMOOTH",
"276 0 OFFCURVE",
"321 26 OFFCURVE",
"358 70 CURVE",
"395 26 OFFCURVE",
"448 0 OFFCURVE",
"503 0 CURVE SMOOTH",
"626 0 OFFCURVE",
"715 89 OFFCURVE",
"715 210 CURVE SMOOTH",
"715 291 OFFCURVE",
"663 359 OFFCURVE",
"583 380 CURVE",
"583 440 LINE",
"753 440 LINE",
"753 500 LINE"
);
},
{
closed = 1;
nodes = (
"297 310 OFFCURVE",
"329 292 OFFCURVE",
"338 265 CURVE",
"313 160 LINE SMOOTH",
"301 116 OFFCURVE",
"277 85 OFFCURVE",
"253 85 CURVE SMOOTH",
"210 85 OFFCURVE",
"175 136 OFFCURVE",
"175 200 CURVE SMOOTH",
"175 261 OFFCURVE",
"213 310 OFFCURVE",
"258 310 CURVE SMOOTH"
);
},
{
closed = 1;
nodes = (
"534 310 OFFCURVE",
"568 265 OFFCURVE",
"568 210 CURVE SMOOTH",
"568 141 OFFCURVE",
"525 85 OFFCURVE",
"473 85 CURVE SMOOTH",
"432 85 OFFCURVE",
"398 121 OFFCURVE",
"398 165 CURVE",
"413 245 LINE",
"432 285 OFFCURVE",
"462 310 OFFCURVE",
"493 310 CURVE SMOOTH"
);
}
);
width = 743;
},
{
layerId = "DF715B94-208D-4FDD-A2D8-DFDAF561BFB9";
name = Bold;
paths = (
{
closed = 1;
nodes = (
"-10 500 LINE",
"-10 420 LINE",
"487 420 LINE",
"487 390 LINE",
"460 383 OFFCURVE",
"433 366 OFFCURVE",
"407 340 CURVE",
"372 375 OFFCURVE",
"307 395 OFFCURVE",
"227 395 CURVE SMOOTH",
"106 395 OFFCURVE",
"27 317 OFFCURVE",
"27 200 CURVE SMOOTH",
"27 83 OFFCURVE",
"110 5 OFFCURVE",
"237 5 CURVE SMOOTH",
"304 5 OFFCURVE",
"360 26 OFFCURVE",
"392 65 CURVE",
"427 24 OFFCURVE",
"486 0 OFFCURVE",
"557 0 CURVE SMOOTH",
"700 0 OFFCURVE",
"792 83 OFFCURVE",
"792 210 CURVE SMOOTH",
"792 302 OFFCURVE",
"729 373 OFFCURVE",
"632 390 CURVE",
"632 420 LINE",
"828 420 LINE",
"828 500 LINE"
);
},
{
closed = 1;
nodes = (
"327 315 OFFCURVE",
"356 296 OFFCURVE",
"367 265 CURVE",
"342 160 LINE",
"331 121 OFFCURVE",
"310 95 OFFCURVE",
"287 95 CURVE SMOOTH",
"259 95 OFFCURVE",
"237 143 OFFCURVE",
"237 200 CURVE SMOOTH",
"237 264 OFFCURVE",
"261 315 OFFCURVE",
"292 315 CURVE SMOOTH"
);
},
{
closed = 1;
nodes = (
"558 310 OFFCURVE",
"582 265 OFFCURVE",
"582 210 CURVE SMOOTH",
"582 146 OFFCURVE",
"548 95 OFFCURVE",
"507 95 CURVE SMOOTH",
"468 95 OFFCURVE",
"437 126 OFFCURVE",
"437 165 CURVE",
"452 245 LINE",
"471 285 OFFCURVE",
"500 310 OFFCURVE",
"527 310 CURVE SMOOTH"
);
}
);
width = 818;
}
);
unicode = 0933;
},
{
glyphname = "llla-deva";
lastChange = "2014-09-28 11:15:52 +0000";
layers = (
{
layerId = "5BCE6BDF-3D16-43B2-91D3-33CD61D1CB11";
name = Regular;
paths = (
{
closed = 1;
nodes = (
"-10 500 LINE",
"-10 440 LINE",
"443 440 LINE",
"443 380 LINE",
"426 375 OFFCURVE",
"401 358 OFFCURVE",
"373 330 CURVE",
"338 365 OFFCURVE",
"288 385 OFFCURVE",
"233 385 CURVE SMOOTH",
"109 385 OFFCURVE",
"28 312 OFFCURVE",
"28 200 CURVE SMOOTH",
"28 84 OFFCURVE",
"114 0 OFFCURVE",
"233 0 CURVE SMOOTH",
"276 0 OFFCURVE",
"321 26 OFFCURVE",
"358 70 CURVE",
"395 26 OFFCURVE",
"448 0 OFFCURVE",
"503 0 CURVE SMOOTH",
"626 0 OFFCURVE",
"715 89 OFFCURVE",
"715 210 CURVE SMOOTH",
"715 291 OFFCURVE",
"663 359 OFFCURVE",
"583 380 CURVE",
"583 440 LINE",
"753 440 LINE",
"753 500 LINE"
);
},
{
closed = 1;
nodes = (
"318 -30 OFFCURVE",
"287 -54 OFFCURVE",
"287 -85 CURVE SMOOTH",
"287 -116 OFFCURVE",
"318 -140 OFFCURVE",
"357 -140 CURVE SMOOTH",
"400 -140 OFFCURVE",
"434 -116 OFFCURVE",
"434 -85 CURVE SMOOTH",
"434 -54 OFFCURVE",
"400 -30 OFFCURVE",
"357 -30 CURVE SMOOTH"
);
},
{
closed = 1;
nodes = (
"297 310 OFFCURVE",
"329 292 OFFCURVE",
"338 265 CURVE",
"313 160 LINE SMOOTH",
"301 116 OFFCURVE",
"277 85 OFFCURVE",
"253 85 CURVE SMOOTH",
"210 85 OFFCURVE",
"175 136 OFFCURVE",
"175 200 CURVE SMOOTH",
"175 261 OFFCURVE",
"213 310 OFFCURVE",
"258 310 CURVE SMOOTH"
);
},
{
closed = 1;
nodes = (
"534 310 OFFCURVE",
"568 265 OFFCURVE",
"568 210 CURVE SMOOTH",
"568 141 OFFCURVE",
"525 85 OFFCURVE",
"473 85 CURVE SMOOTH",
"432 85 OFFCURVE",
"398 121 OFFCURVE",
"398 165 CURVE",
"413 245 LINE",
"432 285 OFFCURVE",
"462 310 OFFCURVE",
"493 310 CURVE SMOOTH"
);
}
);
width = 743;
},
{
layerId = "DF715B94-208D-4FDD-A2D8-DFDAF561BFB9";
name = Bold;
paths = (
{
closed = 1;
nodes = (
"-10 500 LINE",
"-10 420 LINE",
"487 420 LINE",
"487 390 LINE",
"460 383 OFFCURVE",
"433 366 OFFCURVE",
"407 340 CURVE",
"372 375 OFFCURVE",
"307 395 OFFCURVE",
"227 395 CURVE SMOOTH",
"106 395 OFFCURVE",
"27 317 OFFCURVE",
"27 200 CURVE SMOOTH",
"27 83 OFFCURVE",
"110 5 OFFCURVE",
"237 5 CURVE SMOOTH",
"304 5 OFFCURVE",
"360 26 OFFCURVE",
"392 65 CURVE",
"427 24 OFFCURVE",
"486 0 OFFCURVE",
"557 0 CURVE SMOOTH",
"700 0 OFFCURVE",
"792 83 OFFCURVE",
"792 210 CURVE SMOOTH",
"792 302 OFFCURVE",
"729 373 OFFCURVE",
"632 390 CURVE",
"632 420 LINE",
"828 420 LINE",
"828 500 LINE"
);
},
{
closed = 1;
nodes = (
"344 0 OFFCURVE",
"306 -31 OFFCURVE",
"306 -70 CURVE SMOOTH",
"306 -109 OFFCURVE",
"344 -140 OFFCURVE",
"391 -140 CURVE SMOOTH",
"435 -140 OFFCURVE",
"471 -109 OFFCURVE",
"471 -70 CURVE SMOOTH",
"471 -31 OFFCURVE",
"435 0 OFFCURVE",
"391 0 CURVE SMOOTH"
);
},
{
closed = 1;
nodes = (
"327 315 OFFCURVE",
"356 296 OFFCURVE",
"367 265 CURVE",
"342 160 LINE",
"331 121 OFFCURVE",
"310 95 OFFCURVE",
"287 95 CURVE SMOOTH",
"259 95 OFFCURVE",
"237 143 OFFCURVE",
"237 200 CURVE SMOOTH",
"237 264 OFFCURVE",
"261 315 OFFCURVE",
"292 315 CURVE SMOOTH"
);
},
{
closed = 1;
nodes = (
"558 310 OFFCURVE",
"582 265 OFFCURVE",
"582 210 CURVE SMOOTH",
"582 146 OFFCURVE",
"548 95 OFFCURVE",
"507 95 CURVE SMOOTH",
"468 95 OFFCURVE",
"437 126 OFFCURVE",
"437 165 CURVE",
"452 245 LINE",
"471 285 OFFCURVE",
"500 310 OFFCURVE",
"527 310 CURVE SMOOTH"
);
}
);
width = 818;
}
);
unicode = 0934;
},
{
glyphname = "va-deva";
lastChange = "2014-09-28 11:15:52 +0000";
layers = (
{
layerId = "5BCE6BDF-3D16-43B2-91D3-33CD61D1CB11";
name = Regular;
paths = (
{
closed = 1;
nodes = (
"-10 500 LINE",
"-10 440 LINE",
"362 440 LINE",
"362 180 LINE",
"333 145 OFFCURVE",
"294 125 OFFCURVE",
"257 125 CURVE SMOOTH",
"209 125 OFFCURVE",
"169 166 OFFCURVE",
"169 215 CURVE SMOOTH",
"169 264 OFFCURVE",
"207 305 OFFCURVE",
"252 305 CURVE SMOOTH",
"273 305 OFFCURVE",
"290 299 OFFCURVE",
"302 290 CURVE",
"327 345 LINE",
"316 357 OFFCURVE",
"261 370 OFFCURVE",
"217 370 CURVE SMOOTH",
"109 370 OFFCURVE",
"22 300 OFFCURVE",
"22 215 CURVE SMOOTH",
"22 124 OFFCURVE",
"107 50 OFFCURVE",
"212 50 CURVE SMOOTH",
"273 50 OFFCURVE",
"327 70 OFFCURVE",
"362 105 CURVE",
"362 0 LINE",
"502 0 LINE",
"502 440 LINE",
"572 440 LINE",
"572 500 LINE"
);
}
);
width = 562;
},
{
layerId = "DF715B94-208D-4FDD-A2D8-DFDAF561BFB9";
name = Bold;
paths = (
{
closed = 1;
nodes = (
"-10 500 LINE",
"-10 420 LINE",
"402 420 LINE",
"402 180 LINE",
"373 145 OFFCURVE",
"332 125 OFFCURVE",
"292 125 CURVE SMOOTH",
"259 125 OFFCURVE",
"232 161 OFFCURVE",
"232 205 CURVE SMOOTH",
"232 249 OFFCURVE",
"261 285 OFFCURVE",
"297 285 CURVE SMOOTH",
"313 285 OFFCURVE",
"328 280 OFFCURVE",
"342 270 CURVE",
"377 345 LINE",
"362 357 OFFCURVE",
"289 370 OFFCURVE",
"232 370 CURVE SMOOTH",
"105 370 OFFCURVE",
"22 305 OFFCURVE",
"22 205 CURVE SMOOTH",
"22 105 OFFCURVE",
"105 40 OFFCURVE",
"232 40 CURVE SMOOTH",
"303 40 OFFCURVE",
"365 66 OFFCURVE",
"402 110 CURVE",
"402 0 LINE",
"602 0 LINE",
"602 420 LINE",
"667 420 LINE",
"667 500 LINE"
);
}
);
width = 657;
}
);
unicode = 0935;
},
{
glyphname = "sha-deva";
lastChange = "2014-09-28 11:18:40 +0000";
layers = (
{
layerId = "5BCE6BDF-3D16-43B2-91D3-33CD61D1CB11";
name = Regular;
paths = (
{
closed = 1;
nodes = (
"92 535 OFFCURVE",
"21 484 OFFCURVE",
"21 405 CURVE SMOOTH",
"21 333 OFFCURVE",
"92 285 OFFCURVE",
"201 285 CURVE SMOOTH",
"234 285 OFFCURVE",
"268 297 OFFCURVE",
"301 320 CURVE",
"296 264 OFFCURVE",
"236 220 OFFCURVE",
"161 220 CURVE SMOOTH",
"148 220 OFFCURVE",
"131 225 OFFCURVE",
"108 235 CURVE SMOOTH",
"86 245 OFFCURVE",
"69 250 OFFCURVE",
"56 250 CURVE",
"26 185 LINE",
"62 178 OFFCURVE",
"115 120 OFFCURVE",
"161 65 CURVE SMOOTH",
"196 24 OFFCURVE",
"249 0 OFFCURVE",
"306 0 CURVE SMOOTH",
"366 0 OFFCURVE",
"414 12 OFFCURVE",
"441 35 CURVE",
"391 80 LINE",
"382 71 OFFCURVE",
"365 65 OFFCURVE",
"346 65 CURVE SMOOTH",
"305 65 OFFCURVE",
"261 100 OFFCURVE",
"236 155 CURVE",
"349 155 OFFCURVE",
"441 240 OFFCURVE",
"441 345 CURVE SMOOTH",
"441 460 OFFCURVE",
"346 535 OFFCURVE",
"201 535 CURVE SMOOTH"
);
},
{
closed = 1;
nodes = (
"236 460 OFFCURVE",
"271 434 OFFCURVE",
"286 395 CURVE",
"261 370 OFFCURVE",
"226 355 OFFCURVE",
"191 355 CURVE SMOOTH",
"147 355 OFFCURVE",
"111 379 OFFCURVE",
"111 410 CURVE SMOOTH",
"111 438 OFFCURVE",
"149 460 OFFCURVE",
"196 460 CURVE SMOOTH"
);
},
{
closed = 1;
nodes = (
"476 500 LINE",
"476 440 LINE",
"521 440 LINE",
"521 0 LINE",
"661 0 LINE",
"661 440 LINE",
"731 440 LINE",
"731 500 LINE"
);
}
);
width = 721;
},
{
layerId = "DF715B94-208D-4FDD-A2D8-DFDAF561BFB9";
name = Bold;
paths = (
{
closed = 1;
nodes = (
"105 535 OFFCURVE",
"18 484 OFFCURVE",
"18 405 CURVE SMOOTH",
"18 329 OFFCURVE",
"99 280 OFFCURVE",
"223 280 CURVE SMOOTH",
"258 280 OFFCURVE",
"289 288 OFFCURVE",
"318 305 CURVE",
"314 260 OFFCURVE",
"262 225 OFFCURVE",
"198 225 CURVE SMOOTH",
"181 225 OFFCURVE",
"157 230 OFFCURVE",
"126 240 CURVE SMOOTH",
"94 250 OFFCURVE",
"70 255 OFFCURVE",
"53 255 CURVE",
"23 175 LINE",
"52 170 OFFCURVE",
"99 129 OFFCURVE",
"158 60 CURVE SMOOTH",
"190 21 OFFCURVE",
"254 0 OFFCURVE",
"333 0 CURVE SMOOTH",
"400 0 OFFCURVE",
"451 12 OFFCURVE",
"478 35 CURVE",
"428 100 LINE",
"419 91 OFFCURVE",
"402 85 OFFCURVE",
"383 85 CURVE SMOOTH",
"351 85 OFFCURVE",
"318 112 OFFCURVE",
"298 155 CURVE",
"419 155 OFFCURVE",
"518 240 OFFCURVE",
"518 345 CURVE SMOOTH",
"518 460 OFFCURVE",
"407 535 OFFCURVE",
"238 535 CURVE SMOOTH"
);
},
{
closed = 1;
nodes = (
"269 440 OFFCURVE",
"294 424 OFFCURVE",
"303 400 CURVE",
"284 384 OFFCURVE",
"257 375 OFFCURVE",
"228 375 CURVE SMOOTH",
"195 375 OFFCURVE",
"168 391 OFFCURVE",
"168 410 CURVE SMOOTH",
"168 426 OFFCURVE",
"199 440 OFFCURVE",
"238 440 CURVE SMOOTH"
);
},
{
closed = 1;
nodes = (
"573 500 LINE",
"573 420 LINE",
"598 420 LINE",
"598 0 LINE",
"798 0 LINE",
"798 420 LINE",
"863 420 LINE",
"863 500 LINE"
);
}
);
width = 853;
}
);
unicode = 0936;
},
{
glyphname = "ssa-deva";
lastChange = "2014-09-28 11:15:52 +0000";
layers = (
{
layerId = "5BCE6BDF-3D16-43B2-91D3-33CD61D1CB11";
name = Regular;
paths = (
{
closed = 1;
nodes = (
"-10 500 LINE",
"-10 440 LINE",
"37 440 LINE",
"37 240 LINE SMOOTH",
"37 160 OFFCURVE",
"122 95 OFFCURVE",
"227 95 CURVE SMOOTH",
"292 95 OFFCURVE",
"347 111 OFFCURVE",
"382 140 CURVE",
"382 0 LINE",
"522 0 LINE",
"522 440 LINE",
"592 440 LINE",
"592 500 LINE"
);
},
{
closed = 1;
nodes = (
"352 185 LINE",
"328 168 OFFCURVE",
"301 160 OFFCURVE",
"272 160 CURVE SMOOTH",
"224 160 OFFCURVE",
"184 189 OFFCURVE",
"184 225 CURVE SMOOTH",
"184 360 LINE"
);
},
{
closed = 1;
nodes = (
"382 220 LINE",
"177 425 LINE",
"177 440 LINE",
"382 440 LINE"
);
}
);
width = 582;
},
{
layerId = "DF715B94-208D-4FDD-A2D8-DFDAF561BFB9";
name = Bold;
paths = (
{
closed = 1;
nodes = (
"-10 500 LINE",
"-10 420 LINE",
"33 420 LINE",
"33 230 LINE SMOOTH",
"33 150 OFFCURVE",
"134 85 OFFCURVE",
"258 85 CURVE SMOOTH",
"327 85 OFFCURVE",
"383 101 OFFCURVE",
"418 130 CURVE",
"418 0 LINE",
"618 0 LINE",
"618 420 LINE",
"683 420 LINE",
"683 500 LINE"
);
},
{
closed = 1;
nodes = (
"363 190 LINE",
"344 177 OFFCURVE",
"325 170 OFFCURVE",
"308 170 CURVE SMOOTH",
"267 170 OFFCURVE",
"233 197 OFFCURVE",
"233 230 CURVE SMOOTH",
"233 335 LINE"
);
},
{
closed = 1;
nodes = (
"418 225 LINE",
"233 415 LINE",
"233 420 LINE",
"418 420 LINE"
);
}
);
width = 673;
}
);
unicode = 0937;
},
{
glyphname = "sa-deva";
lastChange = "2014-09-28 11:15:52 +0000";
layers = (
{
layerId = "5BCE6BDF-3D16-43B2-91D3-33CD61D1CB11";
name = Regular;
paths = (
{
closed = 1;
nodes = (
"-10 500 LINE",
"-10 440 LINE",
"154 440 LINE",
"202 436 OFFCURVE",
"239 399 OFFCURVE",
"239 355 CURVE SMOOTH",
"239 311 OFFCURVE",
"186 275 OFFCURVE",
"119 275 CURVE SMOOTH",
"90 275 OFFCURVE",
"69 278 OFFCURVE",
"54 285 CURVE",
"9 220 LINE",
"40 209 OFFCURVE",
"73 165 OFFCURVE",
"104 100 CURVE SMOOTH",
"133 36 OFFCURVE",
"194 -5 OFFCURVE",
"259 -5 CURVE SMOOTH",
"303 -5 OFFCURVE",
"378 22 OFFCURVE",
"394 45 CURVE",
"359 85 LINE",
"343 69 OFFCURVE",
"322 60 OFFCURVE",
"299 60 CURVE SMOOTH",
"278 60 OFFCURVE",
"247 91 OFFCURVE",
"219 140 CURVE SMOOTH",
"184 205 LINE",
"209 205 LINE SMOOTH",
"269 205 OFFCURVE",
"320 225 OFFCURVE",
"349 260 CURVE",
"368 247 OFFCURVE",
"390 240 OFFCURVE",
"414 240 CURVE SMOOTH",
"439 240 OFFCURVE",
"461 246 OFFCURVE",
"474 255 CURVE",
"474 0 LINE",
"614 0 LINE",
"614 440 LINE",
"684 440 LINE",
"684 500 LINE"
);
},
{
closed = 1;
nodes = (
"474 320 LINE",
"462 311 OFFCURVE",
"445 305 OFFCURVE",
"424 305 CURVE SMOOTH",
"411 305 OFFCURVE",
"396 310 OFFCURVE",
"379 320 CURVE",
"386 345 LINE",
"386 384 OFFCURVE",
"368 420 OFFCURVE",
"339 440 CURVE",
"474 440 LINE"
);
}
);
width = 674;
},
{
layerId = "DF715B94-208D-4FDD-A2D8-DFDAF561BFB9";
name = Bold;
paths = (
{
closed = 1;
nodes = (
"-10 500 LINE",
"-10 420 LINE",
"129 420 LINE",
"180 416 OFFCURVE",
"219 382 OFFCURVE",
"219 345 CURVE SMOOTH",
"219 306 OFFCURVE",
"174 275 OFFCURVE",
"119 275 CURVE SMOOTH",
"85 275 OFFCURVE",
"60 278 OFFCURVE",
"44 285 CURVE",
"9 205 LINE",
"48 190 OFFCURVE",
"82 154 OFFCURVE",
"99 105 CURVE SMOOTH",
"122 42 OFFCURVE",
"190 0 OFFCURVE",
"269 0 CURVE SMOOTH",
"312 0 OFFCURVE",
"387 31 OFFCURVE",
"404 55 CURVE",
"369 105 LINE",
"356 92 OFFCURVE",
"340 85 OFFCURVE",
"324 85 CURVE SMOOTH",
"300 85 OFFCURVE",
"274 105 OFFCURVE",
"254 140 CURVE SMOOTH",
"229 185 LINE",
"249 185 LINE SMOOTH",
"305 185 OFFCURVE",
"355 205 OFFCURVE",
"384 240 CURVE",
"398 230 OFFCURVE",
"415 225 OFFCURVE",
"434 225 CURVE SMOOTH",
"457 225 OFFCURVE",
"475 228 OFFCURVE",
"489 235 CURVE",
"489 0 LINE",
"689 0 LINE",
"689 420 LINE",
"754 420 LINE",
"754 500 LINE"
);
},
{
closed = 1;
nodes = (
"489 320 LINE",
"481 313 OFFCURVE",
"468 310 OFFCURVE",
"449 310 CURVE SMOOTH",
"438 310 OFFCURVE",
"430 312 OFFCURVE",
"424 315 CURVE",
"429 335 LINE",
"429 364 OFFCURVE",
"409 396 OFFCURVE",
"374 420 CURVE",
"489 420 LINE"
);
}
);
width = 744;
}
);
unicode = 0938;
},
{
glyphname = "ha-deva";
lastChange = "2014-09-28 11:15:52 +0000";
layers = (
{
layerId = "5BCE6BDF-3D16-43B2-91D3-33CD61D1CB11";
name = Regular;
paths = (
{
closed = 1;
nodes = (
"-10 500 LINE",
"-10 440 LINE",
"318 440 LINE",
"318 395 LINE",
"163 395 LINE SMOOTH",
"99 395 OFFCURVE",
"48 354 OFFCURVE",
"48 305 CURVE SMOOTH",
"48 272 OFFCURVE",
"68 240 OFFCURVE",
"103 220 CURVE",
"59 189 OFFCURVE",
"33 146 OFFCURVE",
"33 105 CURVE SMOOTH",
"33 -12 OFFCURVE",
"160 -90 OFFCURVE",
"353 -90 CURVE SMOOTH",
"458 -90 LINE",
"458 -25 LINE",
"353 -25 LINE SMOOTH",
"249 -25 OFFCURVE",
"180 29 OFFCURVE",
"180 110 CURVE SMOOTH",
"180 170 OFFCURVE",
"212 210 OFFCURVE",
"263 210 CURVE SMOOTH",
"304 210 OFFCURVE",
"338 186 OFFCURVE",
"338 155 CURVE SMOOTH",
"338 127 OFFCURVE",
"321 105 OFFCURVE",
"298 105 CURVE",
"298 40 LINE",
"411 40 OFFCURVE",
"485 81 OFFCURVE",
"485 145 CURVE SMOOTH",
"485 217 OFFCURVE",
"411 265 OFFCURVE",
"298 265 CURVE SMOOTH",
"223 265 LINE",
"207 268 OFFCURVE",
"195 280 OFFCURVE",
"195 295 CURVE SMOOTH",
"195 314 OFFCURVE",
"205 330 OFFCURVE",
"218 330 CURVE SMOOTH",
"458 330 LINE",
"458 440 LINE",
"520 440 LINE",
"520 500 LINE"
);
}
);
width = 510;
},
{
layerId = "DF715B94-208D-4FDD-A2D8-DFDAF561BFB9";
name = Bold;
paths = (
{
closed = 1;
nodes = (
"-10 500 LINE",
"-10 420 LINE",
"354 420 LINE",
"354 385 LINE",
"164 385 LINE SMOOTH",
"97 385 OFFCURVE",
"44 340 OFFCURVE",
"44 285 CURVE SMOOTH",
"44 252 OFFCURVE",
"64 220 OFFCURVE",
"99 200 CURVE",
"55 169 OFFCURVE",
"29 126 OFFCURVE",
"29 85 CURVE SMOOTH",
"29 -32 OFFCURVE",
"185 -110 OFFCURVE",
"424 -110 CURVE SMOOTH",
"534 -110 LINE",
"534 -25 LINE",
"424 -25 LINE SMOOTH",
"321 -25 OFFCURVE",
"254 18 OFFCURVE",
"254 85 CURVE SMOOTH",
"254 137 OFFCURVE",
"287 170 OFFCURVE",
"339 170 CURVE SMOOTH",
"370 170 OFFCURVE",
"394 154 OFFCURVE",
"394 135 CURVE SMOOTH",
"394 116 OFFCURVE",
"380 100 OFFCURVE",
"364 100 CURVE",
"364 10 LINE",
"509 10 OFFCURVE",
"604 56 OFFCURVE",
"604 125 CURVE SMOOTH",
"604 197 OFFCURVE",
"512 245 OFFCURVE",
"369 245 CURVE SMOOTH",
"279 245 LINE",
"264 248 OFFCURVE",
"254 260 OFFCURVE",
"254 275 CURVE SMOOTH",
"254 288 OFFCURVE",
"263 300 OFFCURVE",
"274 300 CURVE SMOOTH",
"554 300 LINE",
"554 420 LINE",
"630 420 LINE",
"630 500 LINE"
);
}
);
width = 620;
}
);
unicode = 0939;
},
{
glyphname = "qa-deva";
lastChange = "2014-09-28 11:15:52 +0000";
layers = (
{
layerId = "5BCE6BDF-3D16-43B2-91D3-33CD61D1CB11";
name = Regular;
paths = (
{
closed = 1;
nodes = (
"-10 500 LINE",
"-10 440 LINE",
"313 440 LINE",
"313 170 LINE",
"297 154 OFFCURVE",
"272 145 OFFCURVE",
"243 145 CURVE SMOOTH",
"203 145 OFFCURVE",
"170 179 OFFCURVE",
"170 220 CURVE SMOOTH",
"170 268 OFFCURVE",
"213 300 OFFCURVE",
"278 300 CURVE",
"278 365 LINE",
"123 365 OFFCURVE",
"23 298 OFFCURVE",
"23 195 CURVE SMOOTH",
"23 115 OFFCURVE",
"90 50 OFFCURVE",
"173 50 CURVE SMOOTH",
"225 50 OFFCURVE",
"274 68 OFFCURVE",
"313 100 CURVE",
"313 0 LINE",
"453 0 LINE",
"453 250 LINE",
"472 266 OFFCURVE",
"498 275 OFFCURVE",
"523 275 CURVE SMOOTH",
"570 275 OFFCURVE",
"608 237 OFFCURVE",
"608 190 CURVE SMOOTH",
"608 138 OFFCURVE",
"559 95 OFFCURVE",
"498 95 CURVE",
"498 25 LINE",
"654 25 OFFCURVE",
"755 98 OFFCURVE",
"755 210 CURVE SMOOTH",
"755 287 OFFCURVE",
"671 350 OFFCURVE",
"568 350 CURVE SMOOTH",
"520 350 OFFCURVE",
"480 338 OFFCURVE",
"453 315 CURVE",
"453 440 LINE",
"787 440 LINE",
"787 500 LINE"
);
},
{
closed = 1;
nodes = (
"112 15 OFFCURVE",
"78 -2 OFFCURVE",
"78 -25 CURVE SMOOTH",
"78 -48 OFFCURVE",
"112 -65 OFFCURVE",
"153 -65 CURVE SMOOTH",
"193 -65 OFFCURVE",
"225 -48 OFFCURVE",
"225 -25 CURVE SMOOTH",
"225 -2 OFFCURVE",
"193 15 OFFCURVE",
"153 15 CURVE SMOOTH"
);
}
);
width = 777;
},
{
layerId = "DF715B94-208D-4FDD-A2D8-DFDAF561BFB9";
name = Bold;
paths = (
{
closed = 1;
nodes = (
"-10 500 LINE",
"-10 420 LINE",
"370 420 LINE",
"370 200 LINE",
"341 171 OFFCURVE",
"313 155 OFFCURVE",
"290 155 CURVE SMOOTH",
"257 155 OFFCURVE",
"230 184 OFFCURVE",
"230 220 CURVE SMOOTH",
"230 263 OFFCURVE",
"260 290 OFFCURVE",
"305 290 CURVE",
"305 365 LINE",
"133 365 OFFCURVE",
"20 298 OFFCURVE",
"20 195 CURVE SMOOTH",
"20 112 OFFCURVE",
"100 45 OFFCURVE",
"200 45 CURVE SMOOTH",
"267 45 OFFCURVE",
"329 69 OFFCURVE",
"370 110 CURVE",
"370 0 LINE",
"570 0 LINE",
"570 220 LINE",
"593 240 OFFCURVE",
"616 250 OFFCURVE",
"635 250 CURVE SMOOTH",
"679 250 OFFCURVE",
"715 221 OFFCURVE",
"715 185 CURVE SMOOTH",
"715 146 OFFCURVE",
"679 115 OFFCURVE",
"635 115 CURVE",
"635 45 LINE",
"795 45 OFFCURVE",
"925 119 OFFCURVE",
"925 210 CURVE SMOOTH",
"925 290 OFFCURVE",
"831 355 OFFCURVE",
"715 355 CURVE SMOOTH",
"652 355 OFFCURVE",
"601 340 OFFCURVE",
"570 315 CURVE",
"570 420 LINE",
"935 420 LINE",
"935 500 LINE"
);
},
{
closed = 1;
nodes = (
"133 15 OFFCURVE",
"95 -7 OFFCURVE",
"95 -35 CURVE SMOOTH",
"95 -63 OFFCURVE",
"133 -85 OFFCURVE",
"180 -85 CURVE SMOOTH",
"224 -85 OFFCURVE",
"260 -63 OFFCURVE",
"260 -35 CURVE SMOOTH",
"260 -7 OFFCURVE",
"224 15 OFFCURVE",
"180 15 CURVE SMOOTH"
);
}
);
width = 925;
}
);
unicode = 0958;
},
{
glyphname = "khha-deva";
lastChange = "2014-09-28 11:15:52 +0000";
layers = (
{
layerId = "5BCE6BDF-3D16-43B2-91D3-33CD61D1CB11";
name = Regular;
paths = (
{
closed = 1;
nodes = (
"-10 500 LINE",
"-10 440 LINE",
"107 440 LINE",
"142 433 OFFCURVE",
"167 395 OFFCURVE",
"167 350 CURVE SMOOTH",
"167 301 OFFCURVE",
"129 260 OFFCURVE",
"82 260 CURVE SMOOTH",
"12 260 LINE",
"12 200 LINE",
"32 200 OFFCURVE",
"47 194 OFFCURVE",
"52 185 CURVE SMOOTH",
"115 77 OFFCURVE",
"207 10 OFFCURVE",
"292 10 CURVE SMOOTH",
"363 10 OFFCURVE",
"427 35 OFFCURVE",
"472 80 CURVE",
"497 73 OFFCURVE",
"520 70 OFFCURVE",
"542 70 CURVE SMOOTH",
"590 70 OFFCURVE",
"639 89 OFFCURVE",
"682 125 CURVE",
"682 0 LINE",
"822 0 LINE",
"822 440 LINE",
"892 440 LINE",
"892 500 LINE"
);
},
{
closed = 1;
nodes = (
"71 35 OFFCURVE",
"37 18 OFFCURVE",
"37 -5 CURVE SMOOTH",
"37 -28 OFFCURVE",
"71 -45 OFFCURVE",
"112 -45 CURVE SMOOTH",
"152 -45 OFFCURVE",
"184 -28 OFFCURVE",
"184 -5 CURVE SMOOTH",
"184 18 OFFCURVE",
"152 35 OFFCURVE",
"112 35 CURVE SMOOTH"
);
},
{
closed = 1;
nodes = (
"682 240 LINE",
"663 188 OFFCURVE",
"622 155 OFFCURVE",
"577 155 CURVE SMOOTH",
"529 155 OFFCURVE",
"489 193 OFFCURVE",
"489 240 CURVE SMOOTH",
"489 287 OFFCURVE",
"524 325 OFFCURVE",
"567 325 CURVE SMOOTH",
"586 325 OFFCURVE",
"605 320 OFFCURVE",
"622 310 CURVE",
"652 365 LINE",
"629 381 OFFCURVE",
"586 390 OFFCURVE",
"527 390 CURVE SMOOTH",
"424 390 OFFCURVE",
"342 318 OFFCURVE",
"342 230 CURVE SMOOTH",
"342 189 OFFCURVE",
"363 147 OFFCURVE",
"402 115 CURVE",
"389 99 OFFCURVE",
"363 90 OFFCURVE",
"332 90 CURVE SMOOTH",
"263 90 OFFCURVE",
"196 132 OFFCURVE",
"157 200 CURVE",
"246 208 OFFCURVE",
"314 270 OFFCURVE",
"314 345 CURVE SMOOTH",
"314 377 OFFCURVE",
"295 412 OFFCURVE",
"262 440 CURVE",
"682 440 LINE"
);
}
);
width = 882;
},
{
layerId = "DF715B94-208D-4FDD-A2D8-DFDAF561BFB9";
name = Bold;
paths = (
{
closed = 1;
nodes = (
"-10 500 LINE",
"-10 420 LINE",
"116 420 LINE",
"151 413 OFFCURVE",
"176 385 OFFCURVE",
"176 350 CURVE SMOOTH",
"176 309 OFFCURVE",
"138 275 OFFCURVE",
"91 275 CURVE SMOOTH",
"41 275 LINE",
"11 190 LINE",
"31 190 OFFCURVE",
"46 184 OFFCURVE",
"51 175 CURVE SMOOTH",
"114 67 OFFCURVE",
"229 0 OFFCURVE",
"356 0 CURVE SMOOTH",
"439 0 OFFCURVE",
"513 27 OFFCURVE",
"561 75 CURVE",
"574 72 OFFCURVE",
"600 70 OFFCURVE",
"641 70 CURVE SMOOTH",
"696 70 OFFCURVE",
"748 89 OFFCURVE",
"791 125 CURVE",
"791 0 LINE",
"991 0 LINE",
"991 420 LINE",
"1056 420 LINE",
"1056 500 LINE"
);
},
{
closed = 1;
nodes = (
"74 40 OFFCURVE",
"36 18 OFFCURVE",
"36 -10 CURVE SMOOTH",
"36 -38 OFFCURVE",
"74 -60 OFFCURVE",
"121 -60 CURVE SMOOTH",
"165 -60 OFFCURVE",
"201 -38 OFFCURVE",
"201 -10 CURVE SMOOTH",
"201 18 OFFCURVE",
"165 40 OFFCURVE",
"121 40 CURVE SMOOTH"
);
},
{
closed = 1;
nodes = (
"791 250 LINE",
"772 198 OFFCURVE",
"735 165 OFFCURVE",
"696 165 CURVE SMOOTH",
"655 165 OFFCURVE",
"621 194 OFFCURVE",
"621 230 CURVE SMOOTH",
"621 269 OFFCURVE",
"648 300 OFFCURVE",
"681 300 CURVE SMOOTH",
"703 300 OFFCURVE",
"720 297 OFFCURVE",
"731 290 CURVE",
"766 365 LINE",
"743 381 OFFCURVE",
"695 390 OFFCURVE",
"631 390 CURVE SMOOTH",
"510 390 OFFCURVE",
"411 318 OFFCURVE",
"411 230 CURVE SMOOTH",
"411 177 OFFCURVE",
"434 131 OFFCURVE",
"471 110 CURVE",
"460 97 OFFCURVE",
"437 90 OFFCURVE",
"406 90 CURVE SMOOTH",
"341 90 OFFCURVE",
"275 132 OFFCURVE",
"236 200 CURVE",
"321 208 OFFCURVE",
"386 273 OFFCURVE",
"386 350 CURVE SMOOTH",
"386 371 OFFCURVE",
"368 399 OFFCURVE",
"336 420 CURVE",
"791 420 LINE"
);
}
);
width = 1046;
}
);
unicode = 0959;
},
{
glyphname = "ghha-deva";
lastChange = "2014-09-28 11:15:52 +0000";
layers = (
{
layerId = "5BCE6BDF-3D16-43B2-91D3-33CD61D1CB11";
name = Regular;
paths = (
{
closed = 1;
nodes = (
"-10 500 LINE",
"-10 440 LINE",
"174 440 LINE SMOOTH",
"234 440 OFFCURVE",
"294 356 OFFCURVE",
"294 275 CURVE SMOOTH",
"294 206 OFFCURVE",
"253 160 OFFCURVE",
"189 160 CURVE SMOOTH",
"153 160 OFFCURVE",
"124 184 OFFCURVE",
"124 215 CURVE SMOOTH",
"124 246 OFFCURVE",
"142 265 OFFCURVE",
"169 265 CURVE",
"169 335 LINE",
"86 335 OFFCURVE",
"19 284 OFFCURVE",
"19 220 CURVE SMOOTH",
"19 143 OFFCURVE",
"101 80 OFFCURVE",
"204 80 CURVE SMOOTH",
"335 80 OFFCURVE",
"441 169 OFFCURVE",
"441 280 CURVE SMOOTH",
"441 337 OFFCURVE",
"411 396 OFFCURVE",
"359 440 CURVE",
"514 440 LINE",
"514 0 LINE",
"654 0 LINE",
"654 440 LINE",
"724 440 LINE",
"724 500 LINE"
);
},
{
closed = 1;
nodes = (
"160 40 OFFCURVE",
"124 23 OFFCURVE",
"124 0 CURVE SMOOTH",
"124 -23 OFFCURVE",
"160 -40 OFFCURVE",
"204 -40 CURVE SMOOTH",
"241 -40 OFFCURVE",
"271 -23 OFFCURVE",
"271 0 CURVE SMOOTH",
"271 23 OFFCURVE",
"241 40 OFFCURVE",
"204 40 CURVE SMOOTH"
);
}
);
width = 714;
},
{
layerId = "DF715B94-208D-4FDD-A2D8-DFDAF561BFB9";
name = Bold;
paths = (
{
closed = 1;
nodes = (
"-10 500 LINE",
"-10 420 LINE",
"172 420 LINE SMOOTH",
"232 420 OFFCURVE",
"292 342 OFFCURVE",
"292 265 CURVE SMOOTH",
"292 205 OFFCURVE",
"259 165 OFFCURVE",
"207 165 CURVE SMOOTH",
"182 165 OFFCURVE",
"162 185 OFFCURVE",
"162 210 CURVE SMOOTH",
"162 237 OFFCURVE",
"180 255 OFFCURVE",
"207 255 CURVE",
"207 345 LINE",
"102 345 OFFCURVE",
"17 285 OFFCURVE",
"17 210 CURVE SMOOTH",
"17 133 OFFCURVE",
"111 70 OFFCURVE",
"227 70 CURVE SMOOTH",
"379 70 OFFCURVE",
"502 157 OFFCURVE",
"502 265 CURVE SMOOTH",
"502 334 OFFCURVE",
"474 393 OFFCURVE",
"427 420 CURVE",
"537 420 LINE",
"537 0 LINE",
"737 0 LINE",
"737 420 LINE",
"802 420 LINE",
"802 500 LINE"
);
},
{
closed = 1;
nodes = (
"180 35 OFFCURVE",
"142 13 OFFCURVE",
"142 -15 CURVE SMOOTH",
"142 -43 OFFCURVE",
"180 -65 OFFCURVE",
"227 -65 CURVE SMOOTH",
"271 -65 OFFCURVE",
"307 -43 OFFCURVE",
"307 -15 CURVE SMOOTH",
"307 13 OFFCURVE",
"271 35 OFFCURVE",
"227 35 CURVE SMOOTH"
);
}
);
width = 792;
}
);
unicode = 095A;
},
{
glyphname = "za-deva";
lastChange = "2014-09-28 11:15:52 +0000";
layers = (
{
layerId = "5BCE6BDF-3D16-43B2-91D3-33CD61D1CB11";
name = Regular;
paths = (
{
closed = 1;
nodes = (
"-10 500 LINE",
"-10 440 LINE",
"502 440 LINE",
"502 345 LINE",
"202 345 LINE",
"222 280 LINE",
"262 273 OFFCURVE",
"292 235 OFFCURVE",
"292 190 CURVE SMOOTH",
"292 157 OFFCURVE",
"258 130 OFFCURVE",
"217 130 CURVE SMOOTH",
"160 130 OFFCURVE",
"104 195 OFFCURVE",
"77 295 CURVE",
"12 295 LINE",
"39 147 OFFCURVE",
"137 50 OFFCURVE",
"262 50 CURVE SMOOTH",
"359 50 OFFCURVE",
"439 113 OFFCURVE",
"439 190 CURVE SMOOTH",
"439 221 OFFCURVE",
"424 253 OFFCURVE",
"397 280 CURVE",
"502 280 LINE",
"502 0 LINE",
"642 0 LINE",
"642 440 LINE",
"712 440 LINE",
"712 500 LINE"
);
},
{
closed = 1;
nodes = (
"221 15 OFFCURVE",
"187 -2 OFFCURVE",
"187 -25 CURVE SMOOTH",
"187 -48 OFFCURVE",
"221 -65 OFFCURVE",
"262 -65 CURVE SMOOTH",
"302 -65 OFFCURVE",
"334 -48 OFFCURVE",
"334 -25 CURVE SMOOTH",
"334 -2 OFFCURVE",
"302 15 OFFCURVE",
"262 15 CURVE SMOOTH"
);
}
);
width = 702;
},
{
layerId = "DF715B94-208D-4FDD-A2D8-DFDAF561BFB9";
name = Bold;
paths = (
{
closed = 1;
nodes = (
"-10 500 LINE",
"-10 420 LINE",
"497 420 LINE",
"497 365 LINE",
"192 365 LINE",
"192 270 LINE",
"232 263 OFFCURVE",
"262 231 OFFCURVE",
"262 195 CURVE SMOOTH",
"262 159 OFFCURVE",
"235 130 OFFCURVE",
"202 130 CURVE SMOOTH",
"142 130 OFFCURVE",
"102 195 OFFCURVE",
"102 295 CURVE",
"17 295 LINE",
"17 138 OFFCURVE",
"109 35 OFFCURVE",
"252 35 CURVE SMOOTH",
"373 35 OFFCURVE",
"472 107 OFFCURVE",
"472 195 CURVE SMOOTH",
"472 212 OFFCURVE",
"457 239 OFFCURVE",
"432 270 CURVE",
"497 270 LINE",
"497 0 LINE",
"697 0 LINE",
"697 420 LINE",
"762 420 LINE",
"762 500 LINE"
);
},
{
closed = 1;
nodes = (
"200 15 OFFCURVE",
"162 -7 OFFCURVE",
"162 -35 CURVE SMOOTH",
"162 -63 OFFCURVE",
"200 -85 OFFCURVE",
"247 -85 CURVE SMOOTH",
"291 -85 OFFCURVE",
"327 -63 OFFCURVE",
"327 -35 CURVE SMOOTH",
"327 -7 OFFCURVE",
"291 15 OFFCURVE",
"247 15 CURVE SMOOTH"
);
}
);
width = 752;
}
);
unicode = 095B;
},
{
glyphname = "dddha-deva";
lastChange = "2014-09-28 11:19:11 +0000";
layers = (
{
layerId = "5BCE6BDF-3D16-43B2-91D3-33CD61D1CB11";
name = Regular;
paths = (
{
closed = 1;
nodes = (
"-10 500 LINE",
"-10 440 LINE",
"291 440 LINE",
"291 385 LINE",
"161 385 LINE SMOOTH",
"94 385 OFFCURVE",
"41 340 OFFCURVE",
"41 285 CURVE SMOOTH",
"41 232 OFFCURVE",
"100 187 OFFCURVE",
"176 180 CURVE",
"271 180 LINE SMOOTH",
"296 180 OFFCURVE",
"318 160 OFFCURVE",
"318 135 CURVE SMOOTH",
"318 102 OFFCURVE",
"279 75 OFFCURVE",
"231 75 CURVE SMOOTH",
"172 75 OFFCURVE",
"109 100 OFFCURVE",
"56 145 CURVE",
"16 100 LINE",
"69 36 OFFCURVE",
"154 0 OFFCURVE",
"246 0 CURVE SMOOTH",
"367 0 OFFCURVE",
"465 60 OFFCURVE",
"465 135 CURVE SMOOTH",
"465 191 OFFCURVE",
"409 238 OFFCURVE",
"336 245 CURVE",
"231 245 LINE SMOOTH",
"207 245 OFFCURVE",
"188 262 OFFCURVE",
"188 285 CURVE SMOOTH",
"188 304 OFFCURVE",
"205 320 OFFCURVE",
"226 320 CURVE SMOOTH",
"431 320 LINE",
"431 440 LINE",
"499 440 LINE",
"499 500 LINE"
);
},
{
closed = 1;
nodes = (
"205 -30 OFFCURVE",
"171 -52 OFFCURVE",
"171 -80 CURVE SMOOTH",
"171 -108 OFFCURVE",
"205 -130 OFFCURVE",
"246 -130 CURVE SMOOTH",
"286 -130 OFFCURVE",
"318 -108 OFFCURVE",
"318 -80 CURVE SMOOTH",
"318 -52 OFFCURVE",
"286 -30 OFFCURVE",
"246 -30 CURVE SMOOTH"
);
}
);
width = 489;
},
{
layerId = "DF715B94-208D-4FDD-A2D8-DFDAF561BFB9";
name = Bold;
paths = (
{
closed = 1;
nodes = (
"-10 500 LINE",
"-10 420 LINE",
"296 420 LINE",
"296 385 LINE",
"206 385 LINE SMOOTH",
"121 385 OFFCURVE",
"51 337 OFFCURVE",
"51 280 CURVE SMOOTH",
"51 216 OFFCURVE",
"116 165 OFFCURVE",
"196 165 CURVE SMOOTH",
"271 165 LINE SMOOTH",
"304 165 OFFCURVE",
"331 148 OFFCURVE",
"331 125 CURVE SMOOTH",
"331 95 OFFCURVE",
"275 85 OFFCURVE",
"231 85 CURVE SMOOTH",
"174 85 OFFCURVE",
"112 110 OFFCURVE",
"56 155 CURVE",
"11 85 LINE",
"66 30 OFFCURVE",
"162 0 OFFCURVE",
"281 0 CURVE SMOOTH",
"438 0 OFFCURVE",
"541 49 OFFCURVE",
"541 125 CURVE SMOOTH",
"541 186 OFFCURVE",
"464 235 OFFCURVE",
"371 235 CURVE SMOOTH",
"301 235 LINE SMOOTH",
"278 235 OFFCURVE",
"261 252 OFFCURVE",
"261 275 CURVE SMOOTH",
"261 288 OFFCURVE",
"277 300 OFFCURVE",
"296 300 CURVE SMOOTH",
"496 300 LINE",
"496 420 LINE",
"569 420 LINE",
"569 500 LINE"
);
},
{
closed = 1;
nodes = (
"224 -25 OFFCURVE",
"186 -47 OFFCURVE",
"186 -75 CURVE SMOOTH",
"186 -103 OFFCURVE",
"224 -125 OFFCURVE",
"271 -125 CURVE SMOOTH",
"315 -125 OFFCURVE",
"351 -103 OFFCURVE",
"351 -75 CURVE SMOOTH",
"351 -47 OFFCURVE",
"315 -25 OFFCURVE",
"271 -25 CURVE SMOOTH"
);
}
);
width = 559;
}
);
unicode = 095C;
},
{
glyphname = "rha-deva";
lastChange = "2014-09-28 11:19:27 +0000";
layers = (
{
layerId = "5BCE6BDF-3D16-43B2-91D3-33CD61D1CB11";
name = Regular;
paths = (
{
closed = 1;
nodes = (
"-10 500 LINE",
"-10 440 LINE",
"310 440 LINE",
"310 385 LINE",
"250 385 LINE SMOOTH",
"126 385 OFFCURVE",
"25 305 OFFCURVE",
"25 205 CURVE SMOOTH",
"25 86 OFFCURVE",
"134 0 OFFCURVE",
"285 0 CURVE SMOOTH",
"433 0 OFFCURVE",
"530 51 OFFCURVE",
"530 130 CURVE SMOOTH",
"530 197 OFFCURVE",
"475 240 OFFCURVE",
"390 240 CURVE SMOOTH",
"302 240 OFFCURVE",
"224 186 OFFCURVE",
"195 105 CURVE",
"180 117 OFFCURVE",
"172 150 OFFCURVE",
"172 195 CURVE SMOOTH",
"172 264 OFFCURVE",
"234 320 OFFCURVE",
"310 320 CURVE SMOOTH",
"450 320 LINE",
"450 440 LINE",
"558 440 LINE",
"558 500 LINE"
);
},
{
closed = 1;
nodes = (
"244 -30 OFFCURVE",
"210 -52 OFFCURVE",
"210 -80 CURVE SMOOTH",
"210 -108 OFFCURVE",
"244 -130 OFFCURVE",
"285 -130 CURVE SMOOTH",
"325 -130 OFFCURVE",
"357 -108 OFFCURVE",
"357 -80 CURVE SMOOTH",
"357 -52 OFFCURVE",
"325 -30 OFFCURVE",
"285 -30 CURVE SMOOTH"
);
},
{
closed = 1;
nodes = (
"411 175 OFFCURVE",
"435 158 OFFCURVE",
"435 135 CURVE SMOOTH",
"435 99 OFFCURVE",
"390 70 OFFCURVE",
"335 70 CURVE SMOOTH",
"299 70 OFFCURVE",
"274 73 OFFCURVE",
"265 80 CURVE",
"286 137 OFFCURVE",
"332 175 OFFCURVE",
"380 175 CURVE SMOOTH"
);
}
);
width = 548;
},
{
layerId = "DF715B94-208D-4FDD-A2D8-DFDAF561BFB9";
name = Bold;
paths = (
{
closed = 1;
nodes = (
"-10 500 LINE",
"-10 420 LINE",
"308 420 LINE",
"308 385 LINE",
"253 385 LINE SMOOTH",
"126 385 OFFCURVE",
"23 303 OFFCURVE",
"23 200 CURVE SMOOTH",
"23 79 OFFCURVE",
"142 0 OFFCURVE",
"323 0 CURVE SMOOTH",
"460 0 OFFCURVE",
"623 32 OFFCURVE",
"623 130 CURVE SMOOTH",
"623 202 OFFCURVE",
"548 250 OFFCURVE",
"433 250 CURVE SMOOTH",
"345 250 OFFCURVE",
"270 202 OFFCURVE",
"243 130 CURVE",
"234 141 OFFCURVE",
"233 171 OFFCURVE",
"233 200 CURVE SMOOTH",
"233 255 OFFCURVE",
"289 300 OFFCURVE",
"358 300 CURVE SMOOTH",
"508 300 LINE",
"508 420 LINE",
"649 420 LINE",
"649 500 LINE"
);
},
{
closed = 1;
nodes = (
"266 -45 OFFCURVE",
"228 -67 OFFCURVE",
"228 -95 CURVE SMOOTH",
"228 -123 OFFCURVE",
"266 -145 OFFCURVE",
"313 -145 CURVE SMOOTH",
"357 -145 OFFCURVE",
"393 -123 OFFCURVE",
"393 -95 CURVE SMOOTH",
"393 -67 OFFCURVE",
"357 -45 OFFCURVE",
"313 -45 CURVE SMOOTH"
);
},
{
closed = 1;
nodes = (
"449 175 OFFCURVE",
"473 158 OFFCURVE",
"473 135 CURVE SMOOTH",
"473 104 OFFCURVE",
"428 80 OFFCURVE",
"373 80 CURVE SMOOTH",
"344 80 OFFCURVE",
"322 83 OFFCURVE",
"313 90 CURVE",
"332 141 OFFCURVE",
"374 175 OFFCURVE",
"418 175 CURVE SMOOTH"
);
}
);
width = 639;
}
);
unicode = 095D;
},
{
glyphname = "fa-deva";
lastChange = "2014-09-28 11:15:52 +0000";
layers = (
{
layerId = "5BCE6BDF-3D16-43B2-91D3-33CD61D1CB11";
name = Regular;
paths = (
{
closed = 1;
nodes = (
"-10 500 LINE",
"-10 440 LINE",
"38 440 LINE",
"38 250 LINE SMOOTH",
"38 167 OFFCURVE",
"110 100 OFFCURVE",
"198 100 CURVE SMOOTH",
"253 100 OFFCURVE",
"301 118 OFFCURVE",
"333 150 CURVE",
"333 0 LINE",
"473 0 LINE",
"473 270 LINE",
"488 295 OFFCURVE",
"516 310 OFFCURVE",
"548 310 CURVE SMOOTH",
"595 310 OFFCURVE",
"633 272 OFFCURVE",
"633 225 CURVE SMOOTH",
"633 170 OFFCURVE",
"585 125 OFFCURVE",
"528 125 CURVE",
"533 65 LINE",
"682 65 OFFCURVE",
"780 128 OFFCURVE",
"780 225 CURVE SMOOTH",
"780 318 OFFCURVE",
"701 380 OFFCURVE",
"578 380 CURVE SMOOTH",
"537 380 OFFCURVE",
"502 370 OFFCURVE",
"473 350 CURVE",
"473 440 LINE",
"807 440 LINE",
"807 500 LINE"
);
},
{
closed = 1;
nodes = (
"117 65 OFFCURVE",
"83 48 OFFCURVE",
"83 25 CURVE SMOOTH",
"83 2 OFFCURVE",
"117 -15 OFFCURVE",
"158 -15 CURVE SMOOTH",
"198 -15 OFFCURVE",
"230 2 OFFCURVE",
"230 25 CURVE SMOOTH",
"230 48 OFFCURVE",
"198 65 OFFCURVE",
"158 65 CURVE SMOOTH"
);
},
{
closed = 1;
nodes = (
"333 225 LINE",
"317 197 OFFCURVE",
"284 180 OFFCURVE",
"248 180 CURVE SMOOTH",
"213 180 OFFCURVE",
"185 211 OFFCURVE",
"185 250 CURVE SMOOTH",
"185 440 LINE",
"333 440 LINE"
);
}
);
width = 797;
},
{
layerId = "DF715B94-208D-4FDD-A2D8-DFDAF561BFB9";
name = Bold;
paths = (
{
closed = 1;
nodes = (
"-10 500 LINE",
"-10 420 LINE",
"37 420 LINE",
"37 250 LINE SMOOTH",
"37 162 OFFCURVE",
"119 90 OFFCURVE",
"222 90 CURVE SMOOTH",
"275 90 OFFCURVE",
"325 107 OFFCURVE",
"372 140 CURVE",
"372 0 LINE",
"572 0 LINE",
"572 250 LINE",
"589 281 OFFCURVE",
"614 300 OFFCURVE",
"637 300 CURVE SMOOTH",
"678 300 OFFCURVE",
"712 266 OFFCURVE",
"712 225 CURVE SMOOTH",
"712 173 OFFCURVE",
"676 130 OFFCURVE",
"632 130 CURVE",
"632 60 LINE",
"808 60 OFFCURVE",
"922 125 OFFCURVE",
"922 225 CURVE SMOOTH",
"922 318 OFFCURVE",
"833 380 OFFCURVE",
"697 380 CURVE SMOOTH",
"644 380 OFFCURVE",
"600 370 OFFCURVE",
"572 350 CURVE",
"572 420 LINE",
"937 420 LINE",
"937 500 LINE"
);
},
{
closed = 1;
nodes = (
"80 55 OFFCURVE",
"42 33 OFFCURVE",
"42 5 CURVE SMOOTH",
"42 -23 OFFCURVE",
"80 -45 OFFCURVE",
"127 -45 CURVE SMOOTH",
"171 -45 OFFCURVE",
"207 -23 OFFCURVE",
"207 5 CURVE SMOOTH",
"207 33 OFFCURVE",
"171 55 OFFCURVE",
"127 55 CURVE SMOOTH"
);
},
{
closed = 1;
nodes = (
"372 235 LINE",
"352 207 OFFCURVE",
"329 190 OFFCURVE",
"312 190 CURVE SMOOTH",
"271 190 OFFCURVE",
"237 217 OFFCURVE",
"237 250 CURVE SMOOTH",
"237 420 LINE",
"372 420 LINE"
);
}
);
width = 927;
}
);
unicode = 095E;
},
{
glyphname = "yya-deva";
lastChange = "2014-09-28 11:15:52 +0000";
layers = (
{
layerId = "5BCE6BDF-3D16-43B2-91D3-33CD61D1CB11";
name = Regular;
paths = (
{
closed = 1;
nodes = (
"-10 500 LINE",
"-10 440 LINE",
"132 440 LINE",
"153 431 OFFCURVE",
"167 407 OFFCURVE",
"167 380 CURVE SMOOTH",
"167 349 OFFCURVE",
"143 325 OFFCURVE",
"112 325 CURVE SMOOTH",
"27 325 LINE",
"27 245 LINE SMOOTH",
"27 157 OFFCURVE",
"119 85 OFFCURVE",
"232 85 CURVE SMOOTH",
"303 85 OFFCURVE",
"367 112 OFFCURVE",
"407 160 CURVE",
"407 0 LINE",
"547 0 LINE",
"547 440 LINE",
"617 440 LINE",
"617 500 LINE"
);
},
{
closed = 1;
nodes = (
"75 70 OFFCURVE",
"44 46 OFFCURVE",
"44 15 CURVE SMOOTH",
"44 -16 OFFCURVE",
"75 -40 OFFCURVE",
"114 -40 CURVE SMOOTH",
"157 -40 OFFCURVE",
"191 -16 OFFCURVE",
"191 15 CURVE SMOOTH",
"191 46 OFFCURVE",
"157 70 OFFCURVE",
"114 70 CURVE SMOOTH"
);
},
{
closed = 1;
nodes = (
"407 240 LINE",
"379 191 OFFCURVE",
"327 160 OFFCURVE",
"272 160 CURVE SMOOTH",
"215 160 OFFCURVE",
"167 198 OFFCURVE",
"167 245 CURVE",
"248 245 OFFCURVE",
"314 301 OFFCURVE",
"314 370 CURVE SMOOTH",
"314 390 OFFCURVE",
"304 415 OFFCURVE",
"287 440 CURVE",
"407 440 LINE"
);
}
);
width = 607;
},
{
layerId = "DF715B94-208D-4FDD-A2D8-DFDAF561BFB9";
name = Bold;
paths = (
{
closed = 1;
nodes = (
"-10 500 LINE",
"-10 420 LINE",
"195 420 LINE",
"216 411 OFFCURVE",
"230 390 OFFCURVE",
"230 370 CURVE SMOOTH",
"230 339 OFFCURVE",
"213 315 OFFCURVE",
"190 315 CURVE SMOOTH",
"90 315 LINE",
"90 235 LINE SMOOTH",
"90 142 OFFCURVE",
"198 65 OFFCURVE",
"330 65 CURVE SMOOTH",
"407 65 OFFCURVE",
"475 94 OFFCURVE",
"510 145 CURVE",
"510 0 LINE",
"710 0 LINE",
"710 420 LINE",
"775 420 LINE",
"775 500 LINE"
);
},
{
closed = 1;
nodes = (
"47 90 OFFCURVE",
"9 59 OFFCURVE",
"9 20 CURVE SMOOTH",
"9 -19 OFFCURVE",
"47 -50 OFFCURVE",
"94 -50 CURVE SMOOTH",
"138 -50 OFFCURVE",
"174 -19 OFFCURVE",
"174 20 CURVE SMOOTH",
"174 59 OFFCURVE",
"138 90 OFFCURVE",
"94 90 CURVE SMOOTH"
);
},
{
closed = 1;
nodes = (
"510 240 LINE",
"482 191 OFFCURVE",
"432 160 OFFCURVE",
"380 160 CURVE SMOOTH",
"331 160 OFFCURVE",
"290 194 OFFCURVE",
"290 235 CURVE",
"373 235 OFFCURVE",
"440 291 OFFCURVE",
"440 360 CURVE SMOOTH",
"440 371 OFFCURVE",
"430 392 OFFCURVE",
"410 420 CURVE",
"510 420 LINE"
);
}
);
width = 765;
}
);
unicode = 095F;
},
{
glyphname = "zha-deva";
lastChange = "2014-09-28 11:15:52 +0000";
layers = (
{
layerId = "5BCE6BDF-3D16-43B2-91D3-33CD61D1CB11";
name = Regular;
paths = (
{
closed = 1;
nodes = (
"-13 500 LINE",
"-13 440 LINE",
"502 440 LINE",
"502 345 LINE",
"202 345 LINE",
"222 280 LINE",
"259 273 OFFCURVE",
"287 235 OFFCURVE",
"287 190 CURVE SMOOTH",
"287 157 OFFCURVE",
"256 130 OFFCURVE",
"217 130 CURVE SMOOTH",
"160 130 OFFCURVE",
"104 195 OFFCURVE",
"77 295 CURVE",
"12 295 LINE",
"39 147 OFFCURVE",
"137 50 OFFCURVE",
"262 50 CURVE SMOOTH",
"357 50 OFFCURVE",
"434 113 OFFCURVE",
"434 190 CURVE SMOOTH",
"434 223 OFFCURVE",
"421 256 OFFCURVE",
"397 280 CURVE",
"502 280 LINE",
"502 0 LINE",
"642 0 LINE",
"642 440 LINE",
"712 440 LINE",
"712 500 LINE"
);
},
{
closed = 1;
nodes = (
"133 37 OFFCURVE",
"106 17 OFFCURVE",
"106 -7 CURVE SMOOTH",
"106 -32 OFFCURVE",
"133 -53 OFFCURVE",
"165 -53 CURVE SMOOTH",
"197 -53 OFFCURVE",
"224 -32 OFFCURVE",
"224 -7 CURVE SMOOTH",
"224 17 OFFCURVE",
"197 37 OFFCURVE",
"165 37 CURVE SMOOTH"
);
},
{
closed = 1;
nodes = (
"223 -53 OFFCURVE",
"196 -73 OFFCURVE",
"196 -98 CURVE SMOOTH",
"196 -123 OFFCURVE",
"223 -143 OFFCURVE",
"255 -143 CURVE SMOOTH",
"287 -143 OFFCURVE",
"314 -123 OFFCURVE",
"314 -98 CURVE SMOOTH",
"314 -73 OFFCURVE",
"287 -53 OFFCURVE",
"255 -53 CURVE SMOOTH"
);
},
{
closed = 1;
nodes = (
"313 37 OFFCURVE",
"287 17 OFFCURVE",
"287 -7 CURVE SMOOTH",
"287 -32 OFFCURVE",
"313 -53 OFFCURVE",
"345 -53 CURVE SMOOTH",
"377 -53 OFFCURVE",
"404 -32 OFFCURVE",
"404 -7 CURVE SMOOTH",
"404 17 OFFCURVE",
"377 37 OFFCURVE",
"345 37 CURVE SMOOTH"
);
}
);
width = 702;
},
{
layerId = "DF715B94-208D-4FDD-A2D8-DFDAF561BFB9";
name = Bold;
paths = (
{
closed = 1;
nodes = (
"-13 500 LINE",
"-13 420 LINE",
"497 420 LINE",
"497 365 LINE",
"192 365 LINE",
"192 270 LINE",
"232 263 OFFCURVE",
"262 231 OFFCURVE",
"262 195 CURVE SMOOTH",
"262 159 OFFCURVE",
"235 130 OFFCURVE",
"202 130 CURVE SMOOTH",
"142 130 OFFCURVE",
"102 195 OFFCURVE",
"102 295 CURVE",
"17 295 LINE",
"17 138 OFFCURVE",
"109 35 OFFCURVE",
"252 35 CURVE SMOOTH",
"373 35 OFFCURVE",
"472 107 OFFCURVE",
"472 195 CURVE SMOOTH",
"472 212 OFFCURVE",
"457 239 OFFCURVE",
"432 270 CURVE",
"497 270 LINE",
"497 0 LINE",
"697 0 LINE",
"697 420 LINE",
"762 420 LINE",
"762 500 LINE"
);
},
{
closed = 1;
nodes = (
"80 15 OFFCURVE",
"42 -7 OFFCURVE",
"42 -35 CURVE SMOOTH",
"42 -63 OFFCURVE",
"80 -85 OFFCURVE",
"127 -85 CURVE SMOOTH",
"171 -85 OFFCURVE",
"207 -63 OFFCURVE",
"207 -35 CURVE SMOOTH",
"207 -7 OFFCURVE",
"171 15 OFFCURVE",
"127 15 CURVE SMOOTH"
);
},
{
closed = 1;
nodes = (
"205 -90 OFFCURVE",
"167 -112 OFFCURVE",
"167 -140 CURVE SMOOTH",
"167 -168 OFFCURVE",
"205 -190 OFFCURVE",
"252 -190 CURVE SMOOTH",
"296 -190 OFFCURVE",
"332 -168 OFFCURVE",
"332 -140 CURVE SMOOTH",
"332 -112 OFFCURVE",
"296 -90 OFFCURVE",
"252 -90 CURVE SMOOTH"
);
},
{
closed = 1;
nodes = (
"320 15 OFFCURVE",
"282 -7 OFFCURVE",
"282 -35 CURVE SMOOTH",
"282 -63 OFFCURVE",
"320 -85 OFFCURVE",
"367 -85 CURVE SMOOTH",
"411 -85 OFFCURVE",
"447 -63 OFFCURVE",
"447 -35 CURVE SMOOTH",
"447 -7 OFFCURVE",
"411 15 OFFCURVE",
"367 15 CURVE SMOOTH"
);
}
);
width = 752;
}
);
unicode = 0979;
},
{
glyphname = "jjya-deva";
lastChange = "2014-09-28 11:20:00 +0000";
layers = (
{
layerId = "5BCE6BDF-3D16-43B2-91D3-33CD61D1CB11";
name = Regular;
paths = (
{
closed = 1;
nodes = (
"-14 500 LINE",
"-14 440 LINE",
"127 440 LINE",
"148 431 OFFCURVE",
"162 407 OFFCURVE",
"162 380 CURVE SMOOTH",
"162 349 OFFCURVE",
"138 325 OFFCURVE",
"107 325 CURVE SMOOTH",
"22 325 LINE",
"22 245 LINE SMOOTH",
"22 157 OFFCURVE",
"114 85 OFFCURVE",
"227 85 CURVE SMOOTH",
"298 85 OFFCURVE",
"362 112 OFFCURVE",
"402 160 CURVE",
"402 0 LINE",
"542 0 LINE",
"542 440 LINE",
"612 440 LINE",
"612 500 LINE"
);
},
{
closed = 1;
nodes = (
"361 192 LINE",
"334 171 OFFCURVE",
"302 160 OFFCURVE",
"267 160 CURVE SMOOTH",
"210 160 OFFCURVE",
"162 198 OFFCURVE",
"162 245 CURVE",
"197 245 OFFCURVE",
"231 256 OFFCURVE",
"256 277 CURVE"
);
},
{
closed = 1;
nodes = (
"402 226 LINE",
"289 317 LINE",
"302 342 OFFCURVE",
"309 359 OFFCURVE",
"309 370 CURVE SMOOTH",
"309 390 OFFCURVE",
"299 415 OFFCURVE",
"282 440 CURVE",
"402 440 LINE"
);
}
);
width = 602;
},
{
layerId = "DF715B94-208D-4FDD-A2D8-DFDAF561BFB9";
name = Bold;
paths = (
{
closed = 1;
nodes = (
"-14 500 LINE",
"-14 420 LINE",
"126 420 LINE",
"147 411 OFFCURVE",
"161 390 OFFCURVE",
"161 370 CURVE SMOOTH",
"161 339 OFFCURVE",
"144 315 OFFCURVE",
"121 315 CURVE SMOOTH",
"21 315 LINE",
"21 235 LINE SMOOTH",
"21 142 OFFCURVE",
"129 65 OFFCURVE",
"261 65 CURVE SMOOTH",
"338 65 OFFCURVE",
"406 94 OFFCURVE",
"441 145 CURVE",
"441 0 LINE",
"641 0 LINE",
"641 420 LINE",
"706 420 LINE",
"706 500 LINE"
);
},
{
closed = 1;
nodes = (
"406 197 LINE",
"378 173 OFFCURVE",
"344 160 OFFCURVE",
"311 160 CURVE SMOOTH",
"262 160 OFFCURVE",
"221 194 OFFCURVE",
"221 235 CURVE",
"258 235 OFFCURVE",
"294 247 OFFCURVE",
"319 270 CURVE"
);
},
{
closed = 1;
nodes = (
"441 272 LINE",
"359 341 LINE",
"361 346 OFFCURVE",
"371 356 OFFCURVE",
"371 360 CURVE SMOOTH",
"371 371 OFFCURVE",
"361 392 OFFCURVE",
"341 420 CURVE",
"441 420 LINE"
);
}
);
width = 696;
}
);
unicode = 097A;
},
{
glyphname = "gga-deva";
lastChange = "2014-09-28 11:15:52 +0000";
layers = (
{
layerId = "5BCE6BDF-3D16-43B2-91D3-33CD61D1CB11";
name = Regular;
paths = (
{
closed = 1;
nodes = (
"-10 500 LINE",
"-10 440 LINE",
"169 440 LINE SMOOTH",
"229 440 OFFCURVE",
"289 356 OFFCURVE",
"289 275 CURVE SMOOTH",
"289 203 OFFCURVE",
"248 155 OFFCURVE",
"184 155 CURVE SMOOTH",
"148 155 OFFCURVE",
"119 182 OFFCURVE",
"119 215 CURVE SMOOTH",
"119 246 OFFCURVE",
"137 265 OFFCURVE",
"164 265 CURVE",
"164 335 LINE",
"84 335 OFFCURVE",
"19 284 OFFCURVE",
"19 220 CURVE SMOOTH",
"19 143 OFFCURVE",
"98 80 OFFCURVE",
"194 80 CURVE SMOOTH",
"327 80 OFFCURVE",
"436 169 OFFCURVE",
"436 280 CURVE SMOOTH",
"436 337 OFFCURVE",
"406 396 OFFCURVE",
"354 440 CURVE",
"509 440 LINE",
"509 0 LINE",
"649 0 LINE",
"649 440 LINE",
"719 440 LINE",
"719 500 LINE"
);
},
{
closed = 1;
nodes = (
"57 -30 LINE",
"57 -80 LINE",
"460 -80 LINE",
"460 -30 LINE"
);
}
);
width = 709;
},
{
layerId = "DF715B94-208D-4FDD-A2D8-DFDAF561BFB9";
name = Bold;
paths = (
{
closed = 1;
nodes = (
"-10 500 LINE",
"-10 420 LINE",
"173 420 LINE SMOOTH",
"233 420 OFFCURVE",
"293 342 OFFCURVE",
"293 265 CURVE SMOOTH",
"293 205 OFFCURVE",
"260 165 OFFCURVE",
"208 165 CURVE SMOOTH",
"183 165 OFFCURVE",
"163 185 OFFCURVE",
"163 210 CURVE SMOOTH",
"163 237 OFFCURVE",
"181 255 OFFCURVE",
"208 255 CURVE",
"208 345 LINE",
"103 345 OFFCURVE",
"18 285 OFFCURVE",
"18 210 CURVE SMOOTH",
"18 133 OFFCURVE",
"112 70 OFFCURVE",
"228 70 CURVE SMOOTH",
"380 70 OFFCURVE",
"503 157 OFFCURVE",
"503 265 CURVE SMOOTH",
"503 334 OFFCURVE",
"475 393 OFFCURVE",
"428 420 CURVE",
"573 420 LINE",
"573 0 LINE",
"773 0 LINE",
"773 420 LINE",
"838 420 LINE",
"838 500 LINE"
);
},
{
closed = 1;
nodes = (
"52 0 LINE",
"52 -60 LINE",
"435 -60 LINE",
"435 0 LINE"
);
}
);
width = 828;
}
);
unicode = 097B;
},
{
glyphname = "jja-deva";
lastChange = "2014-09-28 11:20:10 +0000";
layers = (
{
layerId = "5BCE6BDF-3D16-43B2-91D3-33CD61D1CB11";
name = Regular;
paths = (
{
closed = 1;
nodes = (
"-10 500 LINE",
"-10 440 LINE",
"502 440 LINE",
"502 345 LINE",
"222 345 LINE",
"222 280 LINE",
"262 273 OFFCURVE",
"292 235 OFFCURVE",
"292 190 CURVE SMOOTH",
"292 157 OFFCURVE",
"258 130 OFFCURVE",
"217 130 CURVE SMOOTH",
"160 130 OFFCURVE",
"104 195 OFFCURVE",
"77 295 CURVE",
"12 295 LINE",
"39 147 OFFCURVE",
"137 50 OFFCURVE",
"262 50 CURVE SMOOTH",
"359 50 OFFCURVE",
"439 113 OFFCURVE",
"439 190 CURVE SMOOTH",
"439 221 OFFCURVE",
"424 253 OFFCURVE",
"397 280 CURVE",
"502 280 LINE",
"502 0 LINE",
"642 0 LINE",
"642 440 LINE",
"712 440 LINE",
"712 500 LINE"
);
},
{
closed = 1;
nodes = (
"70 -30 LINE",
"70 -80 LINE",
"473 -80 LINE",
"473 -30 LINE"
);
}
);
width = 702;
},
{
layerId = "DF715B94-208D-4FDD-A2D8-DFDAF561BFB9";
name = Bold;
paths = (
{
closed = 1;
nodes = (
"-10 500 LINE",
"-10 420 LINE",
"561 420 LINE",
"561 365 LINE",
"221 365 LINE",
"221 270 LINE",
"261 263 OFFCURVE",
"291 233 OFFCURVE",
"291 200 CURVE SMOOTH",
"291 161 OFFCURVE",
"267 130 OFFCURVE",
"236 130 CURVE SMOOTH",
"179 130 OFFCURVE",
"123 195 OFFCURVE",
"96 295 CURVE",
"11 295 LINE",
"39 138 OFFCURVE",
"145 35 OFFCURVE",
"281 35 CURVE SMOOTH",
"402 35 OFFCURVE",
"501 112 OFFCURVE",
"501 205 CURVE SMOOTH",
"501 224 OFFCURVE",
"480 247 OFFCURVE",
"461 270 CURVE",
"561 270 LINE",
"561 0 LINE",
"761 0 LINE",
"761 420 LINE",
"826 420 LINE",
"826 500 LINE"
);
},
{
closed = 1;
nodes = (
"85 0 LINE",
"85 -60 LINE",
"468 -60 LINE",
"468 0 LINE"
);
}
);
width = 816;
}
);
unicode = 097C;
},
{
glyphname = "ddda-deva";
lastChange = "2014-09-28 11:20:17 +0000";
layers = (
{
layerId = "5BCE6BDF-3D16-43B2-91D3-33CD61D1CB11";
name = Regular;
paths = (
{
closed = 1;
nodes = (
"-10 500 LINE",
"-10 440 LINE",
"291 440 LINE",
"291 385 LINE",
"161 385 LINE SMOOTH",
"94 385 OFFCURVE",
"41 340 OFFCURVE",
"41 285 CURVE SMOOTH",
"41 232 OFFCURVE",
"100 187 OFFCURVE",
"176 180 CURVE",
"271 180 LINE SMOOTH",
"299 180 OFFCURVE",
"321 160 OFFCURVE",
"321 135 CURVE SMOOTH",
"321 102 OFFCURVE",
"280 75 OFFCURVE",
"231 75 CURVE SMOOTH",
"172 75 OFFCURVE",
"109 100 OFFCURVE",
"56 145 CURVE",
"16 100 LINE",
"69 36 OFFCURVE",
"154 0 OFFCURVE",
"246 0 CURVE SMOOTH",
"369 0 OFFCURVE",
"468 60 OFFCURVE",
"468 135 CURVE SMOOTH",
"468 191 OFFCURVE",
"411 238 OFFCURVE",
"336 245 CURVE",
"231 245 LINE SMOOTH",
"207 245 OFFCURVE",
"188 262 OFFCURVE",
"188 285 CURVE SMOOTH",
"188 304 OFFCURVE",
"205 320 OFFCURVE",
"226 320 CURVE SMOOTH",
"431 320 LINE",
"431 440 LINE",
"501 440 LINE",
"501 500 LINE"
);
},
{
closed = 1;
nodes = (
"49 -30 LINE",
"49 -80 LINE",
"452 -80 LINE",
"452 -30 LINE"
);
}
);
width = 491;
},
{
layerId = "DF715B94-208D-4FDD-A2D8-DFDAF561BFB9";
name = Bold;
paths = (
{
closed = 1;
nodes = (
"-10 500 LINE",
"-10 420 LINE",
"296 420 LINE",
"296 385 LINE",
"206 385 LINE SMOOTH",
"121 385 OFFCURVE",
"51 337 OFFCURVE",
"51 280 CURVE SMOOTH",
"51 216 OFFCURVE",
"116 165 OFFCURVE",
"196 165 CURVE SMOOTH",
"271 165 LINE SMOOTH",
"304 165 OFFCURVE",
"331 148 OFFCURVE",
"331 125 CURVE SMOOTH",
"331 95 OFFCURVE",
"275 85 OFFCURVE",
"231 85 CURVE SMOOTH",
"174 85 OFFCURVE",
"112 110 OFFCURVE",
"56 155 CURVE",
"11 85 LINE",
"66 30 OFFCURVE",
"162 0 OFFCURVE",
"281 0 CURVE SMOOTH",
"438 0 OFFCURVE",
"541 49 OFFCURVE",
"541 125 CURVE SMOOTH",
"541 186 OFFCURVE",
"464 235 OFFCURVE",
"371 235 CURVE SMOOTH",
"301 235 LINE SMOOTH",
"278 235 OFFCURVE",
"261 250 OFFCURVE",
"261 267 CURVE SMOOTH",
"261 286 OFFCURVE",
"277 300 OFFCURVE",
"296 300 CURVE SMOOTH",
"496 300 LINE",
"496 420 LINE",
"569 420 LINE",
"569 500 LINE"
);
},
{
closed = 1;
nodes = (
"87 -10 LINE",
"87 -70 LINE",
"470 -70 LINE",
"470 -10 LINE"
);
}
);
width = 559;
}
);
unicode = 097E;
},
{
glyphname = "bba-deva";
lastChange = "2014-09-28 11:20:46 +0000";
layers = (
{
layerId = "5BCE6BDF-3D16-43B2-91D3-33CD61D1CB11";
name = Regular;
paths = (
{
closed = 1;
nodes = (
"-10 500 LINE",
"-10 440 LINE",
"399 440 LINE",
"399 215 LINE",
"391 198 OFFCURVE",
"376 183 OFFCURVE",
"354 170 CURVE",
"209 315 LINE",
"226 325 OFFCURVE",
"246 330 OFFCURVE",
"269 330 CURVE SMOOTH",
"286 330 OFFCURVE",
"302 324 OFFCURVE",
"314 315 CURVE",
"359 355 LINE",
"348 372 OFFCURVE",
"288 395 OFFCURVE",
"249 395 CURVE SMOOTH",
"113 395 OFFCURVE",
"24 330 OFFCURVE",
"24 230 CURVE SMOOTH",
"24 131 OFFCURVE",
"116 50 OFFCURVE",
"229 50 CURVE SMOOTH",
"290 50 OFFCURVE",
"351 77 OFFCURVE",
"399 125 CURVE",
"399 0 LINE",
"539 0 LINE",
"539 440 LINE",
"609 440 LINE",
"609 500 LINE"
);
},
{
closed = 1;
nodes = (
"42 -30 LINE",
"42 -80 LINE",
"445 -80 LINE",
"445 -30 LINE"
);
},
{
closed = 1;
nodes = (
"334 145 LINE",
"311 132 OFFCURVE",
"286 125 OFFCURVE",
"259 125 CURVE SMOOTH",
"211 125 OFFCURVE",
"171 174 OFFCURVE",
"171 235 CURVE SMOOTH",
"171 254 OFFCURVE",
"173 284 OFFCURVE",
"179 290 CURVE"
);
}
);
width = 599;
},
{
layerId = "DF715B94-208D-4FDD-A2D8-DFDAF561BFB9";
name = Bold;
paths = (
{
closed = 1;
nodes = (
"-10 500 LINE",
"-10 420 LINE",
"438 420 LINE",
"438 215 LINE",
"430 198 OFFCURVE",
"415 183 OFFCURVE",
"393 170 CURVE",
"283 315 LINE",
"290 316 OFFCURVE",
"298 317 OFFCURVE",
"307 317 CURVE SMOOTH",
"320 317 OFFCURVE",
"337 308 OFFCURVE",
"353 295 CURVE",
"408 355 LINE",
"396 372 OFFCURVE",
"311 395 OFFCURVE",
"258 395 CURVE SMOOTH",
"115 395 OFFCURVE",
"23 325 OFFCURVE",
"23 220 CURVE SMOOTH",
"23 111 OFFCURVE",
"107 40 OFFCURVE",
"238 40 CURVE SMOOTH",
"322 40 OFFCURVE",
"395 69 OFFCURVE",
"438 120 CURVE",
"438 0 LINE",
"638 0 LINE",
"638 420 LINE",
"703 420 LINE",
"703 500 LINE"
);
},
{
closed = 1;
nodes = (
"34 0 LINE",
"34 -60 LINE",
"417 -60 LINE",
"417 0 LINE"
);
},
{
closed = 1;
nodes = (
"353 145 LINE",
"335 138 OFFCURVE",
"318 135 OFFCURVE",
"303 135 CURVE SMOOTH",
"264 135 OFFCURVE",
"233 180 OFFCURVE",
"233 235 CURVE SMOOTH",
"233 266 OFFCURVE",
"235 281 OFFCURVE",
"238 285 CURVE"
);
}
);
width = 693;
}
);
unicode = 097F;
},
{
glyphname = "aShort-deva";
lastChange = "2014-10-09 17:30:14 +0000";
layers = (
{
layerId = "5BCE6BDF-3D16-43B2-91D3-33CD61D1CB11";
name = Regular;
paths = (
{
closed = 1;
nodes = (
"410 500 LINE",
"410 440 LINE",
"450 440 LINE",
"450 210 LINE",
"395 210 LINE",
"378 249 OFFCURVE",
"347 275 OFFCURVE",
"315 280 CURVE",
"364 297 OFFCURVE",
"397 336 OFFCURVE",
"397 375 CURVE SMOOTH",
"397 444 OFFCURVE",
"313 500 OFFCURVE",
"210 500 CURVE SMOOTH",
"143 500 OFFCURVE",
"87 479 OFFCURVE",
"55 440 CURVE",
"95 405 LINE",
"122 428 OFFCURVE",
"150 440 OFFCURVE",
"175 440 CURVE SMOOTH",
"216 440 OFFCURVE",
"250 413 OFFCURVE",
"250 380 CURVE SMOOTH",
"250 336 OFFCURVE",
"209 300 OFFCURVE",
"160 300 CURVE",
"160 240 LINE",
"215 240 OFFCURVE",
"260 202 OFFCURVE",
"260 155 CURVE SMOOTH",
"260 111 OFFCURVE",
"219 75 OFFCURVE",
"170 75 CURVE SMOOTH",
"127 75 OFFCURVE",
"86 113 OFFCURVE",
"65 170 CURVE",
"10 150 LINE",
"34 62 OFFCURVE",
"120 0 OFFCURVE",
"220 0 CURVE SMOOTH",
"320 0 OFFCURVE",
"400 65 OFFCURVE",
"400 145 CURVE",
"450 145 LINE",
"450 0 LINE",
"590 0 LINE",
"590 440 LINE",
"660 440 LINE",
"660 500 LINE"
);
},
{
closed = 1;
nodes = (
"157 707 LINE",
"188 640 OFFCURVE",
"251 598 OFFCURVE",
"318 598 CURVE SMOOTH",
"368 598 LINE SMOOTH",
"396 598 OFFCURVE",
"429 559 OFFCURVE",
"450 502 CURVE",
"590 502 LINE",
"561 582 OFFCURVE",
"483 636 OFFCURVE",
"398 636 CURVE SMOOTH",
"328 636 LINE SMOOTH",
"287 636 OFFCURVE",
"242 683 OFFCURVE",
"217 754 CURVE"
);
}
);
width = 650;
},
{
layerId = "DF715B94-208D-4FDD-A2D8-DFDAF561BFB9";
name = Bold;
paths = (
{
closed = 1;
nodes = (
"478 500 LINE",
"478 420 LINE",
"498 420 LINE",
"498 220 LINE",
"443 220 LINE",
"434 247 OFFCURVE",
"403 269 OFFCURVE",
"363 280 CURVE",
"414 299 OFFCURVE",
"448 336 OFFCURVE",
"448 375 CURVE SMOOTH",
"448 444 OFFCURVE",
"347 500 OFFCURVE",
"223 500 CURVE SMOOTH",
"156 500 OFFCURVE",
"94 476 OFFCURVE",
"53 435 CURVE",
"103 385 LINE",
"135 408 OFFCURVE",
"163 420 OFFCURVE",
"183 420 CURVE SMOOTH",
"214 420 OFFCURVE",
"238 398 OFFCURVE",
"238 370 CURVE SMOOTH",
"238 337 OFFCURVE",
"204 310 OFFCURVE",
"163 310 CURVE",
"163 230 LINE",
"210 230 OFFCURVE",
"248 196 OFFCURVE",
"248 155 CURVE SMOOTH",
"248 122 OFFCURVE",
"214 95 OFFCURVE",
"173 95 CURVE SMOOTH",
"140 95 OFFCURVE",
"105 127 OFFCURVE",
"88 175 CURVE",
"8 150 LINE",
"32 62 OFFCURVE",
"121 0 OFFCURVE",
"228 0 CURVE SMOOTH",
"349 0 OFFCURVE",
"448 60 OFFCURVE",
"448 135 CURVE",
"498 135 LINE",
"498 0 LINE",
"698 0 LINE",
"698 420 LINE",
"763 420 LINE",
"763 500 LINE"
);
},
{
closed = 1;
nodes = (
"154 702 LINE",
"195 630 OFFCURVE",
"272 585 OFFCURVE",
"355 585 CURVE SMOOTH",
"406 585 LINE SMOOTH",
"457 585 OFFCURVE",
"497 547 OFFCURVE",
"497 500 CURVE",
"697 500 LINE",
"697 595 OFFCURVE",
"566 671 OFFCURVE",
"405 671 CURVE SMOOTH",
"355 671 LINE SMOOTH",
"303 671 OFFCURVE",
"253 702 OFFCURVE",
"224 754 CURVE"
);
}
);
width = 753;
}
);
unicode = 0904;
},
{
glyphname = "aCandra-deva";
lastChange = "2014-09-28 11:15:52 +0000";
layers = (
{
layerId = "5BCE6BDF-3D16-43B2-91D3-33CD61D1CB11";
name = Regular;
paths = (
{
closed = 1;
nodes = (
"410 500 LINE",
"410 440 LINE",
"450 440 LINE",
"450 210 LINE",
"395 210 LINE",
"378 249 OFFCURVE",
"347 275 OFFCURVE",
"315 280 CURVE",
"364 297 OFFCURVE",
"397 336 OFFCURVE",
"397 375 CURVE SMOOTH",
"397 444 OFFCURVE",
"313 500 OFFCURVE",
"210 500 CURVE SMOOTH",
"143 500 OFFCURVE",
"87 479 OFFCURVE",
"55 440 CURVE",
"95 405 LINE",
"122 428 OFFCURVE",
"150 440 OFFCURVE",
"175 440 CURVE SMOOTH",
"216 440 OFFCURVE",
"250 413 OFFCURVE",
"250 380 CURVE SMOOTH",
"250 336 OFFCURVE",
"209 300 OFFCURVE",
"160 300 CURVE",
"160 240 LINE",
"215 240 OFFCURVE",
"260 202 OFFCURVE",
"260 155 CURVE SMOOTH",
"260 111 OFFCURVE",
"219 75 OFFCURVE",
"170 75 CURVE SMOOTH",
"127 75 OFFCURVE",
"86 113 OFFCURVE",
"65 170 CURVE",
"10 150 LINE",
"34 62 OFFCURVE",
"120 0 OFFCURVE",
"220 0 CURVE SMOOTH",
"320 0 OFFCURVE",
"400 65 OFFCURVE",
"400 145 CURVE",
"450 145 LINE",
"450 0 LINE",
"590 0 LINE",
"590 440 LINE",
"660 440 LINE",
"660 500 LINE"
);
},
{
closed = 1;
nodes = (
"588 689 OFFCURVE",
"534 656 OFFCURVE",
"478 656 CURVE SMOOTH",
"429 656 OFFCURVE",
"379 689 OFFCURVE",
"347 744 CURVE",
"287 697 LINE",
"328 626 OFFCURVE",
"420 582 OFFCURVE",
"528 582 CURVE SMOOTH",
"631 582 OFFCURVE",
"719 626 OFFCURVE",
"760 697 CURVE",
"620 744 LINE"
);
}
);
width = 650;
},
{
layerId = "DF715B94-208D-4FDD-A2D8-DFDAF561BFB9";
name = Bold;
paths = (
{
closed = 1;
nodes = (
"478 500 LINE",
"478 420 LINE",
"498 420 LINE",
"498 220 LINE",
"443 220 LINE",
"434 247 OFFCURVE",
"403 269 OFFCURVE",
"363 280 CURVE",
"414 299 OFFCURVE",
"448 336 OFFCURVE",
"448 375 CURVE SMOOTH",
"448 444 OFFCURVE",
"347 500 OFFCURVE",
"223 500 CURVE SMOOTH",
"156 500 OFFCURVE",
"94 476 OFFCURVE",
"53 435 CURVE",
"103 385 LINE",
"135 408 OFFCURVE",
"163 420 OFFCURVE",
"183 420 CURVE SMOOTH",
"214 420 OFFCURVE",
"238 398 OFFCURVE",
"238 370 CURVE SMOOTH",
"238 337 OFFCURVE",
"204 310 OFFCURVE",
"163 310 CURVE",
"163 230 LINE",
"210 230 OFFCURVE",
"248 196 OFFCURVE",
"248 155 CURVE SMOOTH",
"248 122 OFFCURVE",
"214 95 OFFCURVE",
"173 95 CURVE SMOOTH",
"140 95 OFFCURVE",
"105 127 OFFCURVE",
"88 175 CURVE",
"8 150 LINE",
"32 62 OFFCURVE",
"121 0 OFFCURVE",
"228 0 CURVE SMOOTH",
"349 0 OFFCURVE",
"448 60 OFFCURVE",
"448 135 CURVE",
"498 135 LINE",
"498 0 LINE",
"698 0 LINE",
"698 420 LINE",
"763 420 LINE",
"763 500 LINE"
);
},
{
closed = 1;
nodes = (
"656 669 OFFCURVE",
"610 636 OFFCURVE",
"566 636 CURVE SMOOTH",
"517 636 OFFCURVE",
"467 669 OFFCURVE",
"435 724 CURVE",
"365 677 LINE",
"412 597 OFFCURVE",
"503 547 OFFCURVE",
"604 547 CURVE SMOOTH",
"705 547 OFFCURVE",
"796 597 OFFCURVE",
"843 677 CURVE",
"688 724 LINE"
);
}
);
width = 753;
}
);
unicode = 0972;
},
{
glyphname = "a-deva";
lastChange = "2014-09-28 11:15:52 +0000";
layers = (
{
layerId = "5BCE6BDF-3D16-43B2-91D3-33CD61D1CB11";
name = Regular;
paths = (
{
closed = 1;
nodes = (
"410 500 LINE",
"410 440 LINE",
"450 440 LINE",
"450 210 LINE",
"395 210 LINE",
"378 249 OFFCURVE",
"347 275 OFFCURVE",
"315 280 CURVE",
"364 297 OFFCURVE",
"397 336 OFFCURVE",
"397 375 CURVE SMOOTH",
"397 444 OFFCURVE",
"313 500 OFFCURVE",
"210 500 CURVE SMOOTH",
"143 500 OFFCURVE",
"87 479 OFFCURVE",
"55 440 CURVE",
"95 405 LINE",
"122 428 OFFCURVE",
"150 440 OFFCURVE",
"175 440 CURVE SMOOTH",
"216 440 OFFCURVE",
"250 413 OFFCURVE",
"250 380 CURVE SMOOTH",
"250 336 OFFCURVE",
"209 300 OFFCURVE",
"160 300 CURVE",
"160 240 LINE",
"215 240 OFFCURVE",
"260 202 OFFCURVE",
"260 155 CURVE SMOOTH",
"260 111 OFFCURVE",
"219 75 OFFCURVE",
"170 75 CURVE SMOOTH",
"127 75 OFFCURVE",
"86 113 OFFCURVE",
"65 170 CURVE",
"10 150 LINE",
"34 62 OFFCURVE",
"120 0 OFFCURVE",
"220 0 CURVE SMOOTH",
"320 0 OFFCURVE",
"400 65 OFFCURVE",
"400 145 CURVE",
"450 145 LINE",
"450 0 LINE",
"590 0 LINE",
"590 440 LINE",
"660 440 LINE",
"660 500 LINE"
);
}
);
width = 650;
},
{
layerId = "DF715B94-208D-4FDD-A2D8-DFDAF561BFB9";
name = Bold;
paths = (
{
closed = 1;
nodes = (
"478 500 LINE",
"478 420 LINE",
"498 420 LINE",
"498 220 LINE",
"443 220 LINE",
"434 247 OFFCURVE",
"403 269 OFFCURVE",
"363 280 CURVE",
"414 299 OFFCURVE",
"448 336 OFFCURVE",
"448 375 CURVE SMOOTH",
"448 444 OFFCURVE",
"347 500 OFFCURVE",
"223 500 CURVE SMOOTH",
"156 500 OFFCURVE",
"94 476 OFFCURVE",
"53 435 CURVE",
"103 385 LINE",
"135 408 OFFCURVE",
"163 420 OFFCURVE",
"183 420 CURVE SMOOTH",
"214 420 OFFCURVE",
"238 398 OFFCURVE",
"238 370 CURVE SMOOTH",
"238 337 OFFCURVE",
"204 310 OFFCURVE",
"163 310 CURVE",
"163 230 LINE",
"210 230 OFFCURVE",
"248 196 OFFCURVE",
"248 155 CURVE SMOOTH",
"248 122 OFFCURVE",
"214 95 OFFCURVE",
"173 95 CURVE SMOOTH",
"140 95 OFFCURVE",
"105 127 OFFCURVE",
"88 175 CURVE",
"8 150 LINE",
"32 62 OFFCURVE",
"121 0 OFFCURVE",
"228 0 CURVE SMOOTH",
"349 0 OFFCURVE",
"448 60 OFFCURVE",
"448 135 CURVE",
"498 135 LINE",
"498 0 LINE",
"698 0 LINE",
"698 420 LINE",
"763 420 LINE",
"763 500 LINE"
);
}
);
width = 753;
}
);
unicode = 0905;
},
{
glyphname = "aa-deva";
lastChange = "2014-09-28 11:15:52 +0000";
layers = (
{
layerId = "5BCE6BDF-3D16-43B2-91D3-33CD61D1CB11";
name = Regular;
paths = (
{
closed = 1;
nodes = (
"410 500 LINE",
"410 440 LINE",
"450 440 LINE",
"450 210 LINE",
"395 210 LINE",
"378 249 OFFCURVE",
"347 275 OFFCURVE",
"315 280 CURVE",
"364 297 OFFCURVE",
"397 336 OFFCURVE",
"397 375 CURVE SMOOTH",
"397 444 OFFCURVE",
"313 500 OFFCURVE",
"210 500 CURVE SMOOTH",
"143 500 OFFCURVE",
"87 479 OFFCURVE",
"55 440 CURVE",
"95 405 LINE",
"122 428 OFFCURVE",
"150 440 OFFCURVE",
"175 440 CURVE SMOOTH",
"216 440 OFFCURVE",
"250 413 OFFCURVE",
"250 380 CURVE SMOOTH",
"250 336 OFFCURVE",
"209 300 OFFCURVE",
"160 300 CURVE",
"160 240 LINE",
"215 240 OFFCURVE",
"260 202 OFFCURVE",
"260 155 CURVE SMOOTH",
"260 111 OFFCURVE",
"219 75 OFFCURVE",
"170 75 CURVE SMOOTH",
"127 75 OFFCURVE",
"86 113 OFFCURVE",
"65 170 CURVE",
"10 150 LINE",
"34 62 OFFCURVE",
"120 0 OFFCURVE",
"220 0 CURVE SMOOTH",
"320 0 OFFCURVE",
"400 65 OFFCURVE",
"400 145 CURVE",
"450 145 LINE",
"450 0 LINE",
"590 0 LINE",
"590 440 LINE",
"660 440 LINE",
"660 500 LINE"
);
},
{
closed = 1;
nodes = (
"640 500 LINE",
"640 440 LINE",
"710 440 LINE",
"710 0 LINE",
"850 0 LINE",
"850 440 LINE",
"920 440 LINE",
"920 500 LINE"
);
}
);
width = 910;
},
{
layerId = "DF715B94-208D-4FDD-A2D8-DFDAF561BFB9";
name = Bold;
paths = (
{
closed = 1;
nodes = (
"478 500 LINE",
"478 420 LINE",
"498 420 LINE",
"498 220 LINE",
"443 220 LINE",
"434 247 OFFCURVE",
"403 269 OFFCURVE",
"363 280 CURVE",
"414 299 OFFCURVE",
"448 336 OFFCURVE",
"448 375 CURVE SMOOTH",
"448 444 OFFCURVE",
"347 500 OFFCURVE",
"223 500 CURVE SMOOTH",
"156 500 OFFCURVE",
"94 476 OFFCURVE",
"53 435 CURVE",
"103 385 LINE",
"135 408 OFFCURVE",
"163 420 OFFCURVE",
"183 420 CURVE SMOOTH",
"214 420 OFFCURVE",
"238 398 OFFCURVE",
"238 370 CURVE SMOOTH",
"238 337 OFFCURVE",
"204 310 OFFCURVE",
"163 310 CURVE",
"163 230 LINE",
"210 230 OFFCURVE",
"248 196 OFFCURVE",
"248 155 CURVE SMOOTH",
"248 122 OFFCURVE",
"214 95 OFFCURVE",
"173 95 CURVE SMOOTH",
"140 95 OFFCURVE",
"105 127 OFFCURVE",
"88 175 CURVE",
"8 150 LINE",
"32 62 OFFCURVE",
"121 0 OFFCURVE",
"228 0 CURVE SMOOTH",
"349 0 OFFCURVE",
"448 60 OFFCURVE",
"448 135 CURVE",
"498 135 LINE",
"498 0 LINE",
"698 0 LINE",
"698 420 LINE",
"763 420 LINE",
"763 500 LINE"
);
},
{
closed = 1;
nodes = (
"743 500 LINE",
"743 420 LINE",
"808 420 LINE",
"808 0 LINE",
"1008 0 LINE",
"1008 420 LINE",
"1073 420 LINE",
"1073 500 LINE"
);
}
);
width = 1063;
}
);
unicode = 0906;
},
{
glyphname = "i-deva";
lastChange = "2014-09-28 11:15:52 +0000";
layers = (
{
layerId = "5BCE6BDF-3D16-43B2-91D3-33CD61D1CB11";
name = Regular;
paths = (
{
closed = 1;
nodes = (
"-10 500 LINE",
"-10 440 LINE",
"285 440 LINE",
"285 383 LINE",
"164 383 LINE SMOOTH",
"97 383 OFFCURVE",
"44 344 OFFCURVE",
"44 296 CURVE SMOOTH",
"44 245 OFFCURVE",
"99 204 OFFCURVE",
"167 204 CURVE SMOOTH",
"300 204 LINE SMOOTH",
"317 204 OFFCURVE",
"331 187 OFFCURVE",
"331 166 CURVE SMOOTH",
"331 127 OFFCURVE",
"280 95 OFFCURVE",
"219 95 CURVE SMOOTH",
"170 95 OFFCURVE",
"114 121 OFFCURVE",
"59 166 CURVE",
"13 103 LINE",
"48 90 OFFCURVE",
"75 72 OFFCURVE",
"95 48 CURVE SMOOTH",
"155 -23 OFFCURVE",
"235 -64 OFFCURVE",
"312 -64 CURVE SMOOTH",
"372 -64 OFFCURVE",
"423 -47 OFFCURVE",
"455 -15 CURVE",
"420 25 LINE",
"396 8 OFFCURVE",
"373 0 OFFCURVE",
"350 0 CURVE SMOOTH",
"315 0 OFFCURVE",
"280 15 OFFCURVE",
"255 40 CURVE",
"315 40 LINE SMOOTH",
"406 40 OFFCURVE",
"478 93 OFFCURVE",
"478 160 CURVE SMOOTH",
"478 217 OFFCURVE",
"414 265 OFFCURVE",
"335 265 CURVE SMOOTH",
"220 265 LINE SMOOTH",
"204 265 OFFCURVE",
"191 279 OFFCURVE",
"191 295 CURVE SMOOTH",
"191 311 OFFCURVE",
"204 325 OFFCURVE",
"220 325 CURVE SMOOTH",
"425 325 LINE",
"425 440 LINE",
"508 440 LINE",
"508 500 LINE"
);
}
);
width = 498;
},
{
layerId = "DF715B94-208D-4FDD-A2D8-DFDAF561BFB9";
name = Bold;
paths = (
{
closed = 1;
nodes = (
"-10 500 LINE",
"-10 420 LINE",
"273 420 LINE",
"273 383 LINE",
"172 383 LINE SMOOTH",
"100 383 OFFCURVE",
"42 335 OFFCURVE",
"42 276 CURVE SMOOTH",
"42 223 OFFCURVE",
"104 179 OFFCURVE",
"180 179 CURVE SMOOTH",
"277 179 LINE SMOOTH",
"297 179 OFFCURVE",
"314 165 OFFCURVE",
"314 146 CURVE SMOOTH",
"314 121 OFFCURVE",
"277 100 OFFCURVE",
"232 100 CURVE SMOOTH",
"172 100 OFFCURVE",
"115 120 OFFCURVE",
"72 156 CURVE",
"11 88 LINE",
"42 77 OFFCURVE",
"69 57 OFFCURVE",
"93 28 CURVE SMOOTH",
"158 -49 OFFCURVE",
"242 -94 OFFCURVE",
"325 -94 CURVE SMOOTH",
"389 -94 OFFCURVE",
"446 -77 OFFCURVE",
"483 -45 CURVE",
"438 10 LINE",
"409 -7 OFFCURVE",
"384 -15 OFFCURVE",
"363 -15 CURVE SMOOTH",
"338 -15 OFFCURVE",
"312 -3 OFFCURVE",
"293 20 CURVE",
"333 20 LINE SMOOTH",
"438 20 OFFCURVE",
"524 73 OFFCURVE",
"524 140 CURVE SMOOTH",
"524 204 OFFCURVE",
"458 255 OFFCURVE",
"378 255 CURVE SMOOTH",
"278 255 LINE SMOOTH",
"263 255 OFFCURVE",
"252 264 OFFCURVE",
"252 275 CURVE SMOOTH",
"252 286 OFFCURVE",
"261 295 OFFCURVE",
"273 295 CURVE SMOOTH",
"473 295 LINE",
"473 420 LINE",
"551 420 LINE",
"551 500 LINE"
);
}
);
width = 541;
}
);
unicode = 0907;
},
{
glyphname = "ii-deva";
lastChange = "2014-09-28 11:15:52 +0000";
layers = (
{
layerId = "5BCE6BDF-3D16-43B2-91D3-33CD61D1CB11";
name = Regular;
paths = (
{
closed = 1;
nodes = (
"-10 500 LINE",
"-10 440 LINE",
"285 440 LINE",
"285 383 LINE",
"164 383 LINE SMOOTH",
"97 383 OFFCURVE",
"44 344 OFFCURVE",
"44 296 CURVE SMOOTH",
"44 245 OFFCURVE",
"99 204 OFFCURVE",
"167 204 CURVE SMOOTH",
"300 204 LINE SMOOTH",
"317 204 OFFCURVE",
"331 187 OFFCURVE",
"331 166 CURVE SMOOTH",
"331 127 OFFCURVE",
"280 95 OFFCURVE",
"219 95 CURVE SMOOTH",
"170 95 OFFCURVE",
"114 121 OFFCURVE",
"59 166 CURVE",
"13 103 LINE",
"48 90 OFFCURVE",
"75 72 OFFCURVE",
"95 48 CURVE SMOOTH",
"155 -23 OFFCURVE",
"235 -64 OFFCURVE",
"312 -64 CURVE SMOOTH",
"372 -64 OFFCURVE",
"423 -47 OFFCURVE",
"455 -15 CURVE",
"420 25 LINE",
"396 8 OFFCURVE",
"373 0 OFFCURVE",
"350 0 CURVE SMOOTH",
"315 0 OFFCURVE",
"280 15 OFFCURVE",
"255 40 CURVE",
"315 40 LINE SMOOTH",
"406 40 OFFCURVE",
"478 93 OFFCURVE",
"478 160 CURVE SMOOTH",
"478 217 OFFCURVE",
"414 265 OFFCURVE",
"335 265 CURVE SMOOTH",
"220 265 LINE SMOOTH",
"204 265 OFFCURVE",
"191 279 OFFCURVE",
"191 295 CURVE SMOOTH",
"191 311 OFFCURVE",
"204 325 OFFCURVE",
"220 325 CURVE SMOOTH",
"425 325 LINE",
"425 440 LINE",
"508 440 LINE",
"508 500 LINE"
);
},
{
closed = 1;
nodes = (
"317 748 OFFCURVE",
"227 692 OFFCURVE",
"227 623 CURVE SMOOTH",
"227 571 OFFCURVE",
"257 523 OFFCURVE",
"304 502 CURVE",
"426 502 LINE",
"385 526 OFFCURVE",
"360 565 OFFCURVE",
"360 608 CURVE SMOOTH",
"360 647 OFFCURVE",
"392 678 OFFCURVE",
"431 678 CURVE SMOOTH",
"450 678 OFFCURVE",
"468 673 OFFCURVE",
"487 662 CURVE",
"524 712 LINE",
"483 736 OFFCURVE",
"450 748 OFFCURVE",
"426 748 CURVE SMOOTH"
);
}
);
width = 498;
},
{
layerId = "DF715B94-208D-4FDD-A2D8-DFDAF561BFB9";
name = Bold;
paths = (
{
closed = 1;
nodes = (
"-10 500 LINE",
"-10 420 LINE",
"273 420 LINE",
"273 383 LINE",
"172 383 LINE SMOOTH",
"100 383 OFFCURVE",
"42 335 OFFCURVE",
"42 276 CURVE SMOOTH",
"42 223 OFFCURVE",
"104 179 OFFCURVE",
"180 179 CURVE SMOOTH",
"277 179 LINE SMOOTH",
"297 179 OFFCURVE",
"314 165 OFFCURVE",
"314 146 CURVE SMOOTH",
"314 121 OFFCURVE",
"277 100 OFFCURVE",
"232 100 CURVE SMOOTH",
"172 100 OFFCURVE",
"115 120 OFFCURVE",
"72 156 CURVE",
"11 88 LINE",
"42 77 OFFCURVE",
"69 57 OFFCURVE",
"93 28 CURVE SMOOTH",
"158 -49 OFFCURVE",
"242 -94 OFFCURVE",
"325 -94 CURVE SMOOTH",
"389 -94 OFFCURVE",
"446 -77 OFFCURVE",
"483 -45 CURVE",
"438 10 LINE",
"409 -7 OFFCURVE",
"384 -15 OFFCURVE",
"363 -15 CURVE SMOOTH",
"338 -15 OFFCURVE",
"312 -3 OFFCURVE",
"293 20 CURVE",
"333 20 LINE SMOOTH",
"438 20 OFFCURVE",
"524 73 OFFCURVE",
"524 140 CURVE SMOOTH",
"524 204 OFFCURVE",
"458 255 OFFCURVE",
"378 255 CURVE SMOOTH",
"278 255 LINE SMOOTH",
"263 255 OFFCURVE",
"252 264 OFFCURVE",
"252 275 CURVE SMOOTH",
"252 286 OFFCURVE",
"261 295 OFFCURVE",
"273 295 CURVE SMOOTH",
"473 295 LINE",
"473 420 LINE",
"551 420 LINE",
"551 500 LINE"
);
},
{
closed = 1;
nodes = (
"308 748 OFFCURVE",
"215 692 OFFCURVE",
"215 623 CURVE SMOOTH",
"215 575 OFFCURVE",
"253 528 OFFCURVE",
"312 500 CURVE",
"514 500 LINE",
"451 517 OFFCURVE",
"408 559 OFFCURVE",
"408 603 CURVE SMOOTH",
"408 636 OFFCURVE",
"443 663 OFFCURVE",
"484 663 CURVE SMOOTH",
"516 663 OFFCURVE",
"541 658 OFFCURVE",
"560 647 CURVE",
"597 722 LINE",
"568 739 OFFCURVE",
"508 748 OFFCURVE",
"424 748 CURVE SMOOTH"
);
}
);
width = 541;
}
);
unicode = 0908;
},
{
glyphname = "u-deva";
lastChange = "2014-09-28 11:15:52 +0000";
layers = (
{
layerId = "5BCE6BDF-3D16-43B2-91D3-33CD61D1CB11";
name = Regular;
paths = (
{
closed = 1;
nodes = (
"-10 500 LINE",
"-10 440 LINE",
"227 440 LINE",
"256 432 OFFCURVE",
"277 411 OFFCURVE",
"277 390 CURVE SMOOTH",
"277 354 OFFCURVE",
"234 325 OFFCURVE",
"182 325 CURVE",
"182 265 LINE",
"246 265 OFFCURVE",
"297 222 OFFCURVE",
"297 170 CURVE SMOOTH",
"297 113 OFFCURVE",
"249 65 OFFCURVE",
"192 65 CURVE SMOOTH",
"141 65 OFFCURVE",
"94 110 OFFCURVE",
"77 175 CURVE",
"12 175 LINE",
"12 79 OFFCURVE",
"111 0 OFFCURVE",
"232 0 CURVE SMOOTH",
"349 0 OFFCURVE",
"444 72 OFFCURVE",
"444 160 CURVE SMOOTH",
"444 219 OFFCURVE",
"408 273 OFFCURVE",
"352 300 CURVE",
"396 320 OFFCURVE",
"424 352 OFFCURVE",
"424 380 CURVE SMOOTH",
"424 403 OFFCURVE",
"407 425 OFFCURVE",
"382 440 CURVE",
"484 440 LINE",
"484 500 LINE"
);
}
);
width = 474;
},
{
layerId = "DF715B94-208D-4FDD-A2D8-DFDAF561BFB9";
name = Bold;
paths = (
{
closed = 1;
nodes = (
"-10 500 LINE",
"-10 420 LINE",
"221 420 LINE",
"252 409 OFFCURVE",
"271 389 OFFCURVE",
"271 370 CURVE SMOOTH",
"271 342 OFFCURVE",
"246 320 OFFCURVE",
"181 320 CURVE",
"181 230 LINE",
"260 230 OFFCURVE",
"301 200 OFFCURVE",
"301 155 CURVE SMOOTH",
"301 116 OFFCURVE",
"260 85 OFFCURVE",
"211 85 CURVE SMOOTH",
"147 85 OFFCURVE",
"96 130 OFFCURVE",
"96 185 CURVE",
"11 185 LINE",
"11 82 OFFCURVE",
"119 0 OFFCURVE",
"251 0 CURVE SMOOTH",
"395 0 OFFCURVE",
"511 70 OFFCURVE",
"511 155 CURVE SMOOTH",
"511 212 OFFCURVE",
"467 264 OFFCURVE",
"406 280 CURVE",
"451 296 OFFCURVE",
"481 333 OFFCURVE",
"481 370 CURVE SMOOTH",
"481 383 OFFCURVE",
"466 403 OFFCURVE",
"441 420 CURVE",
"543 420 LINE",
"543 500 LINE"
);
}
);
width = 533;
}
);
unicode = 0909;
},
{
glyphname = "uu-deva";
lastChange = "2014-09-28 11:15:52 +0000";
layers = (
{
layerId = "5BCE6BDF-3D16-43B2-91D3-33CD61D1CB11";
name = Regular;
paths = (
{
closed = 1;
nodes = (
"-10 500 LINE",
"-10 440 LINE",
"227 440 LINE",
"256 432 OFFCURVE",
"277 411 OFFCURVE",
"277 390 CURVE SMOOTH",
"277 354 OFFCURVE",
"234 325 OFFCURVE",
"182 325 CURVE",
"182 260 LINE",
"246 260 OFFCURVE",
"297 219 OFFCURVE",
"297 170 CURVE SMOOTH",
"297 113 OFFCURVE",
"249 65 OFFCURVE",
"192 65 CURVE SMOOTH",
"141 65 OFFCURVE",
"94 110 OFFCURVE",
"77 175 CURVE",
"12 175 LINE",
"12 79 OFFCURVE",
"111 0 OFFCURVE",
"232 0 CURVE SMOOTH",
"349 0 OFFCURVE",
"444 70 OFFCURVE",
"444 155 CURVE SMOOTH",
"444 181 OFFCURVE",
"437 204 OFFCURVE",
"422 225 CURVE",
"431 241 OFFCURVE",
"455 255 OFFCURVE",
"487 260 CURVE",
"536 260 OFFCURVE",
"577 219 OFFCURVE",
"577 170 CURVE SMOOTH",
"577 114 OFFCURVE",
"533 66 OFFCURVE",
"472 55 CURVE",
"502 0 LINE",
"625 0 OFFCURVE",
"724 80 OFFCURVE",
"724 180 CURVE SMOOTH",
"724 268 OFFCURVE",
"639 340 OFFCURVE",
"532 340 CURVE SMOOTH",
"477 340 OFFCURVE",
"426 319 OFFCURVE",
"387 280 CURVE",
"379 289 OFFCURVE",
"367 296 OFFCURVE",
"352 300 CURVE",
"396 320 OFFCURVE",
"424 352 OFFCURVE",
"424 380 CURVE SMOOTH",
"424 403 OFFCURVE",
"407 425 OFFCURVE",
"382 440 CURVE",
"757 440 LINE",
"757 500 LINE"
);
}
);
width = 747;
},
{
layerId = "DF715B94-208D-4FDD-A2D8-DFDAF561BFB9";
name = Bold;
paths = (
{
closed = 1;
nodes = (
"-10 500 LINE",
"-10 420 LINE",
"215 420 LINE",
"244 412 OFFCURVE",
"265 389 OFFCURVE",
"265 365 CURVE SMOOTH",
"265 337 OFFCURVE",
"227 315 OFFCURVE",
"180 315 CURVE",
"180 235 LINE",
"237 235 OFFCURVE",
"285 199 OFFCURVE",
"285 155 CURVE SMOOTH",
"285 116 OFFCURVE",
"249 85 OFFCURVE",
"205 85 CURVE SMOOTH",
"154 85 OFFCURVE",
"110 122 OFFCURVE",
"95 175 CURVE",
"10 175 LINE",
"10 79 OFFCURVE",
"120 0 OFFCURVE",
"255 0 CURVE SMOOTH",
"387 0 OFFCURVE",
"495 70 OFFCURVE",
"495 155 CURVE SMOOTH",
"495 172 OFFCURVE",
"488 189 OFFCURVE",
"475 205 CURVE",
"484 222 OFFCURVE",
"507 235 OFFCURVE",
"535 240 CURVE",
"571 240 OFFCURVE",
"600 202 OFFCURVE",
"600 155 CURVE SMOOTH",
"600 114 OFFCURVE",
"567 78 OFFCURVE",
"520 70 CURVE",
"550 0 LINE",
"694 0 OFFCURVE",
"810 77 OFFCURVE",
"810 170 CURVE SMOOTH",
"810 253 OFFCURVE",
"709 320 OFFCURVE",
"585 320 CURVE SMOOTH",
"530 320 OFFCURVE",
"478 301 OFFCURVE",
"435 265 CURVE",
"436 263 OFFCURVE",
"408 277 OFFCURVE",
"400 280 CURVE",
"445 301 OFFCURVE",
"475 332 OFFCURVE",
"475 360 CURVE SMOOTH",
"475 381 OFFCURVE",
"458 404 OFFCURVE",
"430 420 CURVE",
"839 420 LINE",
"839 500 LINE"
);
}
);
width = 829;
}
);
unicode = 090A;
},
{
glyphname = "rVocalic-deva";
lastChange = "2014-09-28 11:15:52 +0000";
layers = (
{
layerId = "5BCE6BDF-3D16-43B2-91D3-33CD61D1CB11";
name = Regular;
paths = (
{
closed = 1;
nodes = (
"-10 500 LINE",
"-10 440 LINE",
"384 440 LINE",
"384 225 LINE",
"349 215 LINE",
"305 310 OFFCURVE",
"226 370 OFFCURVE",
"149 370 CURVE SMOOTH",
"98 370 OFFCURVE",
"48 349 OFFCURVE",
"9 310 CURVE",
"49 260 LINE",
"70 285 OFFCURVE",
"94 300 OFFCURVE",
"114 300 CURVE SMOOTH",
"129 300 OFFCURVE",
"146 288 OFFCURVE",
"165 263 CURVE",
"185 239 OFFCURVE",
"205 206 OFFCURVE",
"224 165 CURVE",
"54 100 LINE",
"84 45 LINE",
"384 160 LINE",
"384 0 LINE",
"524 0 LINE",
"524 195 LINE",
"654 235 LINE",
"693 196 OFFCURVE",
"714 159 OFFCURVE",
"714 130 CURVE SMOOTH",
"714 101 OFFCURVE",
"683 72 OFFCURVE",
"639 60 CURVE",
"639 0 LINE",
"762 0 OFFCURVE",
"861 58 OFFCURVE",
"861 130 CURVE SMOOTH",
"861 170 OFFCURVE",
"828 221 OFFCURVE",
"769 270 CURVE",
"788 278 OFFCURVE",
"799 299 OFFCURVE",
"799 320 CURVE SMOOTH",
"799 353 OFFCURVE",
"754 380 OFFCURVE",
"699 380 CURVE SMOOTH",
"642 380 OFFCURVE",
"594 351 OFFCURVE",
"594 315 CURVE SMOOTH",
"594 310 OFFCURVE",
"597 302 OFFCURVE",
"604 290 CURVE",
"524 265 LINE",
"524 440 LINE",
"889 440 LINE",
"889 500 LINE"
);
}
);
width = 879;
},
{
layerId = "DF715B94-208D-4FDD-A2D8-DFDAF561BFB9";
name = Bold;
paths = (
{
closed = 1;
nodes = (
"-10 500 LINE",
"-10 420 LINE",
"413 420 LINE",
"413 240 LINE",
"388 230 LINE",
"345 322 OFFCURVE",
"266 380 OFFCURVE",
"183 380 CURVE SMOOTH",
"112 380 OFFCURVE",
"49 356 OFFCURVE",
"8 315 CURVE",
"58 245 LINE",
"81 268 OFFCURVE",
"104 280 OFFCURVE",
"123 280 CURVE SMOOTH",
"134 280 OFFCURVE",
"146 270 OFFCURVE",
"159 249 CURVE",
"170 233 OFFCURVE",
"184 205 OFFCURVE",
"203 165 CURVE",
"53 105 LINE",
"83 30 LINE",
"413 150 LINE",
"413 0 LINE",
"613 0 LINE",
"613 185 LINE",
"718 220 LINE",
"747 191 OFFCURVE",
"783 150 OFFCURVE",
"783 125 CURVE SMOOTH",
"783 98 OFFCURVE",
"760 74 OFFCURVE",
"728 65 CURVE",
"728 0 LINE",
"875 0 OFFCURVE",
"993 56 OFFCURVE",
"993 125 CURVE SMOOTH",
"993 164 OFFCURVE",
"958 214 OFFCURVE",
"898 265 CURVE",
"917 272 OFFCURVE",
"928 293 OFFCURVE",
"928 320 CURVE SMOOTH",
"928 359 OFFCURVE",
"870 390 OFFCURVE",
"798 390 CURVE SMOOTH",
"729 390 OFFCURVE",
"673 356 OFFCURVE",
"673 315 CURVE SMOOTH",
"673 308 OFFCURVE",
"673 302 OFFCURVE",
"678 295 CURVE",
"613 275 LINE",
"613 420 LINE",
"1019 420 LINE",
"1019 500 LINE"
);
}
);
width = 1009;
}
);
unicode = 090B;
},
{
glyphname = "rrVocalic-deva";
lastChange = "2014-09-28 11:15:52 +0000";
layers = (
{
layerId = "5BCE6BDF-3D16-43B2-91D3-33CD61D1CB11";
name = Regular;
paths = (
{
closed = 1;
nodes = (
"-10 500 LINE",
"-10 440 LINE",
"384 440 LINE",
"384 225 LINE",
"349 215 LINE",
"305 310 OFFCURVE",
"226 370 OFFCURVE",
"149 370 CURVE SMOOTH",
"98 370 OFFCURVE",
"48 349 OFFCURVE",
"9 310 CURVE",
"49 260 LINE",
"70 285 OFFCURVE",
"94 300 OFFCURVE",
"114 300 CURVE SMOOTH",
"129 300 OFFCURVE",
"146 288 OFFCURVE",
"165 263 CURVE",
"185 239 OFFCURVE",
"205 206 OFFCURVE",
"224 165 CURVE",
"54 100 LINE",
"84 45 LINE",
"384 160 LINE",
"384 0 LINE",
"524 0 LINE",
"524 195 LINE",
"654 235 LINE",
"663 223 OFFCURVE",
"669 213 OFFCURVE",
"669 205 CURVE",
"633 188 OFFCURVE",
"609 155 OFFCURVE",
"609 120 CURVE SMOOTH",
"609 53 OFFCURVE",
"676 0 OFFCURVE",
"759 0 CURVE SMOOTH",
"807 0 OFFCURVE",
"849 12 OFFCURVE",
"874 35 CURVE",
"834 80 LINE",
"817 70 OFFCURVE",
"801 65 OFFCURVE",
"784 65 CURVE SMOOTH",
"748 65 OFFCURVE",
"719 92 OFFCURVE",
"719 125 CURVE SMOOTH",
"719 158 OFFCURVE",
"750 189 OFFCURVE",
"794 200 CURVE",
"769 270 LINE",
"788 278 OFFCURVE",
"799 299 OFFCURVE",
"799 320 CURVE SMOOTH",
"799 353 OFFCURVE",
"754 380 OFFCURVE",
"699 380 CURVE SMOOTH",
"642 380 OFFCURVE",
"594 351 OFFCURVE",
"594 315 CURVE SMOOTH",
"594 310 OFFCURVE",
"597 302 OFFCURVE",
"604 290 CURVE",
"524 265 LINE",
"524 440 LINE",
"891 440 LINE",
"891 500 LINE"
);
}
);
width = 881;
},
{
layerId = "DF715B94-208D-4FDD-A2D8-DFDAF561BFB9";
name = Bold;
paths = (
{
closed = 1;
nodes = (
"-10 500 LINE",
"-10 420 LINE",
"413 420 LINE",
"413 240 LINE",
"388 230 LINE",
"345 322 OFFCURVE",
"266 380 OFFCURVE",
"183 380 CURVE SMOOTH",
"112 380 OFFCURVE",
"49 356 OFFCURVE",
"8 315 CURVE",
"58 245 LINE",
"81 268 OFFCURVE",
"104 280 OFFCURVE",
"123 280 CURVE SMOOTH",
"134 280 OFFCURVE",
"146 270 OFFCURVE",
"159 249 CURVE",
"170 233 OFFCURVE",
"184 205 OFFCURVE",
"203 165 CURVE",
"53 105 LINE",
"83 30 LINE",
"413 150 LINE",
"413 0 LINE",
"613 0 LINE",
"613 185 LINE",
"718 220 LINE",
"727 211 OFFCURVE",
"733 198 OFFCURVE",
"733 185 CURVE",
"705 169 OFFCURVE",
"688 142 OFFCURVE",
"688 115 CURVE SMOOTH",
"688 40 OFFCURVE",
"767 -20 OFFCURVE",
"863 -20 CURVE SMOOTH",
"914 -20 OFFCURVE",
"959 -8 OFFCURVE",
"998 15 CURVE",
"963 110 LINE",
"946 100 OFFCURVE",
"930 95 OFFCURVE",
"913 95 CURVE SMOOTH",
"877 95 OFFCURVE",
"848 117 OFFCURVE",
"848 145 CURVE SMOOTH",
"848 169 OFFCURVE",
"878 194 OFFCURVE",
"923 210 CURVE",
"898 265 LINE",
"917 272 OFFCURVE",
"928 293 OFFCURVE",
"928 320 CURVE SMOOTH",
"928 359 OFFCURVE",
"870 390 OFFCURVE",
"798 390 CURVE SMOOTH",
"729 390 OFFCURVE",
"673 356 OFFCURVE",
"673 315 CURVE SMOOTH",
"673 308 OFFCURVE",
"675 305 OFFCURVE",
"678 295 CURVE",
"613 275 LINE",
"613 420 LINE",
"1018 420 LINE",
"1018 500 LINE"
);
}
);
width = 1008;
}
);
unicode = 0960;
},
{
glyphname = "lVocalic-deva";
lastChange = "2014-09-28 11:15:52 +0000";
layers = (
{
layerId = "5BCE6BDF-3D16-43B2-91D3-33CD61D1CB11";
name = Regular;
paths = (
{
closed = 1;
nodes = (
"-10 500 LINE",
"-10 440 LINE",
"436 440 LINE",
"436 365 LINE",
"408 362 OFFCURVE",
"380 349 OFFCURVE",
"356 325 CURVE",
"327 354 OFFCURVE",
"281 370 OFFCURVE",
"226 370 CURVE SMOOTH",
"110 370 OFFCURVE",
"26 299 OFFCURVE",
"26 200 CURVE SMOOTH",
"26 84 OFFCURVE",
"122 0 OFFCURVE",
"251 0 CURVE",
"251 63 LINE",
"204 63 OFFCURVE",
"173 112 OFFCURVE",
"173 185 CURVE SMOOTH",
"173 254 OFFCURVE",
"208 300 OFFCURVE",
"261 300 CURVE SMOOTH",
"284 300 OFFCURVE",
"314 297 OFFCURVE",
"321 285 CURVE",
"311 268 OFFCURVE",
"306 249 OFFCURVE",
"306 230 CURVE",
"371 210 LINE",
"386 263 OFFCURVE",
"425 300 OFFCURVE",
"466 300 CURVE SMOOTH",
"530 300 OFFCURVE",
"571 257 OFFCURVE",
"571 190 CURVE SMOOTH",
"571 113 OFFCURVE",
"532 63 OFFCURVE",
"473 63 CURVE SMOOTH",
"374 63 OFFCURVE",
"295 7 OFFCURVE",
"295 -61 CURVE SMOOTH",
"295 -130 OFFCURVE",
"370 -186 OFFCURVE",
"462 -186 CURVE SMOOTH",
"553 -186 OFFCURVE",
"625 -160 OFFCURVE",
"656 -116 CURVE",
"599 -77 LINE",
"575 -106 OFFCURVE",
"537 -123 OFFCURVE",
"497 -123 CURVE SMOOTH",
"466 -123 OFFCURVE",
"442 -95 OFFCURVE",
"442 -62 CURVE SMOOTH",
"442 -27 OFFCURVE",
"462 0 OFFCURVE",
"486 0 CURVE SMOOTH",
"626 0 OFFCURVE",
"718 75 OFFCURVE",
"718 190 CURVE SMOOTH",
"718 273 OFFCURVE",
"661 342 OFFCURVE",
"576 365 CURVE",
"576 440 LINE",
"754 440 LINE",
"754 500 LINE"
);
}
);
width = 744;
},
{
layerId = "DF715B94-208D-4FDD-A2D8-DFDAF561BFB9";
name = Bold;
paths = (
{
closed = 1;
nodes = (
"-10 500 LINE",
"-10 420 LINE",
"474 420 LINE",
"474 375 LINE",
"446 372 OFFCURVE",
"418 359 OFFCURVE",
"394 335 CURVE",
"362 367 OFFCURVE",
"310 385 OFFCURVE",
"249 385 CURVE SMOOTH",
"113 385 OFFCURVE",
"24 307 OFFCURVE",
"24 190 CURVE SMOOTH",
"24 75 OFFCURVE",
"137 0 OFFCURVE",
"309 0 CURVE",
"309 85 LINE",
"264 85 OFFCURVE",
"234 126 OFFCURVE",
"234 190 CURVE SMOOTH",
"234 257 OFFCURVE",
"260 300 OFFCURVE",
"299 300 CURVE SMOOTH",
"328 300 OFFCURVE",
"349 294 OFFCURVE",
"354 285 CURVE",
"344 268 OFFCURVE",
"339 249 OFFCURVE",
"339 230 CURVE",
"414 210 LINE",
"429 263 OFFCURVE",
"465 300 OFFCURVE",
"504 300 CURVE SMOOTH",
"556 300 OFFCURVE",
"589 257 OFFCURVE",
"589 190 CURVE SMOOTH",
"589 129 OFFCURVE",
"560 89 OFFCURVE",
"515 89 CURVE SMOOTH",
"439 89 OFFCURVE",
"377 38 OFFCURVE",
"377 -25 CURVE SMOOTH",
"377 -94 OFFCURVE",
"469 -150 OFFCURVE",
"584 -150 CURVE SMOOTH",
"675 -150 OFFCURVE",
"747 -124 OFFCURVE",
"778 -80 CURVE",
"721 -21 LINE",
"697 -50 OFFCURVE",
"665 -67 OFFCURVE",
"634 -67 CURVE SMOOTH",
"609 -67 OFFCURVE",
"587 -49 OFFCURVE",
"587 -26 CURVE SMOOTH",
"587 -1 OFFCURVE",
"609 20 OFFCURVE",
"634 20 CURVE SMOOTH",
"734 20 OFFCURVE",
"799 87 OFFCURVE",
"799 190 CURVE SMOOTH",
"799 293 OFFCURVE",
"728 366 OFFCURVE",
"619 375 CURVE",
"619 420 LINE",
"834 420 LINE",
"834 500 LINE"
);
}
);
width = 824;
}
);
unicode = 090C;
},
{
glyphname = "llVocalic-deva";
lastChange = "2014-09-28 11:15:52 +0000";
layers = (
{
layerId = "5BCE6BDF-3D16-43B2-91D3-33CD61D1CB11";
name = Regular;
paths = (
{
closed = 1;
nodes = (
"-10 500 LINE",
"-10 440 LINE",
"436 440 LINE",
"436 365 LINE",
"408 362 OFFCURVE",
"380 349 OFFCURVE",
"356 325 CURVE",
"327 354 OFFCURVE",
"281 370 OFFCURVE",
"226 370 CURVE SMOOTH",
"110 370 OFFCURVE",
"26 299 OFFCURVE",
"26 200 CURVE SMOOTH",
"26 84 OFFCURVE",
"122 0 OFFCURVE",
"251 0 CURVE",
"251 65 LINE",
"204 65 OFFCURVE",
"173 113 OFFCURVE",
"173 185 CURVE SMOOTH",
"173 254 OFFCURVE",
"208 300 OFFCURVE",
"261 300 CURVE SMOOTH",
"284 300 OFFCURVE",
"314 297 OFFCURVE",
"321 285 CURVE",
"311 268 OFFCURVE",
"306 249 OFFCURVE",
"306 230 CURVE",
"371 210 LINE",
"386 263 OFFCURVE",
"425 300 OFFCURVE",
"466 300 CURVE SMOOTH",
"530 300 OFFCURVE",
"571 257 OFFCURVE",
"571 190 CURVE SMOOTH",
"571 118 OFFCURVE",
"521 59 OFFCURVE",
"458 59 CURVE SMOOTH",
"374 59 OFFCURVE",
"307 31 OFFCURVE",
"307 -5 CURVE SMOOTH",
"307 -32 OFFCURVE",
"343 -56 OFFCURVE",
"391 -60 CURVE",
"347 -68 OFFCURVE",
"316 -88 OFFCURVE",
"316 -108 CURVE SMOOTH",
"316 -153 OFFCURVE",
"390 -190 OFFCURVE",
"481 -190 CURVE SMOOTH",
"569 -190 OFFCURVE",
"637 -177 OFFCURVE",
"674 -150 CURVE",
"639 -102 LINE",
"604 -122 OFFCURVE",
"570 -132 OFFCURVE",
"536 -132 CURVE SMOOTH",
"504 -132 OFFCURVE",
"479 -117 OFFCURVE",
"479 -98 CURVE SMOOTH",
"479 -87 OFFCURVE",
"497 -77 OFFCURVE",
"521 -73 CURVE",
"538 -73 LINE",
"538 -31 LINE",
"536 -32 OFFCURVE",
"531 -32 OFFCURVE",
"524 -31 CURVE",
"514 -30 OFFCURVE",
"505 -29 OFFCURVE",
"497 -29 CURVE SMOOTH",
"481 -29 OFFCURVE",
"454 -24 OFFCURVE",
"454 -15 CURVE SMOOTH",
"454 -7 OFFCURVE",
"469 0 OFFCURVE",
"486 0 CURVE SMOOTH",
"626 0 OFFCURVE",
"718 75 OFFCURVE",
"718 190 CURVE SMOOTH",
"718 273 OFFCURVE",
"661 342 OFFCURVE",
"576 365 CURVE",
"576 440 LINE",
"754 440 LINE",
"754 500 LINE"
);
}
);
width = 744;
},
{
layerId = "DF715B94-208D-4FDD-A2D8-DFDAF561BFB9";
name = Bold;
paths = (
{
closed = 1;
nodes = (
"-10 500 LINE",
"-10 420 LINE",
"474 420 LINE",
"474 375 LINE",
"446 372 OFFCURVE",
"418 359 OFFCURVE",
"394 335 CURVE",
"362 367 OFFCURVE",
"310 385 OFFCURVE",
"249 385 CURVE SMOOTH",
"113 385 OFFCURVE",
"24 307 OFFCURVE",
"24 190 CURVE SMOOTH",
"24 75 OFFCURVE",
"137 0 OFFCURVE",
"309 0 CURVE",
"309 85 LINE",
"264 85 OFFCURVE",
"234 126 OFFCURVE",
"234 190 CURVE SMOOTH",
"234 257 OFFCURVE",
"260 300 OFFCURVE",
"299 300 CURVE SMOOTH",
"328 300 OFFCURVE",
"349 294 OFFCURVE",
"354 285 CURVE",
"344 268 OFFCURVE",
"339 249 OFFCURVE",
"339 230 CURVE",
"414 210 LINE",
"429 263 OFFCURVE",
"465 300 OFFCURVE",
"504 300 CURVE SMOOTH",
"556 300 OFFCURVE",
"589 257 OFFCURVE",
"589 190 CURVE SMOOTH",
"589 123 OFFCURVE",
"550 79 OFFCURVE",
"490 79 CURVE SMOOTH",
"421 79 OFFCURVE",
"364 49 OFFCURVE",
"364 10 CURVE SMOOTH",
"364 -15 OFFCURVE",
"423 -33 OFFCURVE",
"463 -40 CURVE",
"425 -47 OFFCURVE",
"373 -62 OFFCURVE",
"373 -83 CURVE SMOOTH",
"373 -131 OFFCURVE",
"467 -170 OFFCURVE",
"583 -170 CURVE SMOOTH",
"687 -170 OFFCURVE",
"760 -155 OFFCURVE",
"791 -130 CURVE",
"756 -67 LINE",
"715 -90 OFFCURVE",
"674 -102 OFFCURVE",
"633 -102 CURVE SMOOTH",
"612 -102 OFFCURVE",
"574 -97 OFFCURVE",
"574 -78 CURVE SMOOTH",
"574 -67 OFFCURVE",
"590 -57 OFFCURVE",
"613 -53 CURVE",
"635 -53 LINE",
"635 -11 LINE",
"633 -12 OFFCURVE",
"628 -12 OFFCURVE",
"621 -11 CURVE",
"611 -10 OFFCURVE",
"602 -9 OFFCURVE",
"594 -9 CURVE SMOOTH",
"583 -9 OFFCURVE",
"574 -1 OFFCURVE",
"574 10 CURVE SMOOTH",
"574 15 OFFCURVE",
"579 19 OFFCURVE",
"584 20 CURVE",
"715 20 OFFCURVE",
"799 87 OFFCURVE",
"799 190 CURVE SMOOTH",
"799 293 OFFCURVE",
"728 366 OFFCURVE",
"619 375 CURVE",
"619 420 LINE",
"833 420 LINE",
"833 500 LINE"
);
}
);
width = 823;
}
);
unicode = 0961;
},
{
glyphname = "eCandra-deva";
lastChange = "2014-09-28 11:15:52 +0000";
layers = (
{
layerId = "5BCE6BDF-3D16-43B2-91D3-33CD61D1CB11";
name = Regular;
paths = (
{
closed = 1;
nodes = (
"-10 500 LINE",
"-10 440 LINE",
"32 440 LINE",
"32 275 LINE SMOOTH",
"32 227 OFFCURVE",
"63 183 OFFCURVE",
"112 160 CURVE",
"212 105 LINE",
"261 82 OFFCURVE",
"292 44 OFFCURVE",
"292 5 CURVE SMOOTH",
"292 -27 OFFCURVE",
"268 -56 OFFCURVE",
"232 -65 CURVE",
"267 -125 LINE",
"367 -108 OFFCURVE",
"439 -57 OFFCURVE",
"439 -5 CURVE SMOOTH",
"439 26 OFFCURVE",
"379 70 OFFCURVE",
"327 100 CURVE",
"222 165 LINE",
"195 177 OFFCURVE",
"179 210 OFFCURVE",
"179 250 CURVE SMOOTH",
"179 440 LINE",
"302 440 LINE",
"325 421 OFFCURVE",
"337 383 OFFCURVE",
"337 335 CURVE SMOOTH",
"337 294 OFFCURVE",
"312 253 OFFCURVE",
"272 230 CURVE",
"307 180 LINE",
"410 199 OFFCURVE",
"484 265 OFFCURVE",
"484 340 CURVE SMOOTH",
"484 372 OFFCURVE",
"469 408 OFFCURVE",
"442 440 CURVE",
"515 440 LINE",
"515 500 LINE"
);
},
{
closed = 1;
nodes = (
"443 689 OFFCURVE",
"389 656 OFFCURVE",
"333 656 CURVE SMOOTH",
"284 656 OFFCURVE",
"234 689 OFFCURVE",
"202 744 CURVE",
"142 697 LINE",
"183 626 OFFCURVE",
"275 582 OFFCURVE",
"383 582 CURVE SMOOTH",
"486 582 OFFCURVE",
"574 626 OFFCURVE",
"615 697 CURVE",
"475 744 LINE"
);
}
);
width = 505;
},
{
layerId = "DF715B94-208D-4FDD-A2D8-DFDAF561BFB9";
name = Bold;
paths = (
{
closed = 1;
nodes = (
"-10 500 LINE",
"-10 420 LINE",
"30 420 LINE",
"30 255 LINE SMOOTH",
"30 207 OFFCURVE",
"61 163 OFFCURVE",
"110 140 CURVE SMOOTH",
"230 85 LINE SMOOTH",
"275 64 OFFCURVE",
"305 23 OFFCURVE",
"305 -20 CURVE SMOOTH",
"305 -47 OFFCURVE",
"282 -71 OFFCURVE",
"250 -80 CURVE",
"300 -145 LINE",
"424 -124 OFFCURVE",
"515 -71 OFFCURVE",
"515 -20 CURVE SMOOTH",
"515 9 OFFCURVE",
"472 49 OFFCURVE",
"405 80 CURVE",
"280 145 LINE SMOOTH",
"249 160 OFFCURVE",
"230 193 OFFCURVE",
"230 230 CURVE SMOOTH",
"230 420 LINE",
"320 420 LINE",
"343 401 OFFCURVE",
"355 360 OFFCURVE",
"355 305 CURVE SMOOTH",
"355 270 OFFCURVE",
"336 237 OFFCURVE",
"305 220 CURVE",
"385 160 LINE",
"489 179 OFFCURVE",
"565 245 OFFCURVE",
"565 320 CURVE SMOOTH",
"565 343 OFFCURVE",
"549 379 OFFCURVE",
"520 420 CURVE",
"593 420 LINE",
"593 500 LINE"
);
},
{
closed = 1;
nodes = (
"486 669 OFFCURVE",
"440 636 OFFCURVE",
"396 636 CURVE SMOOTH",
"347 636 OFFCURVE",
"297 669 OFFCURVE",
"265 724 CURVE",
"195 677 LINE",
"242 597 OFFCURVE",
"333 547 OFFCURVE",
"434 547 CURVE SMOOTH",
"535 547 OFFCURVE",
"626 597 OFFCURVE",
"673 677 CURVE",
"518 724 LINE"
);
}
);
width = 583;
}
);
unicode = 090D;
},
{
glyphname = "eShort-deva";
lastChange = "2014-09-28 11:15:52 +0000";
layers = (
{
layerId = "5BCE6BDF-3D16-43B2-91D3-33CD61D1CB11";
name = Regular;
paths = (
{
closed = 1;
nodes = (
"-10 500 LINE",
"-10 440 LINE",
"32 440 LINE",
"32 275 LINE SMOOTH",
"32 227 OFFCURVE",
"63 183 OFFCURVE",
"112 160 CURVE",
"212 105 LINE",
"261 82 OFFCURVE",
"292 44 OFFCURVE",
"292 5 CURVE SMOOTH",
"292 -27 OFFCURVE",
"268 -56 OFFCURVE",
"232 -65 CURVE",
"267 -125 LINE",
"367 -108 OFFCURVE",
"439 -57 OFFCURVE",
"439 -5 CURVE SMOOTH",
"439 22 OFFCURVE",
"405 50 OFFCURVE",
"318 106 CURVE SMOOTH",
"291 123 OFFCURVE",
"259 142 OFFCURVE",
"222 165 CURVE",
"195 177 OFFCURVE",
"179 210 OFFCURVE",
"179 250 CURVE SMOOTH",
"179 440 LINE",
"302 440 LINE",
"325 421 OFFCURVE",
"337 383 OFFCURVE",
"337 335 CURVE SMOOTH",
"337 294 OFFCURVE",
"312 253 OFFCURVE",
"272 230 CURVE",
"307 180 LINE",
"410 199 OFFCURVE",
"484 265 OFFCURVE",
"484 340 CURVE SMOOTH",
"484 372 OFFCURVE",
"469 408 OFFCURVE",
"442 440 CURVE",
"515 440 LINE",
"515 500 LINE"
);
},
{
closed = 1;
nodes = (
"12 707 LINE",
"43 640 OFFCURVE",
"106 598 OFFCURVE",
"173 598 CURVE SMOOTH",
"223 598 LINE SMOOTH",
"251 598 OFFCURVE",
"284 559 OFFCURVE",
"305 502 CURVE",
"445 502 LINE",
"416 582 OFFCURVE",
"338 636 OFFCURVE",
"253 636 CURVE SMOOTH",
"183 636 LINE SMOOTH",
"142 636 OFFCURVE",
"97 683 OFFCURVE",
"72 754 CURVE"
);
}
);
width = 505;
},
{
layerId = "DF715B94-208D-4FDD-A2D8-DFDAF561BFB9";
name = Bold;
paths = (
{
closed = 1;
nodes = (
"-10 500 LINE",
"-10 420 LINE",
"30 420 LINE",
"30 255 LINE SMOOTH",
"30 207 OFFCURVE",
"61 163 OFFCURVE",
"110 140 CURVE SMOOTH",
"230 85 LINE SMOOTH",
"275 64 OFFCURVE",
"305 23 OFFCURVE",
"305 -20 CURVE SMOOTH",
"305 -47 OFFCURVE",
"282 -71 OFFCURVE",
"250 -80 CURVE",
"300 -145 LINE",
"424 -124 OFFCURVE",
"515 -71 OFFCURVE",
"515 -20 CURVE SMOOTH",
"515 9 OFFCURVE",
"472 49 OFFCURVE",
"405 80 CURVE",
"363 102 OFFCURVE",
"322 123 OFFCURVE",
"280 145 CURVE SMOOTH",
"249 160 OFFCURVE",
"230 193 OFFCURVE",
"230 230 CURVE SMOOTH",
"230 420 LINE",
"320 420 LINE",
"343 401 OFFCURVE",
"355 360 OFFCURVE",
"355 305 CURVE SMOOTH",
"355 270 OFFCURVE",
"336 237 OFFCURVE",
"305 220 CURVE",
"385 160 LINE",
"489 179 OFFCURVE",
"565 245 OFFCURVE",
"565 320 CURVE SMOOTH",
"565 343 OFFCURVE",
"549 379 OFFCURVE",
"520 420 CURVE",
"593 420 LINE",
"593 500 LINE"
);
},
{
closed = 1;
nodes = (
"-16 702 LINE",
"25 630 OFFCURVE",
"102 585 OFFCURVE",
"185 585 CURVE SMOOTH",
"236 585 LINE SMOOTH",
"287 585 OFFCURVE",
"327 547 OFFCURVE",
"327 500 CURVE",
"527 500 LINE",
"527 595 OFFCURVE",
"396 671 OFFCURVE",
"235 671 CURVE SMOOTH",
"185 671 LINE SMOOTH",
"133 671 OFFCURVE",
"83 702 OFFCURVE",
"54 754 CURVE"
);
}
);
width = 583;
}
);
unicode = 090E;
},
{
glyphname = "e-deva";
lastChange = "2014-09-28 11:15:52 +0000";
layers = (
{
layerId = "5BCE6BDF-3D16-43B2-91D3-33CD61D1CB11";
name = Regular;
paths = (
{
closed = 1;
nodes = (
"-10 500 LINE",
"-10 440 LINE",
"32 440 LINE",
"32 275 LINE SMOOTH",
"32 227 OFFCURVE",
"63 183 OFFCURVE",
"112 160 CURVE",
"212 105 LINE",
"261 82 OFFCURVE",
"292 44 OFFCURVE",
"292 5 CURVE SMOOTH",
"292 -27 OFFCURVE",
"268 -56 OFFCURVE",
"232 -65 CURVE",
"267 -125 LINE",
"367 -108 OFFCURVE",
"439 -57 OFFCURVE",
"439 -5 CURVE SMOOTH",
"439 26 OFFCURVE",
"379 70 OFFCURVE",
"327 100 CURVE",
"292 122 OFFCURVE",
"257 143 OFFCURVE",
"222 165 CURVE",
"195 177 OFFCURVE",
"179 210 OFFCURVE",
"179 250 CURVE SMOOTH",
"179 440 LINE",
"302 440 LINE",
"325 421 OFFCURVE",
"337 383 OFFCURVE",
"337 335 CURVE SMOOTH",
"337 294 OFFCURVE",
"312 253 OFFCURVE",
"272 230 CURVE",
"307 180 LINE",
"410 199 OFFCURVE",
"484 265 OFFCURVE",
"484 340 CURVE SMOOTH",
"484 372 OFFCURVE",
"469 408 OFFCURVE",
"442 440 CURVE",
"515 440 LINE",
"515 500 LINE"
);
}
);
width = 505;
},
{
layerId = "DF715B94-208D-4FDD-A2D8-DFDAF561BFB9";
name = Bold;
paths = (
{
closed = 1;
nodes = (
"-10 500 LINE",
"-10 420 LINE",
"30 420 LINE",
"30 255 LINE SMOOTH",
"30 207 OFFCURVE",
"61 163 OFFCURVE",
"110 140 CURVE SMOOTH",
"230 85 LINE SMOOTH",
"275 64 OFFCURVE",
"305 23 OFFCURVE",
"305 -20 CURVE SMOOTH",
"305 -47 OFFCURVE",
"282 -71 OFFCURVE",
"250 -80 CURVE",
"300 -145 LINE",
"424 -124 OFFCURVE",
"515 -71 OFFCURVE",
"515 -20 CURVE SMOOTH",
"515 9 OFFCURVE",
"472 49 OFFCURVE",
"405 80 CURVE",
"363 102 OFFCURVE",
"322 123 OFFCURVE",
"280 145 CURVE SMOOTH",
"249 160 OFFCURVE",
"230 193 OFFCURVE",
"230 230 CURVE SMOOTH",
"230 420 LINE",
"320 420 LINE",
"343 401 OFFCURVE",
"355 360 OFFCURVE",
"355 305 CURVE SMOOTH",
"355 270 OFFCURVE",
"336 237 OFFCURVE",
"305 220 CURVE",
"385 160 LINE",
"489 179 OFFCURVE",
"565 245 OFFCURVE",
"565 320 CURVE SMOOTH",
"565 343 OFFCURVE",
"549 379 OFFCURVE",
"520 420 CURVE",
"593 420 LINE",
"593 500 LINE"
);
}
);
width = 583;
}
);
unicode = 090F;
},
{
glyphname = "ai-deva";
lastChange = "2014-09-28 11:15:52 +0000";
layers = (
{
layerId = "5BCE6BDF-3D16-43B2-91D3-33CD61D1CB11";
name = Regular;
paths = (
{
closed = 1;
nodes = (
"-10 500 LINE",
"-10 440 LINE",
"32 440 LINE",
"32 275 LINE SMOOTH",
"32 227 OFFCURVE",
"63 183 OFFCURVE",
"112 160 CURVE",
"212 105 LINE",
"261 82 OFFCURVE",
"292 44 OFFCURVE",
"292 5 CURVE SMOOTH",
"292 -27 OFFCURVE",
"268 -56 OFFCURVE",
"232 -65 CURVE",
"267 -125 LINE",
"367 -108 OFFCURVE",
"439 -57 OFFCURVE",
"439 -5 CURVE SMOOTH",
"439 26 OFFCURVE",
"379 70 OFFCURVE",
"327 100 CURVE",
"292 122 OFFCURVE",
"257 143 OFFCURVE",
"222 165 CURVE",
"195 177 OFFCURVE",
"179 210 OFFCURVE",
"179 250 CURVE SMOOTH",
"179 440 LINE",
"302 440 LINE",
"325 421 OFFCURVE",
"337 383 OFFCURVE",
"337 335 CURVE SMOOTH",
"337 294 OFFCURVE",
"312 253 OFFCURVE",
"272 230 CURVE",
"307 180 LINE",
"410 199 OFFCURVE",
"484 265 OFFCURVE",
"484 340 CURVE SMOOTH",
"484 372 OFFCURVE",
"469 408 OFFCURVE",
"442 440 CURVE",
"515 440 LINE",
"515 500 LINE"
);
},
{
closed = 1;
nodes = (
"85 750 LINE",
"85 685 LINE",
"135 685 LINE SMOOTH",
"150 685 OFFCURVE",
"164 676 OFFCURVE",
"175 660 CURVE",
"270 540 LINE",
"287 515 OFFCURVE",
"308 500 OFFCURVE",
"325 500 CURVE SMOOTH",
"420 500 LINE",
"420 565 LINE",
"396 565 OFFCURVE",
"376 574 OFFCURVE",
"365 590 CURVE",
"290 690 LINE SMOOTH",
"263 727 OFFCURVE",
"234 750 OFFCURVE",
"210 750 CURVE SMOOTH"
);
}
);
width = 505;
},
{
layerId = "DF715B94-208D-4FDD-A2D8-DFDAF561BFB9";
name = Bold;
paths = (
{
closed = 1;
nodes = (
"-10 500 LINE",
"-10 420 LINE",
"30 420 LINE",
"30 255 LINE SMOOTH",
"30 207 OFFCURVE",
"61 163 OFFCURVE",
"110 140 CURVE SMOOTH",
"230 85 LINE SMOOTH",
"275 64 OFFCURVE",
"305 23 OFFCURVE",
"305 -20 CURVE SMOOTH",
"305 -47 OFFCURVE",
"282 -71 OFFCURVE",
"250 -80 CURVE",
"300 -145 LINE",
"424 -124 OFFCURVE",
"515 -71 OFFCURVE",
"515 -20 CURVE SMOOTH",
"515 9 OFFCURVE",
"472 49 OFFCURVE",
"405 80 CURVE",
"363 102 OFFCURVE",
"322 123 OFFCURVE",
"280 145 CURVE SMOOTH",
"249 160 OFFCURVE",
"230 193 OFFCURVE",
"230 230 CURVE SMOOTH",
"230 420 LINE",
"320 420 LINE",
"343 401 OFFCURVE",
"355 360 OFFCURVE",
"355 305 CURVE SMOOTH",
"355 270 OFFCURVE",
"336 237 OFFCURVE",
"305 220 CURVE",
"385 160 LINE",
"489 179 OFFCURVE",
"565 245 OFFCURVE",
"565 320 CURVE SMOOTH",
"565 343 OFFCURVE",
"549 379 OFFCURVE",
"520 420 CURVE",
"593 420 LINE",
"593 500 LINE"
);
},
{
closed = 1;
nodes = (
"118 750 LINE",
"118 665 LINE",
"173 665 LINE SMOOTH",
"186 665 OFFCURVE",
"199 657 OFFCURVE",
"208 645 CURVE",
"293 540 LINE",
"310 515 OFFCURVE",
"333 500 OFFCURVE",
"353 500 CURVE SMOOTH",
"503 500 LINE",
"503 580 LINE",
"474 580 OFFCURVE",
"452 588 OFFCURVE",
"443 600 CURVE SMOOTH",
"363 700 LINE",
"342 732 OFFCURVE",
"311 750 OFFCURVE",
"283 750 CURVE SMOOTH"
);
}
);
width = 583;
}
);
unicode = 0910;
},
{
glyphname = "oCandra-deva";
lastChange = "2014-09-28 11:15:52 +0000";
layers = (
{
layerId = "5BCE6BDF-3D16-43B2-91D3-33CD61D1CB11";
name = Regular;
paths = (
{
closed = 1;
nodes = (
"410 500 LINE",
"410 440 LINE",
"450 440 LINE",
"450 210 LINE",
"395 210 LINE",
"378 249 OFFCURVE",
"347 275 OFFCURVE",
"315 280 CURVE",
"364 297 OFFCURVE",
"397 336 OFFCURVE",
"397 375 CURVE SMOOTH",
"397 444 OFFCURVE",
"313 500 OFFCURVE",
"210 500 CURVE SMOOTH",
"143 500 OFFCURVE",
"87 479 OFFCURVE",
"55 440 CURVE",
"95 405 LINE",
"122 428 OFFCURVE",
"150 440 OFFCURVE",
"175 440 CURVE SMOOTH",
"216 440 OFFCURVE",
"250 413 OFFCURVE",
"250 380 CURVE SMOOTH",
"250 336 OFFCURVE",
"209 300 OFFCURVE",
"160 300 CURVE",
"160 240 LINE",
"215 240 OFFCURVE",
"260 202 OFFCURVE",
"260 155 CURVE SMOOTH",
"260 111 OFFCURVE",
"219 75 OFFCURVE",
"170 75 CURVE SMOOTH",
"127 75 OFFCURVE",
"86 113 OFFCURVE",
"65 170 CURVE",
"10 150 LINE",
"34 62 OFFCURVE",
"120 0 OFFCURVE",
"220 0 CURVE SMOOTH",
"320 0 OFFCURVE",
"400 65 OFFCURVE",
"400 145 CURVE",
"450 145 LINE",
"450 0 LINE",
"590 0 LINE",
"590 440 LINE",
"660 440 LINE",
"660 500 LINE"
);
},
{
closed = 1;
nodes = (
"640 500 LINE",
"640 440 LINE",
"710 440 LINE",
"710 0 LINE",
"850 0 LINE",
"850 440 LINE",
"920 440 LINE",
"920 500 LINE"
);
},
{
closed = 1;
nodes = (
"848 689 OFFCURVE",
"794 656 OFFCURVE",
"738 656 CURVE SMOOTH",
"689 656 OFFCURVE",
"639 689 OFFCURVE",
"607 744 CURVE",
"547 697 LINE",
"588 626 OFFCURVE",
"680 582 OFFCURVE",
"788 582 CURVE SMOOTH",
"891 582 OFFCURVE",
"979 626 OFFCURVE",
"1020 697 CURVE",
"880 744 LINE"
);
}
);
width = 910;
},
{
layerId = "DF715B94-208D-4FDD-A2D8-DFDAF561BFB9";
name = Bold;
paths = (
{
closed = 1;
nodes = (
"478 500 LINE",
"478 420 LINE",
"498 420 LINE",
"498 220 LINE",
"443 220 LINE",
"434 247 OFFCURVE",
"403 269 OFFCURVE",
"363 280 CURVE",
"414 299 OFFCURVE",
"448 336 OFFCURVE",
"448 375 CURVE SMOOTH",
"448 444 OFFCURVE",
"347 500 OFFCURVE",
"223 500 CURVE SMOOTH",
"156 500 OFFCURVE",
"94 476 OFFCURVE",
"53 435 CURVE",
"103 385 LINE",
"135 408 OFFCURVE",
"163 420 OFFCURVE",
"183 420 CURVE SMOOTH",
"214 420 OFFCURVE",
"238 398 OFFCURVE",
"238 370 CURVE SMOOTH",
"238 337 OFFCURVE",
"204 310 OFFCURVE",
"163 310 CURVE",
"163 230 LINE",
"210 230 OFFCURVE",
"248 196 OFFCURVE",
"248 155 CURVE SMOOTH",
"248 122 OFFCURVE",
"214 95 OFFCURVE",
"173 95 CURVE SMOOTH",
"140 95 OFFCURVE",
"105 127 OFFCURVE",
"88 175 CURVE",
"8 150 LINE",
"32 62 OFFCURVE",
"121 0 OFFCURVE",
"228 0 CURVE SMOOTH",
"349 0 OFFCURVE",
"448 60 OFFCURVE",
"448 135 CURVE",
"498 135 LINE",
"498 0 LINE",
"698 0 LINE",
"698 420 LINE",
"763 420 LINE",
"763 500 LINE"
);
},
{
closed = 1;
nodes = (
"743 500 LINE",
"743 420 LINE",
"808 420 LINE",
"808 0 LINE",
"1008 0 LINE",
"1008 420 LINE",
"1073 420 LINE",
"1073 500 LINE"
);
},
{
closed = 1;
nodes = (
"966 669 OFFCURVE",
"920 636 OFFCURVE",
"876 636 CURVE SMOOTH",
"827 636 OFFCURVE",
"777 669 OFFCURVE",
"745 724 CURVE",
"675 677 LINE",
"722 597 OFFCURVE",
"813 547 OFFCURVE",
"914 547 CURVE SMOOTH",
"1015 547 OFFCURVE",
"1106 597 OFFCURVE",
"1153 677 CURVE",
"998 724 LINE"
);
}
);
width = 1063;
}
);
unicode = 0911;
},
{
glyphname = "oShort-deva";
lastChange = "2014-09-28 11:15:52 +0000";
layers = (
{
layerId = "5BCE6BDF-3D16-43B2-91D3-33CD61D1CB11";
name = Regular;
paths = (
{
closed = 1;
nodes = (
"410 500 LINE",
"410 440 LINE",
"450 440 LINE",
"450 210 LINE",
"395 210 LINE",
"378 249 OFFCURVE",
"347 275 OFFCURVE",
"315 280 CURVE",
"364 297 OFFCURVE",
"397 336 OFFCURVE",
"397 375 CURVE SMOOTH",
"397 444 OFFCURVE",
"313 500 OFFCURVE",
"210 500 CURVE SMOOTH",
"143 500 OFFCURVE",
"87 479 OFFCURVE",
"55 440 CURVE",
"95 405 LINE",
"122 428 OFFCURVE",
"150 440 OFFCURVE",
"175 440 CURVE SMOOTH",
"216 440 OFFCURVE",
"250 413 OFFCURVE",
"250 380 CURVE SMOOTH",
"250 336 OFFCURVE",
"209 300 OFFCURVE",
"160 300 CURVE",
"160 240 LINE",
"215 240 OFFCURVE",
"260 202 OFFCURVE",
"260 155 CURVE SMOOTH",
"260 111 OFFCURVE",
"219 75 OFFCURVE",
"170 75 CURVE SMOOTH",
"127 75 OFFCURVE",
"86 113 OFFCURVE",
"65 170 CURVE",
"10 150 LINE",
"34 62 OFFCURVE",
"120 0 OFFCURVE",
"220 0 CURVE SMOOTH",
"320 0 OFFCURVE",
"400 65 OFFCURVE",
"400 145 CURVE",
"450 145 LINE",
"450 0 LINE",
"590 0 LINE",
"590 440 LINE",
"660 440 LINE",
"660 500 LINE"
);
},
{
closed = 1;
nodes = (
"640 500 LINE",
"640 440 LINE",
"710 440 LINE",
"710 0 LINE",
"850 0 LINE",
"850 440 LINE",
"920 440 LINE",
"920 500 LINE"
);
},
{
closed = 1;
nodes = (
"417 707 LINE",
"448 640 OFFCURVE",
"511 598 OFFCURVE",
"578 598 CURVE SMOOTH",
"628 598 LINE SMOOTH",
"656 598 OFFCURVE",
"689 559 OFFCURVE",
"710 502 CURVE",
"850 502 LINE",
"821 582 OFFCURVE",
"743 636 OFFCURVE",
"658 636 CURVE SMOOTH",
"588 636 LINE SMOOTH",
"547 636 OFFCURVE",
"502 683 OFFCURVE",
"477 754 CURVE"
);
}
);
width = 910;
},
{
layerId = "DF715B94-208D-4FDD-A2D8-DFDAF561BFB9";
name = Bold;
paths = (
{
closed = 1;
nodes = (
"478 500 LINE",
"478 420 LINE",
"498 420 LINE",
"498 220 LINE",
"443 220 LINE",
"434 247 OFFCURVE",
"403 269 OFFCURVE",
"363 280 CURVE",
"414 299 OFFCURVE",
"448 336 OFFCURVE",
"448 375 CURVE SMOOTH",
"448 444 OFFCURVE",
"347 500 OFFCURVE",
"223 500 CURVE SMOOTH",
"156 500 OFFCURVE",
"94 476 OFFCURVE",
"53 435 CURVE",
"103 385 LINE",
"135 408 OFFCURVE",
"163 420 OFFCURVE",
"183 420 CURVE SMOOTH",
"214 420 OFFCURVE",
"238 398 OFFCURVE",
"238 370 CURVE SMOOTH",
"238 337 OFFCURVE",
"204 310 OFFCURVE",
"163 310 CURVE",
"163 230 LINE",
"210 230 OFFCURVE",
"248 196 OFFCURVE",
"248 155 CURVE SMOOTH",
"248 122 OFFCURVE",
"214 95 OFFCURVE",
"173 95 CURVE SMOOTH",
"140 95 OFFCURVE",
"105 127 OFFCURVE",
"88 175 CURVE",
"8 150 LINE",
"32 62 OFFCURVE",
"121 0 OFFCURVE",
"228 0 CURVE SMOOTH",
"349 0 OFFCURVE",
"448 60 OFFCURVE",
"448 135 CURVE",
"498 135 LINE",
"498 0 LINE",
"698 0 LINE",
"698 420 LINE",
"763 420 LINE",
"763 500 LINE"
);
},
{
closed = 1;
nodes = (
"743 500 LINE",
"743 420 LINE",
"808 420 LINE",
"808 0 LINE",
"1008 0 LINE",
"1008 420 LINE",
"1073 420 LINE",
"1073 500 LINE"
);
},
{
closed = 1;
nodes = (
"464 702 LINE",
"505 630 OFFCURVE",
"582 585 OFFCURVE",
"665 585 CURVE SMOOTH",
"716 585 LINE SMOOTH",
"767 585 OFFCURVE",
"807 547 OFFCURVE",
"807 500 CURVE",
"1007 500 LINE",
"1007 595 OFFCURVE",
"876 671 OFFCURVE",
"715 671 CURVE SMOOTH",
"665 671 LINE SMOOTH",
"613 671 OFFCURVE",
"563 702 OFFCURVE",
"534 754 CURVE"
);
}
);
width = 1063;
}
);
unicode = 0912;
},
{
glyphname = "o-deva";
lastChange = "2014-09-28 11:15:52 +0000";
layers = (
{
layerId = "5BCE6BDF-3D16-43B2-91D3-33CD61D1CB11";
name = Regular;
paths = (
{
closed = 1;
nodes = (
"410 500 LINE",
"410 440 LINE",
"450 440 LINE",
"450 210 LINE",
"395 210 LINE",
"378 249 OFFCURVE",
"347 275 OFFCURVE",
"315 280 CURVE",
"364 297 OFFCURVE",
"397 336 OFFCURVE",
"397 375 CURVE SMOOTH",
"397 444 OFFCURVE",
"313 500 OFFCURVE",
"210 500 CURVE SMOOTH",
"143 500 OFFCURVE",
"87 479 OFFCURVE",
"55 440 CURVE",
"95 405 LINE",
"122 428 OFFCURVE",
"150 440 OFFCURVE",
"175 440 CURVE SMOOTH",
"216 440 OFFCURVE",
"250 413 OFFCURVE",
"250 380 CURVE SMOOTH",
"250 336 OFFCURVE",
"209 300 OFFCURVE",
"160 300 CURVE",
"160 240 LINE",
"215 240 OFFCURVE",
"260 202 OFFCURVE",
"260 155 CURVE SMOOTH",
"260 111 OFFCURVE",
"219 75 OFFCURVE",
"170 75 CURVE SMOOTH",
"127 75 OFFCURVE",
"86 113 OFFCURVE",
"65 170 CURVE",
"10 150 LINE",
"34 62 OFFCURVE",
"120 0 OFFCURVE",
"220 0 CURVE SMOOTH",
"320 0 OFFCURVE",
"400 65 OFFCURVE",
"400 145 CURVE",
"450 145 LINE",
"450 0 LINE",
"590 0 LINE",
"590 440 LINE",
"660 440 LINE",
"660 500 LINE"
);
},
{
closed = 1;
nodes = (
"640 500 LINE",
"640 440 LINE",
"710 440 LINE",
"710 0 LINE",
"850 0 LINE",
"850 440 LINE",
"920 440 LINE",
"920 500 LINE"
);
},
{
closed = 1;
nodes = (
"490 750 LINE",
"490 685 LINE",
"540 685 LINE SMOOTH",
"555 685 OFFCURVE",
"569 676 OFFCURVE",
"580 660 CURVE",
"675 540 LINE",
"692 515 OFFCURVE",
"713 500 OFFCURVE",
"730 500 CURVE SMOOTH",
"825 500 LINE",
"825 565 LINE",
"801 565 OFFCURVE",
"781 574 OFFCURVE",
"770 590 CURVE",
"695 690 LINE SMOOTH",
"668 727 OFFCURVE",
"639 750 OFFCURVE",
"615 750 CURVE SMOOTH"
);
}
);
width = 910;
},
{
layerId = "DF715B94-208D-4FDD-A2D8-DFDAF561BFB9";
name = Bold;
paths = (
{
closed = 1;
nodes = (
"478 500 LINE",
"478 420 LINE",
"498 420 LINE",
"498 220 LINE",
"443 220 LINE",
"434 247 OFFCURVE",
"403 269 OFFCURVE",
"363 280 CURVE",
"414 299 OFFCURVE",
"448 336 OFFCURVE",
"448 375 CURVE SMOOTH",
"448 444 OFFCURVE",
"347 500 OFFCURVE",
"223 500 CURVE SMOOTH",
"156 500 OFFCURVE",
"94 476 OFFCURVE",
"53 435 CURVE",
"103 385 LINE",
"135 408 OFFCURVE",
"163 420 OFFCURVE",
"183 420 CURVE SMOOTH",
"214 420 OFFCURVE",
"238 398 OFFCURVE",
"238 370 CURVE SMOOTH",
"238 337 OFFCURVE",
"204 310 OFFCURVE",
"163 310 CURVE",
"163 230 LINE",
"210 230 OFFCURVE",
"248 196 OFFCURVE",
"248 155 CURVE SMOOTH",
"248 122 OFFCURVE",
"214 95 OFFCURVE",
"173 95 CURVE SMOOTH",
"140 95 OFFCURVE",
"105 127 OFFCURVE",
"88 175 CURVE",
"8 150 LINE",
"32 62 OFFCURVE",
"121 0 OFFCURVE",
"228 0 CURVE SMOOTH",
"349 0 OFFCURVE",
"448 60 OFFCURVE",
"448 135 CURVE",
"498 135 LINE",
"498 0 LINE",
"698 0 LINE",
"698 420 LINE",
"763 420 LINE",
"763 500 LINE"
);
},
{
closed = 1;
nodes = (
"743 500 LINE",
"743 420 LINE",
"808 420 LINE",
"808 0 LINE",
"1008 0 LINE",
"1008 420 LINE",
"1073 420 LINE",
"1073 500 LINE"
);
},
{
closed = 1;
nodes = (
"598 750 LINE",
"598 665 LINE",
"653 665 LINE SMOOTH",
"666 665 OFFCURVE",
"679 657 OFFCURVE",
"688 645 CURVE",
"773 540 LINE",
"790 515 OFFCURVE",
"813 500 OFFCURVE",
"833 500 CURVE SMOOTH",
"983 500 LINE",
"983 580 LINE",
"954 580 OFFCURVE",
"932 588 OFFCURVE",
"923 600 CURVE SMOOTH",
"843 700 LINE",
"822 732 OFFCURVE",
"791 750 OFFCURVE",
"763 750 CURVE SMOOTH"
);
}
);
width = 1063;
}
);
unicode = 0913;
},
{
glyphname = "au-deva";
lastChange = "2014-09-28 11:15:52 +0000";
layers = (
{
layerId = "5BCE6BDF-3D16-43B2-91D3-33CD61D1CB11";
name = Regular;
paths = (
{
closed = 1;
nodes = (
"410 500 LINE",
"410 440 LINE",
"450 440 LINE",
"450 210 LINE",
"395 210 LINE",
"378 249 OFFCURVE",
"347 275 OFFCURVE",
"315 280 CURVE",
"364 297 OFFCURVE",
"397 336 OFFCURVE",
"397 375 CURVE SMOOTH",
"397 444 OFFCURVE",
"313 500 OFFCURVE",
"210 500 CURVE SMOOTH",
"143 500 OFFCURVE",
"87 479 OFFCURVE",
"55 440 CURVE",
"95 405 LINE",
"122 428 OFFCURVE",
"150 440 OFFCURVE",
"175 440 CURVE SMOOTH",
"216 440 OFFCURVE",
"250 413 OFFCURVE",
"250 380 CURVE SMOOTH",
"250 336 OFFCURVE",
"209 300 OFFCURVE",
"160 300 CURVE",
"160 240 LINE",
"215 240 OFFCURVE",
"260 202 OFFCURVE",
"260 155 CURVE SMOOTH",
"260 111 OFFCURVE",
"219 75 OFFCURVE",
"170 75 CURVE SMOOTH",
"127 75 OFFCURVE",
"86 113 OFFCURVE",
"65 170 CURVE",
"10 150 LINE",
"34 62 OFFCURVE",
"120 0 OFFCURVE",
"220 0 CURVE SMOOTH",
"320 0 OFFCURVE",
"400 65 OFFCURVE",
"400 145 CURVE",
"450 145 LINE",
"450 0 LINE",
"590 0 LINE",
"590 440 LINE",
"660 440 LINE",
"660 500 LINE"
);
},
{
closed = 1;
nodes = (
"640 500 LINE",
"640 440 LINE",
"710 440 LINE",
"710 0 LINE",
"850 0 LINE",
"850 440 LINE",
"920 440 LINE",
"920 500 LINE"
);
},
{
closed = 1;
nodes = (
"464 700 LINE",
"464 635 LINE",
"494 635 LINE SMOOTH",
"498 635 OFFCURVE",
"503 633 OFFCURVE",
"510 629 CURVE",
"516 625 OFFCURVE",
"524 619 OFFCURVE",
"534 610 CURVE",
"649 515 LINE",
"661 506 OFFCURVE",
"674 500 OFFCURVE",
"689 500 CURVE SMOOTH",
"754 500 LINE",
"754 561 LINE",
"729 561 LINE SMOOTH",
"720 561 OFFCURVE",
"702 574 OFFCURVE",
"689 585 CURVE SMOOTH",
"576 679 LINE",
"550 698 OFFCURVE",
"546 700 OFFCURVE",
"539 700 CURVE SMOOTH"
);
},
{
closed = 1;
nodes = (
"609 750 LINE",
"609 685 LINE",
"634 685 LINE SMOOTH",
"650 685 OFFCURVE",
"668 671 OFFCURVE",
"684 650 CURVE SMOOTH",
"779 530 LINE SMOOTH",
"794 511 OFFCURVE",
"812 500 OFFCURVE",
"829 500 CURVE SMOOTH",
"879 500 LINE",
"879 565 LINE",
"864 565 OFFCURVE",
"851 573 OFFCURVE",
"844 585 CURVE",
"739 710 LINE",
"722 735 OFFCURVE",
"697 750 OFFCURVE",
"674 750 CURVE SMOOTH"
);
}
);
width = 910;
},
{
layerId = "DF715B94-208D-4FDD-A2D8-DFDAF561BFB9";
name = Bold;
paths = (
{
closed = 1;
nodes = (
"478 500 LINE",
"478 420 LINE",
"498 420 LINE",
"498 220 LINE",
"443 220 LINE",
"434 247 OFFCURVE",
"403 269 OFFCURVE",
"363 280 CURVE",
"414 299 OFFCURVE",
"448 336 OFFCURVE",
"448 375 CURVE SMOOTH",
"448 444 OFFCURVE",
"347 500 OFFCURVE",
"223 500 CURVE SMOOTH",
"156 500 OFFCURVE",
"94 476 OFFCURVE",
"53 435 CURVE",
"103 385 LINE",
"135 408 OFFCURVE",
"163 420 OFFCURVE",
"183 420 CURVE SMOOTH",
"214 420 OFFCURVE",
"238 398 OFFCURVE",
"238 370 CURVE SMOOTH",
"238 337 OFFCURVE",
"204 310 OFFCURVE",
"163 310 CURVE",
"163 230 LINE",
"210 230 OFFCURVE",
"248 196 OFFCURVE",
"248 155 CURVE SMOOTH",
"248 122 OFFCURVE",
"214 95 OFFCURVE",
"173 95 CURVE SMOOTH",
"140 95 OFFCURVE",
"105 127 OFFCURVE",
"88 175 CURVE",
"8 150 LINE",
"32 62 OFFCURVE",
"121 0 OFFCURVE",
"228 0 CURVE SMOOTH",
"349 0 OFFCURVE",
"448 60 OFFCURVE",
"448 135 CURVE",
"498 135 LINE",
"498 0 LINE",
"698 0 LINE",
"698 420 LINE",
"763 420 LINE",
"763 500 LINE"
);
},
{
closed = 1;
nodes = (
"743 500 LINE",
"743 420 LINE",
"808 420 LINE",
"808 0 LINE",
"1008 0 LINE",
"1008 420 LINE",
"1073 420 LINE",
"1073 500 LINE"
);
},
{
closed = 1;
nodes = (
"580 700 LINE",
"580 625 LINE",
"605 625 LINE SMOOTH",
"609 625 OFFCURVE",
"614 623 OFFCURVE",
"621 619 CURVE",
"627 615 OFFCURVE",
"635 609 OFFCURVE",
"645 600 CURVE SMOOTH",
"750 510 LINE",
"757 503 OFFCURVE",
"772 500 OFFCURVE",
"795 500 CURVE SMOOTH",
"895 500 LINE",
"895 565 LINE",
"870 565 LINE SMOOTH",
"857 565 OFFCURVE",
"843 572 OFFCURVE",
"830 585 CURVE",
"740 660 LINE",
"715 685 OFFCURVE",
"688 700 OFFCURVE",
"665 700 CURVE SMOOTH"
);
},
{
closed = 1;
nodes = (
"760 750 LINE",
"760 675 LINE",
"785 675 LINE SMOOTH",
"805 675 OFFCURVE",
"824 664 OFFCURVE",
"835 645 CURVE",
"930 525 LINE",
"945 509 OFFCURVE",
"960 500 OFFCURVE",
"975 500 CURVE SMOOTH",
"1060 500 LINE",
"1060 565 LINE",
"1045 565 OFFCURVE",
"1032 573 OFFCURVE",
"1025 585 CURVE",
"925 715 LINE",
"913 736 OFFCURVE",
"889 750 OFFCURVE",
"865 750 CURVE SMOOTH"
);
}
);
width = 1063;
}
);
unicode = 0914;
},
{
glyphname = "oe-deva";
lastChange = "2014-09-28 11:15:52 +0000";
layers = (
{
layerId = "5BCE6BDF-3D16-43B2-91D3-33CD61D1CB11";
name = Regular;
paths = (
{
closed = 1;
nodes = (
"410 500 LINE",
"410 440 LINE",
"450 440 LINE",
"450 210 LINE",
"395 210 LINE",
"378 249 OFFCURVE",
"347 275 OFFCURVE",
"315 280 CURVE",
"364 297 OFFCURVE",
"397 336 OFFCURVE",
"397 375 CURVE SMOOTH",
"397 444 OFFCURVE",
"313 500 OFFCURVE",
"210 500 CURVE SMOOTH",
"143 500 OFFCURVE",
"87 479 OFFCURVE",
"55 440 CURVE",
"95 405 LINE",
"122 428 OFFCURVE",
"150 440 OFFCURVE",
"175 440 CURVE SMOOTH",
"216 440 OFFCURVE",
"250 413 OFFCURVE",
"250 380 CURVE SMOOTH",
"250 336 OFFCURVE",
"209 300 OFFCURVE",
"160 300 CURVE",
"160 240 LINE",
"215 240 OFFCURVE",
"260 202 OFFCURVE",
"260 155 CURVE SMOOTH",
"260 111 OFFCURVE",
"219 75 OFFCURVE",
"170 75 CURVE SMOOTH",
"127 75 OFFCURVE",
"86 113 OFFCURVE",
"65 170 CURVE",
"10 150 LINE",
"34 62 OFFCURVE",
"120 0 OFFCURVE",
"220 0 CURVE SMOOTH",
"320 0 OFFCURVE",
"400 65 OFFCURVE",
"400 145 CURVE",
"450 145 LINE",
"450 0 LINE",
"590 0 LINE",
"590 440 LINE",
"660 440 LINE",
"660 500 LINE"
);
},
{
closed = 1;
nodes = (
"448 650 LINE",
"448 510 LINE",
"588 510 LINE",
"588 650 LINE"
);
}
);
width = 650;
},
{
layerId = "DF715B94-208D-4FDD-A2D8-DFDAF561BFB9";
name = Bold;
paths = (
{
closed = 1;
nodes = (
"478 500 LINE",
"478 420 LINE",
"498 420 LINE",
"498 220 LINE",
"443 220 LINE",
"434 247 OFFCURVE",
"403 269 OFFCURVE",
"363 280 CURVE",
"414 299 OFFCURVE",
"448 336 OFFCURVE",
"448 375 CURVE SMOOTH",
"448 444 OFFCURVE",
"347 500 OFFCURVE",
"223 500 CURVE SMOOTH",
"156 500 OFFCURVE",
"94 476 OFFCURVE",
"53 435 CURVE",
"103 385 LINE",
"135 408 OFFCURVE",
"163 420 OFFCURVE",
"183 420 CURVE SMOOTH",
"214 420 OFFCURVE",
"238 398 OFFCURVE",
"238 370 CURVE SMOOTH",
"238 337 OFFCURVE",
"204 310 OFFCURVE",
"163 310 CURVE",
"163 230 LINE",
"210 230 OFFCURVE",
"248 196 OFFCURVE",
"248 155 CURVE SMOOTH",
"248 122 OFFCURVE",
"214 95 OFFCURVE",
"173 95 CURVE SMOOTH",
"140 95 OFFCURVE",
"105 127 OFFCURVE",
"88 175 CURVE",
"8 150 LINE",
"32 62 OFFCURVE",
"121 0 OFFCURVE",
"228 0 CURVE SMOOTH",
"349 0 OFFCURVE",
"448 60 OFFCURVE",
"448 135 CURVE",
"498 135 LINE",
"498 0 LINE",
"698 0 LINE",
"698 420 LINE",
"763 420 LINE",
"763 500 LINE"
);
},
{
closed = 1;
nodes = (
"497 620 LINE",
"497 500 LINE",
"697 500 LINE",
"697 620 LINE"
);
}
);
width = 753;
}
);
unicode = 0973;
},
{
glyphname = "ooe-deva";
lastChange = "2014-09-28 11:15:52 +0000";
layers = (
{
layerId = "5BCE6BDF-3D16-43B2-91D3-33CD61D1CB11";
name = Regular;
paths = (
{
closed = 1;
nodes = (
"410 500 LINE",
"410 440 LINE",
"450 440 LINE",
"450 210 LINE",
"395 210 LINE",
"378 249 OFFCURVE",
"347 275 OFFCURVE",
"315 280 CURVE",
"364 297 OFFCURVE",
"397 336 OFFCURVE",
"397 375 CURVE SMOOTH",
"397 444 OFFCURVE",
"313 500 OFFCURVE",
"210 500 CURVE SMOOTH",
"143 500 OFFCURVE",
"87 479 OFFCURVE",
"55 440 CURVE",
"95 405 LINE",
"122 428 OFFCURVE",
"150 440 OFFCURVE",
"175 440 CURVE SMOOTH",
"216 440 OFFCURVE",
"250 413 OFFCURVE",
"250 380 CURVE SMOOTH",
"250 336 OFFCURVE",
"209 300 OFFCURVE",
"160 300 CURVE",
"160 240 LINE",
"215 240 OFFCURVE",
"260 202 OFFCURVE",
"260 155 CURVE SMOOTH",
"260 111 OFFCURVE",
"219 75 OFFCURVE",
"170 75 CURVE SMOOTH",
"127 75 OFFCURVE",
"86 113 OFFCURVE",
"65 170 CURVE",
"10 150 LINE",
"34 62 OFFCURVE",
"120 0 OFFCURVE",
"220 0 CURVE SMOOTH",
"320 0 OFFCURVE",
"400 65 OFFCURVE",
"400 145 CURVE",
"450 145 LINE",
"450 0 LINE",
"590 0 LINE",
"590 440 LINE",
"660 440 LINE",
"660 500 LINE"
);
},
{
closed = 1;
nodes = (
"640 500 LINE",
"640 440 LINE",
"710 440 LINE",
"710 0 LINE",
"850 0 LINE",
"850 440 LINE",
"920 440 LINE",
"920 500 LINE"
);
},
{
closed = 1;
nodes = (
"708 650 LINE",
"708 510 LINE",
"848 510 LINE",
"848 650 LINE"
);
}
);
width = 910;
},
{
layerId = "DF715B94-208D-4FDD-A2D8-DFDAF561BFB9";
name = Bold;
paths = (
{
closed = 1;
nodes = (
"478 500 LINE",
"478 420 LINE",
"498 420 LINE",
"498 220 LINE",
"443 220 LINE",
"434 247 OFFCURVE",
"403 269 OFFCURVE",
"363 280 CURVE",
"414 299 OFFCURVE",
"448 336 OFFCURVE",
"448 375 CURVE SMOOTH",
"448 444 OFFCURVE",
"347 500 OFFCURVE",
"223 500 CURVE SMOOTH",
"156 500 OFFCURVE",
"94 476 OFFCURVE",
"53 435 CURVE",
"103 385 LINE",
"135 408 OFFCURVE",
"163 420 OFFCURVE",
"183 420 CURVE SMOOTH",
"214 420 OFFCURVE",
"238 398 OFFCURVE",
"238 370 CURVE SMOOTH",
"238 337 OFFCURVE",
"204 310 OFFCURVE",
"163 310 CURVE",
"163 230 LINE",
"210 230 OFFCURVE",
"248 196 OFFCURVE",
"248 155 CURVE SMOOTH",
"248 122 OFFCURVE",
"214 95 OFFCURVE",
"173 95 CURVE SMOOTH",
"140 95 OFFCURVE",
"105 127 OFFCURVE",
"88 175 CURVE",
"8 150 LINE",
"32 62 OFFCURVE",
"121 0 OFFCURVE",
"228 0 CURVE SMOOTH",
"349 0 OFFCURVE",
"448 60 OFFCURVE",
"448 135 CURVE",
"498 135 LINE",
"498 0 LINE",
"698 0 LINE",
"698 420 LINE",
"763 420 LINE",
"763 500 LINE"
);
},
{
closed = 1;
nodes = (
"743 500 LINE",
"743 420 LINE",
"808 420 LINE",
"808 0 LINE",
"1008 0 LINE",
"1008 420 LINE",
"1073 420 LINE",
"1073 500 LINE"
);
},
{
closed = 1;
nodes = (
"807 620 LINE",
"807 500 LINE",
"1007 500 LINE",
"1007 620 LINE"
);
}
);
width = 1063;
}
);
unicode = 0974;
},
{
glyphname = "aw-deva";
lastChange = "2014-09-28 11:45:23 +0000";
layers = (
{
layerId = "5BCE6BDF-3D16-43B2-91D3-33CD61D1CB11";
name = Regular;
paths = (
{
closed = 1;
nodes = (
"450 737 LINE",
"454 692 OFFCURVE",
"508 657 OFFCURVE",
"575 657 CURVE SMOOTH",
"588 657 OFFCURVE",
"608 658 OFFCURVE",
"633 660 CURVE",
"659 661 OFFCURVE",
"679 662 OFFCURVE",
"692 662 CURVE SMOOTH",
"741 662 OFFCURVE",
"782 588 OFFCURVE",
"782 500 CURVE",
"771 500 LINE",
"759 568 OFFCURVE",
"693 620 OFFCURVE",
"613 620 CURVE SMOOTH",
"602 620 OFFCURVE",
"587 619 OFFCURVE",
"567 618 CURVE",
"546 616 OFFCURVE",
"531 615 OFFCURVE",
"520 615 CURVE SMOOTH",
"487 615 OFFCURVE",
"460 633 OFFCURVE",
"456 657 CURVE",
"347 632 LINE",
"354 592 OFFCURVE",
"408 562 OFFCURVE",
"475 562 CURVE SMOOTH",
"490 562 OFFCURVE",
"511 563 OFFCURVE",
"540 566 CURVE SMOOTH",
"569 569 OFFCURVE",
"591 570 OFFCURVE",
"606 570 CURVE SMOOTH",
"641.398 570 OFFCURVE",
"671.961 539.061 OFFCURVE",
"677.727 500 CURVE",
"410 500 LINE",
"410 440 LINE",
"450 440 LINE",
"450 210 LINE",
"395 210 LINE",
"378 249 OFFCURVE",
"347 275 OFFCURVE",
"315 280 CURVE",
"364 297 OFFCURVE",
"397 336 OFFCURVE",
"397 375 CURVE SMOOTH",
"397 444 OFFCURVE",
"313 500 OFFCURVE",
"210 500 CURVE SMOOTH",
"143 500 OFFCURVE",
"86.9998 479 OFFCURVE",
"54.9998 440 CURVE",
"94.9998 405 LINE",
"122 428 OFFCURVE",
"150 440 OFFCURVE",
"175 440 CURVE SMOOTH",
"216 440 OFFCURVE",
"250 413 OFFCURVE",
"250 380 CURVE SMOOTH",
"250 336 OFFCURVE",
"209 300 OFFCURVE",
"160 300 CURVE",
"160 240 LINE",
"215 240 OFFCURVE",
"260 202 OFFCURVE",
"260 155 CURVE SMOOTH",
"260 111 OFFCURVE",
"219 75 OFFCURVE",
"170 75 CURVE SMOOTH",
"127 75 OFFCURVE",
"85.9998 113 OFFCURVE",
"64.9998 170 CURVE",
"9.9998 150 LINE",
"33.9998 62 OFFCURVE",
"120 0 OFFCURVE",
"220 0 CURVE SMOOTH",
"320 0 OFFCURVE",
"400 65 OFFCURVE",
"400 145 CURVE",
"450 145 LINE",
"450 0 LINE",
"590 0 LINE",
"590 440 LINE",
"710 440 LINE",
"710 0 LINE",
"850 0 LINE",
"850 440 LINE",
"920 440 LINE",
"920 500 LINE",
"880.992 500 LINE",
"880.03 616.126 OFFCURVE",
"795.407 714 OFFCURVE",
"692 714 CURVE SMOOTH",
"682 714 OFFCURVE",
"667 713 OFFCURVE",
"646 712 CURVE",
"625 710 OFFCURVE",
"610 709 OFFCURVE",
"600 709 CURVE SMOOTH",
"572 709 OFFCURVE",
"550 732 OFFCURVE",
"550 760 CURVE"
);
}
);
width = 910;
},
{
background = {
paths = (
{
closed = 1;
nodes = (
"504 752 LINE",
"525 716 OFFCURVE",
"567 691 OFFCURVE",
"621 680 CURVE SMOOTH",
"640 677 OFFCURVE",
"660 675 OFFCURVE",
"681 675 CURVE SMOOTH",
"701 675 OFFCURVE",
"719 671 OFFCURVE",
"736 665 CURVE SMOOTH",
"756 656 OFFCURVE",
"772 643 OFFCURVE",
"781 626 CURVE",
"785 618 LINE",
"762 620 OFFCURVE",
"739 621 OFFCURVE",
"715 621 CURVE SMOOTH",
"665 621 LINE SMOOTH",
"646 621 OFFCURVE",
"627 624 OFFCURVE",
"611 628 CURVE SMOOTH",
"577 638 OFFCURVE",
"549 658 OFFCURVE",
"534 684 CURVE",
"464 632 LINE",
"487 592 OFFCURVE",
"529 562 OFFCURVE",
"581 547 CURVE SMOOTH",
"607 539 OFFCURVE",
"635 535 OFFCURVE",
"665 535 CURVE SMOOTH",
"716 535 LINE SMOOTH",
"765 535 OFFCURVE",
"804 520 OFFCURVE",
"807 500 CURVE",
"478 500 LINE",
"478 420 LINE",
"498 420 LINE",
"498 220 LINE",
"443 220 LINE",
"434 247 OFFCURVE",
"403 269 OFFCURVE",
"363 280 CURVE",
"414 299 OFFCURVE",
"448 336 OFFCURVE",
"448 375 CURVE SMOOTH",
"448 444 OFFCURVE",
"347 500 OFFCURVE",
"223 500 CURVE SMOOTH",
"156 500 OFFCURVE",
"94 476 OFFCURVE",
"53 435 CURVE",
"103 385 LINE",
"135 408 OFFCURVE",
"163 420 OFFCURVE",
"183 420 CURVE SMOOTH",
"214 420 OFFCURVE",
"238 398 OFFCURVE",
"238 370 CURVE SMOOTH",
"238 337 OFFCURVE",
"204 310 OFFCURVE",
"163 310 CURVE",
"163 230 LINE",
"210 230 OFFCURVE",
"248 196 OFFCURVE",
"248 155 CURVE SMOOTH",
"248 122 OFFCURVE",
"214 95 OFFCURVE",
"173 95 CURVE SMOOTH",
"140 95 OFFCURVE",
"105 127 OFFCURVE",
"88 175 CURVE",
"8 150 LINE",
"32 62 OFFCURVE",
"121 0 OFFCURVE",
"228 0 CURVE SMOOTH",
"349 0 OFFCURVE",
"448 60 OFFCURVE",
"448 135 CURVE",
"498 135 LINE",
"498 0 LINE",
"698 0 LINE",
"698 420 LINE",
"808 420 LINE",
"808 0 LINE",
"1008 0 LINE",
"1008 420 LINE",
"1073 420 LINE",
"1073 500 LINE",
"1007 500 LINE",
"1007 592 OFFCURVE",
"932 671 OFFCURVE",
"825 704 CURVE SMOOTH",
"790 715 OFFCURVE",
"751 721 OFFCURVE",
"710 721 CURVE SMOOTH",
"685 721 OFFCURVE",
"661 727 OFFCURVE",
"639 739 CURVE SMOOTH",
"613 753 OFFCURVE",
"590 776 OFFCURVE",
"574 804 CURVE"
);
}
);
};
layerId = "DF715B94-208D-4FDD-A2D8-DFDAF561BFB9";
name = Bold;
paths = (
{
closed = 1;
nodes = (
"504 752 LINE",
"557 681 OFFCURVE",
"592 639 OFFCURVE",
"629 639 CURVE SMOOTH",
"652 639 OFFCURVE",
"676 640 OFFCURVE",
"706 644 CURVE SMOOTH",
"717 645 OFFCURVE",
"742 648 OFFCURVE",
"755 648 CURVE SMOOTH",
"785 648 OFFCURVE",
"836 653 OFFCURVE",
"916 500 CURVE",
"906 500 LINE",
"846 607 OFFCURVE",
"800 628 OFFCURVE",
"731 628 CURVE SMOOTH",
"710 628 OFFCURVE",
"689 624 OFFCURVE",
"665 621 CURVE SMOOTH",
"655 620 OFFCURVE",
"646 619 OFFCURVE",
"637 619 CURVE SMOOTH",
"580 619 OFFCURVE",
"557 645 OFFCURVE",
"534 684 CURVE",
"464 632 LINE",
"497 573 OFFCURVE",
"539 538 OFFCURVE",
"627 538 CURVE SMOOTH",
"638 538 OFFCURVE",
"651 539 OFFCURVE",
"665 540 CURVE SMOOTH",
"686 542 OFFCURVE",
"704 543 OFFCURVE",
"718 543 CURVE SMOOTH",
"778 543 OFFCURVE",
"793 527 OFFCURVE",
"807 500 CURVE",
"478 500 LINE",
"478 420 LINE",
"498 420 LINE",
"498 220 LINE",
"443 220 LINE",
"434 247 OFFCURVE",
"403 269 OFFCURVE",
"363 280 CURVE",
"414 299 OFFCURVE",
"448 336 OFFCURVE",
"448 375 CURVE SMOOTH",
"448 444 OFFCURVE",
"347 500 OFFCURVE",
"223 500 CURVE SMOOTH",
"156 500 OFFCURVE",
"94 476 OFFCURVE",
"53 435 CURVE",
"103 385 LINE",
"135 408 OFFCURVE",
"163 420 OFFCURVE",
"183 420 CURVE SMOOTH",
"214 420 OFFCURVE",
"238 398 OFFCURVE",
"238 370 CURVE SMOOTH",
"238 337 OFFCURVE",
"204 310 OFFCURVE",
"163 310 CURVE",
"163 230 LINE",
"210 230 OFFCURVE",
"248 196 OFFCURVE",
"248 155 CURVE SMOOTH",
"248 122 OFFCURVE",
"214 95 OFFCURVE",
"173 95 CURVE SMOOTH",
"140 95 OFFCURVE",
"105 127 OFFCURVE",
"88 175 CURVE",
"8 150 LINE",
"32 62 OFFCURVE",
"121 0 OFFCURVE",
"228 0 CURVE SMOOTH",
"349 0 OFFCURVE",
"448 60 OFFCURVE",
"448 135 CURVE",
"498 135 LINE",
"498 0 LINE",
"698 0 LINE",
"698 420 LINE",
"808 420 LINE",
"808 0 LINE",
"1008 0 LINE",
"1008 420 LINE",
"1073 420 LINE",
"1073 500 LINE",
"1007 500 LINE",
"949 695 OFFCURVE",
"848 727 OFFCURVE",
"773 727 CURVE SMOOTH",
"748 727 OFFCURVE",
"726 723 OFFCURVE",
"710 721 CURVE SMOOTH",
"693 719 OFFCURVE",
"680 716 OFFCURVE",
"667 716 CURVE SMOOTH",
"638 716 OFFCURVE",
"615 731 OFFCURVE",
"574 804 CURVE"
);
}
);
width = 1063;
}
);
unicode = 0975;
},
{
glyphname = "ue-deva";
lastChange = "2014-09-28 11:15:52 +0000";
layers = (
{
layerId = "5BCE6BDF-3D16-43B2-91D3-33CD61D1CB11";
name = Regular;
paths = (
{
closed = 1;
nodes = (
"410 500 LINE",
"410 440 LINE",
"450 440 LINE",
"450 210 LINE",
"395 210 LINE",
"378 249 OFFCURVE",
"347 275 OFFCURVE",
"315 280 CURVE",
"364 297 OFFCURVE",
"397 336 OFFCURVE",
"397 375 CURVE SMOOTH",
"397 444 OFFCURVE",
"313 500 OFFCURVE",
"210 500 CURVE SMOOTH",
"143 500 OFFCURVE",
"87 479 OFFCURVE",
"55 440 CURVE",
"95 405 LINE",
"122 428 OFFCURVE",
"150 440 OFFCURVE",
"175 440 CURVE SMOOTH",
"216 440 OFFCURVE",
"250 413 OFFCURVE",
"250 380 CURVE SMOOTH",
"250 336 OFFCURVE",
"209 300 OFFCURVE",
"160 300 CURVE",
"160 240 LINE",
"215 240 OFFCURVE",
"260 202 OFFCURVE",
"260 155 CURVE SMOOTH",
"260 111 OFFCURVE",
"219 75 OFFCURVE",
"170 75 CURVE SMOOTH",
"127 75 OFFCURVE",
"86 113 OFFCURVE",
"65 170 CURVE",
"10 150 LINE",
"34 62 OFFCURVE",
"120 0 OFFCURVE",
"220 0 CURVE SMOOTH",
"320 0 OFFCURVE",
"400 65 OFFCURVE",
"400 145 CURVE",
"450 145 LINE",
"450 0 LINE",
"590 0 LINE",
"590 440 LINE",
"660 440 LINE",
"660 500 LINE"
);
},
{
closed = 1;
nodes = (
"419 -94 OFFCURVE",
"356 -119 OFFCURVE",
"283 -119 CURVE SMOOTH",
"226 -119 OFFCURVE",
"176 -94 OFFCURVE",
"152 -51 CURVE",
"112 -68 LINE",
"155 -143 OFFCURVE",
"245 -188 OFFCURVE",
"348 -188 CURVE SMOOTH",
"452 -188 OFFCURVE",
"537 -159 OFFCURVE",
"580 -108 CURVE",
"455 -51 LINE"
);
}
);
width = 650;
},
{
layerId = "DF715B94-208D-4FDD-A2D8-DFDAF561BFB9";
name = Bold;
paths = (
{
closed = 1;
nodes = (
"478 500 LINE",
"478 420 LINE",
"498 420 LINE",
"498 220 LINE",
"443 220 LINE",
"434 247 OFFCURVE",
"403 269 OFFCURVE",
"363 280 CURVE",
"414 299 OFFCURVE",
"448 336 OFFCURVE",
"448 375 CURVE SMOOTH",
"448 444 OFFCURVE",
"347 500 OFFCURVE",
"223 500 CURVE SMOOTH",
"156 500 OFFCURVE",
"94 476 OFFCURVE",
"53 435 CURVE",
"103 385 LINE",
"135 408 OFFCURVE",
"163 420 OFFCURVE",
"183 420 CURVE SMOOTH",
"214 420 OFFCURVE",
"238 398 OFFCURVE",
"238 370 CURVE SMOOTH",
"238 337 OFFCURVE",
"204 310 OFFCURVE",
"163 310 CURVE",
"163 230 LINE",
"210 230 OFFCURVE",
"248 196 OFFCURVE",
"248 155 CURVE SMOOTH",
"248 122 OFFCURVE",
"214 95 OFFCURVE",
"173 95 CURVE SMOOTH",
"140 95 OFFCURVE",
"105 127 OFFCURVE",
"88 175 CURVE",
"8 150 LINE",
"32 62 OFFCURVE",
"121 0 OFFCURVE",
"228 0 CURVE SMOOTH",
"349 0 OFFCURVE",
"448 60 OFFCURVE",
"448 135 CURVE",
"498 135 LINE",
"498 0 LINE",
"698 0 LINE",
"698 420 LINE",
"763 420 LINE",
"763 500 LINE"
);
},
{
closed = 1;
nodes = (
"365 -88 OFFCURVE",
"321 -101 OFFCURVE",
"266 -101 CURVE SMOOTH",
"205 -101 OFFCURVE",
"158 -88 OFFCURVE",
"135 -65 CURVE",
"65 -100 LINE",
"108 -143 OFFCURVE",
"199 -167 OFFCURVE",
"316 -167 CURVE SMOOTH",
"460 -167 OFFCURVE",
"565 -143 OFFCURVE",
"608 -100 CURVE",
"388 -65 LINE"
);
}
);
width = 753;
}
);
unicode = 0976;
},
{
glyphname = "uue-deva";
lastChange = "2014-09-28 11:45:50 +0000";
layers = (
{
layerId = "5BCE6BDF-3D16-43B2-91D3-33CD61D1CB11";
name = Regular;
paths = (
{
closed = 1;
nodes = (
"410 500 LINE",
"410 440 LINE",
"450 440 LINE",
"450 210 LINE",
"395 210 LINE",
"378 249 OFFCURVE",
"347 275 OFFCURVE",
"315 280 CURVE",
"364 297 OFFCURVE",
"397 336 OFFCURVE",
"397 375 CURVE SMOOTH",
"397 444 OFFCURVE",
"313 500 OFFCURVE",
"210 500 CURVE SMOOTH",
"143 500 OFFCURVE",
"87 479 OFFCURVE",
"55 440 CURVE",
"95 405 LINE",
"122 428 OFFCURVE",
"150 440 OFFCURVE",
"175 440 CURVE SMOOTH",
"216 440 OFFCURVE",
"250 413 OFFCURVE",
"250 380 CURVE SMOOTH",
"250 336 OFFCURVE",
"209 300 OFFCURVE",
"160 300 CURVE",
"160 240 LINE",
"215 240 OFFCURVE",
"260 202 OFFCURVE",
"260 155 CURVE SMOOTH",
"260 111 OFFCURVE",
"219 75 OFFCURVE",
"170 75 CURVE SMOOTH",
"127 75 OFFCURVE",
"86 113 OFFCURVE",
"65 170 CURVE",
"10 150 LINE",
"34 62 OFFCURVE",
"120 0 OFFCURVE",
"220 0 CURVE SMOOTH",
"320 0 OFFCURVE",
"400 65 OFFCURVE",
"400 145 CURVE",
"450 145 LINE",
"450 0 LINE",
"590 0 LINE",
"590 440 LINE",
"660 440 LINE",
"660 500 LINE"
);
},
{
closed = 1;
nodes = (
"424 -170 OFFCURVE",
"363 -194 OFFCURVE",
"283 -194 CURVE SMOOTH",
"228 -194 OFFCURVE",
"175 -187 OFFCURVE",
"147 -147 CURVE",
"107 -164 LINE",
"155 -232 OFFCURVE",
"248 -257 OFFCURVE",
"348 -257 CURVE SMOOTH",
"459 -257 OFFCURVE",
"543 -235 OFFCURVE",
"580 -198 CURVE",
"455 -139 LINE"
);
},
{
closed = 1;
nodes = (
"418 -57 OFFCURVE",
"356 -80 OFFCURVE",
"283 -80 CURVE SMOOTH",
"227 -80 OFFCURVE",
"177 -56 OFFCURVE",
"152 -16 CURVE",
"112 -31 LINE",
"157 -103 OFFCURVE",
"247 -154 OFFCURVE",
"348 -147 CURVE SMOOTH",
"444 -140 OFFCURVE",
"527 -120 OFFCURVE",
"580 -69 CURVE",
"455 -16 LINE"
);
}
);
width = 650;
},
{
layerId = "DF715B94-208D-4FDD-A2D8-DFDAF561BFB9";
name = Bold;
paths = (
{
closed = 1;
nodes = (
"478 500 LINE",
"478 420 LINE",
"498 420 LINE",
"498 220 LINE",
"443 220 LINE",
"434 247 OFFCURVE",
"403 269 OFFCURVE",
"363 280 CURVE",
"414 299 OFFCURVE",
"448 336 OFFCURVE",
"448 375 CURVE SMOOTH",
"448 444 OFFCURVE",
"347 500 OFFCURVE",
"223 500 CURVE SMOOTH",
"156 500 OFFCURVE",
"94 476 OFFCURVE",
"53 435 CURVE",
"103 385 LINE",
"135 408 OFFCURVE",
"163 420 OFFCURVE",
"183 420 CURVE SMOOTH",
"214 420 OFFCURVE",
"238 398 OFFCURVE",
"238 370 CURVE SMOOTH",
"238 337 OFFCURVE",
"204 310 OFFCURVE",
"163 310 CURVE",
"163 230 LINE",
"210 230 OFFCURVE",
"248 196 OFFCURVE",
"248 155 CURVE SMOOTH",
"248 122 OFFCURVE",
"214 95 OFFCURVE",
"173 95 CURVE SMOOTH",
"140 95 OFFCURVE",
"105 127 OFFCURVE",
"88 175 CURVE",
"8 150 LINE",
"32 62 OFFCURVE",
"121 0 OFFCURVE",
"228 0 CURVE SMOOTH",
"349 0 OFFCURVE",
"448 60 OFFCURVE",
"448 135 CURVE",
"498 135 LINE",
"498 0 LINE",
"698 0 LINE",
"698 420 LINE",
"763 420 LINE",
"763 500 LINE"
);
},
{
closed = 1;
nodes = (
"365 -168 OFFCURVE",
"321 -181 OFFCURVE",
"266 -181 CURVE SMOOTH",
"205 -181 OFFCURVE",
"158 -168 OFFCURVE",
"135 -145 CURVE",
"65 -180 LINE",
"108 -223 OFFCURVE",
"199 -247 OFFCURVE",
"316 -247 CURVE SMOOTH",
"460 -247 OFFCURVE",
"565 -223 OFFCURVE",
"608 -180 CURVE",
"388 -145 LINE"
);
},
{
closed = 1;
nodes = (
"365 -48 OFFCURVE",
"321 -61 OFFCURVE",
"266 -61 CURVE SMOOTH",
"205 -61 OFFCURVE",
"158 -48 OFFCURVE",
"135 -25 CURVE",
"65 -60 LINE",
"108 -103 OFFCURVE",
"199 -127 OFFCURVE",
"316 -127 CURVE SMOOTH",
"460 -127 OFFCURVE",
"565 -103 OFFCURVE",
"608 -60 CURVE",
"388 -25 LINE"
);
}
);
width = 753;
}
);
unicode = 0977;
},
{
glyphname = "aaMatra-deva";
lastChange = "2014-09-28 11:15:52 +0000";
layers = (
{
layerId = "5BCE6BDF-3D16-43B2-91D3-33CD61D1CB11";
name = Regular;
paths = (
{
closed = 1;
nodes = (
"-10 500 LINE",
"-10 440 LINE",
"60 440 LINE",
"60 0 LINE",
"200 0 LINE",
"200 440 LINE",
"270 440 LINE",
"270 500 LINE"
);
}
);
width = 260;
},
{
layerId = "DF715B94-208D-4FDD-A2D8-DFDAF561BFB9";
name = Bold;
paths = (
{
closed = 1;
nodes = (
"-10 500 LINE",
"-10 420 LINE",
"55 420 LINE",
"55 0 LINE",
"255 0 LINE",
"255 420 LINE",
"320 420 LINE",
"320 500 LINE"
);
}
);
width = 310;
}
);
unicode = 093E;
},
{
glyphname = "iMatra-deva";
lastChange = "2014-09-28 11:15:52 +0000";
layers = (
{
layerId = "5BCE6BDF-3D16-43B2-91D3-33CD61D1CB11";
name = Regular;
paths = (
{
closed = 1;
nodes = (
"146 750 OFFCURVE",
"35 673 OFFCURVE",
"35 580 CURVE SMOOTH",
"35 545 OFFCURVE",
"44 516 OFFCURVE",
"60 500 CURVE",
"-10 500 LINE",
"-10 440 LINE",
"60 440 LINE",
"60 0 LINE",
"200 0 LINE",
"200 440 LINE",
"270 440 LINE",
"270 500 LINE",
"205 500 LINE",
"190 508 OFFCURVE",
"182 533 OFFCURVE",
"182 565 CURVE SMOOTH",
"182 632 OFFCURVE",
"239 685 OFFCURVE",
"310 685 CURVE SMOOTH",
"389 685 OFFCURVE",
"489 620 OFFCURVE",
"585 505 CURVE",
"655 505 LINE",
"567 657 OFFCURVE",
"426 750 OFFCURVE",
"285 750 CURVE SMOOTH"
);
}
);
width = 260;
},
{
layerId = "DF715B94-208D-4FDD-A2D8-DFDAF561BFB9";
name = Bold;
paths = (
{
closed = 1;
nodes = (
"140 740 OFFCURVE",
"30 666 OFFCURVE",
"30 575 CURVE SMOOTH",
"30 543 OFFCURVE",
"39 516 OFFCURVE",
"55 500 CURVE",
"-10 500 LINE",
"-10 420 LINE",
"55 420 LINE",
"55 0 LINE",
"255 0 LINE",
"255 420 LINE",
"320 420 LINE",
"320 500 LINE",
"260 500 LINE",
"248 504 OFFCURVE",
"240 528 OFFCURVE",
"240 560 CURVE SMOOTH",
"240 612 OFFCURVE",
"281 655 OFFCURVE",
"330 655 CURVE SMOOTH",
"442 655 OFFCURVE",
"550 604 OFFCURVE",
"625 515 CURVE",
"715 515 LINE",
"616 656 OFFCURVE",
"452 740 OFFCURVE",
"275 740 CURVE SMOOTH"
);
}
);
width = 310;
}
);
unicode = 093F;
},
{
glyphname = "iiMatra-deva";
lastChange = "2014-09-28 11:15:52 +0000";
layers = (
{
layerId = "5BCE6BDF-3D16-43B2-91D3-33CD61D1CB11";
name = Regular;
paths = (
{
closed = 1;
nodes = (
"-158 735 OFFCURVE",
"-240 672 OFFCURVE",
"-240 595 CURVE SMOOTH",
"-240 560 OFFCURVE",
"-228 528 OFFCURVE",
"-205 505 CURVE",
"-60 505 LINE",
"-91 522 OFFCURVE",
"-110 561 OFFCURVE",
"-110 605 CURVE SMOOTH",
"-110 644 OFFCURVE",
"-81 675 OFFCURVE",
"-45 675 CURVE SMOOTH",
"10 675 OFFCURVE",
"55 596 OFFCURVE",
"55 500 CURVE",
"-10 500 LINE",
"-10 440 LINE",
"60 440 LINE",
"60 0 LINE",
"200 0 LINE",
"200 440 LINE",
"270 440 LINE",
"270 500 LINE",
"195 500 LINE",
"195 629 OFFCURVE",
"84 735 OFFCURVE",
"-55 735 CURVE SMOOTH"
);
}
);
width = 260;
},
{
layerId = "DF715B94-208D-4FDD-A2D8-DFDAF561BFB9";
name = Bold;
paths = (
{
closed = 1;
nodes = (
"-201 735 OFFCURVE",
"-315 670 OFFCURVE",
"-315 590 CURVE SMOOTH",
"-315 558 OFFCURVE",
"-303 528 OFFCURVE",
"-280 505 CURVE",
"-75 505 LINE",
"-94 516 OFFCURVE",
"-105 549 OFFCURVE",
"-105 590 CURVE SMOOTH",
"-105 623 OFFCURVE",
"-85 650 OFFCURVE",
"-60 650 CURVE SMOOTH",
"1 650 OFFCURVE",
"50 583 OFFCURVE",
"50 500 CURVE",
"-10 500 LINE",
"-10 420 LINE",
"55 420 LINE",
"55 0 LINE",
"255 0 LINE",
"255 420 LINE",
"320 420 LINE",
"320 500 LINE",
"250 500 LINE",
"250 629 OFFCURVE",
"111 735 OFFCURVE",
"-60 735 CURVE SMOOTH"
);
}
);
width = 310;
}
);
unicode = 0940;
},
{
glyphname = "oCandraMatra-deva";
lastChange = "2014-09-28 11:15:52 +0000";
layers = (
{
layerId = "5BCE6BDF-3D16-43B2-91D3-33CD61D1CB11";
name = Regular;
paths = (
{
closed = 1;
nodes = (
"-10 500 LINE",
"-10 440 LINE",
"60 440 LINE",
"60 0 LINE",
"200 0 LINE",
"200 440 LINE",
"270 440 LINE",
"270 500 LINE"
);
},
{
closed = 1;
nodes = (
"196 689 OFFCURVE",
"142 656 OFFCURVE",
"86 656 CURVE SMOOTH",
"37 656 OFFCURVE",
"-13 689 OFFCURVE",
"-45 744 CURVE",
"-105 697 LINE",
"-64 626 OFFCURVE",
"28 582 OFFCURVE",
"136 582 CURVE SMOOTH",
"239 582 OFFCURVE",
"327 626 OFFCURVE",
"368 697 CURVE",
"228 744 LINE"
);
}
);
width = 260;
},
{
layerId = "DF715B94-208D-4FDD-A2D8-DFDAF561BFB9";
name = Bold;
paths = (
{
closed = 1;
nodes = (
"-10 500 LINE",
"-10 420 LINE",
"55 420 LINE",
"55 0 LINE",
"255 0 LINE",
"255 420 LINE",
"320 420 LINE",
"320 500 LINE"
);
},
{
closed = 1;
nodes = (
"236 679 OFFCURVE",
"190 646 OFFCURVE",
"146 646 CURVE SMOOTH",
"97 646 OFFCURVE",
"47 679 OFFCURVE",
"15 734 CURVE",
"-55 687 LINE",
"-8 607 OFFCURVE",
"83 557 OFFCURVE",
"184 557 CURVE SMOOTH",
"285 557 OFFCURVE",
"376 607 OFFCURVE",
"423 687 CURVE",
"268 734 LINE"
);
}
);
width = 310;
}
);
unicode = 0949;
},
{
glyphname = "oShortMatra-deva";
lastChange = "2014-09-28 18:35:16 +0000";
layers = (
{
layerId = "5BCE6BDF-3D16-43B2-91D3-33CD61D1CB11";
name = Regular;
paths = (
{
closed = 1;
nodes = (
"-232 703 LINE",
"-201 636 OFFCURVE",
"-138 594 OFFCURVE",
"-71 594 CURVE SMOOTH",
"-21 594 LINE SMOOTH",
"6.6713 594 OFFCURVE",
"39.2259 555.91 OFFCURVE",
"60.2555 500 CURVE",
"-10 500 LINE",
"-10 440 LINE",
"60 440 LINE",
"60 0 LINE",
"200 0 LINE",
"200 440 LINE",
"270 440 LINE",
"270 500 LINE",
"200.262 500 LINE",
"170.696 578.899 OFFCURVE",
"93.2897 632 OFFCURVE",
"9 632 CURVE SMOOTH",
"-61 632 LINE SMOOTH",
"-102 632 OFFCURVE",
"-147 679 OFFCURVE",
"-172 750 CURVE"
);
}
);
width = 260;
},
{
layerId = "DF715B94-208D-4FDD-A2D8-DFDAF561BFB9";
name = Bold;
paths = (
{
closed = 1;
nodes = (
"-289 702 LINE",
"-248 630 OFFCURVE",
"-171 585 OFFCURVE",
"-88 585 CURVE SMOOTH",
"-37 585 LINE SMOOTH",
"10 585 OFFCURVE",
"49 548 OFFCURVE",
"54 500 CURVE",
"-10 500 LINE",
"-10 420 LINE",
"55 420 LINE",
"55 0 LINE",
"255 0 LINE",
"255 420 LINE",
"320 420 LINE",
"320 500 LINE",
"254 500 LINE",
"246 597 OFFCURVE",
"119 671 OFFCURVE",
"-38 671 CURVE SMOOTH",
"-88 671 LINE SMOOTH",
"-140 671 OFFCURVE",
"-190 702 OFFCURVE",
"-219 754 CURVE"
);
}
);
width = 310;
}
);
unicode = 094A;
},
{
glyphname = "oMatra-deva";
lastChange = "2014-09-28 11:15:52 +0000";
layers = (
{
layerId = "5BCE6BDF-3D16-43B2-91D3-33CD61D1CB11";
name = Regular;
paths = (
{
closed = 1;
nodes = (
"-145 745 LINE",
"-145 680 LINE",
"-95 680 LINE SMOOTH",
"-80 680 OFFCURVE",
"-66 671 OFFCURVE",
"-55 655 CURVE",
"40 535 LINE",
"52 518 OFFCURVE",
"64 507 OFFCURVE",
"77 500 CURVE",
"-10 500 LINE",
"-10 440 LINE",
"60 440 LINE",
"60 0 LINE",
"200 0 LINE",
"200 440 LINE",
"270 440 LINE",
"270 500 LINE",
"190 500 LINE",
"190 560 LINE",
"166 560 OFFCURVE",
"146 569 OFFCURVE",
"135 585 CURVE",
"60 685 LINE SMOOTH",
"33 722 OFFCURVE",
"4 745 OFFCURVE",
"-20 745 CURVE SMOOTH"
);
}
);
width = 260;
},
{
layerId = "DF715B94-208D-4FDD-A2D8-DFDAF561BFB9";
name = Bold;
paths = (
{
closed = 1;
nodes = (
"-160 750 LINE",
"-160 665 LINE",
"-105 665 LINE SMOOTH",
"-92 665 OFFCURVE",
"-79 657 OFFCURVE",
"-70 645 CURVE",
"15 540 LINE",
"28 521 OFFCURVE",
"42 507 OFFCURVE",
"57 500 CURVE",
"-10 500 LINE",
"-10 420 LINE",
"55 420 LINE",
"55 0 LINE",
"255 0 LINE",
"255 420 LINE",
"320 420 LINE",
"320 500 LINE",
"225 500 LINE",
"225 580 LINE",
"196 580 OFFCURVE",
"174 588 OFFCURVE",
"165 600 CURVE SMOOTH",
"85 700 LINE",
"64 732 OFFCURVE",
"33 750 OFFCURVE",
"5 750 CURVE SMOOTH"
);
}
);
width = 310;
}
);
unicode = 094B;
},
{
glyphname = "auMatra-deva";
lastChange = "2014-09-28 11:46:09 +0000";
layers = (
{
layerId = "5BCE6BDF-3D16-43B2-91D3-33CD61D1CB11";
name = Regular;
paths = (
{
closed = 1;
nodes = (
"-10 500 LINE",
"-10 440 LINE",
"60 440 LINE",
"60 0 LINE",
"200 0 LINE",
"200 440 LINE",
"270 440 LINE",
"270 500 LINE"
);
},
{
closed = 1;
nodes = (
"-175 700 LINE",
"-175 635 LINE",
"-145 635 LINE SMOOTH",
"-141 635 OFFCURVE",
"-136 633 OFFCURVE",
"-129 629 CURVE",
"-123 625 OFFCURVE",
"-115 619 OFFCURVE",
"-105 610 CURVE",
"10 515 LINE",
"22 506 OFFCURVE",
"35 500 OFFCURVE",
"50 500 CURVE SMOOTH",
"115 500 LINE",
"115 561 LINE",
"90 561 LINE SMOOTH",
"81 561 OFFCURVE",
"62 574 OFFCURVE",
"50 585 CURVE SMOOTH",
"-40 660 LINE",
"-89 698 OFFCURVE",
"-86 700 OFFCURVE",
"-100 700 CURVE SMOOTH"
);
},
{
closed = 1;
nodes = (
"-30 750 LINE",
"-30 685 LINE",
"-5 685 LINE SMOOTH",
"11 685 OFFCURVE",
"29 671 OFFCURVE",
"45 650 CURVE SMOOTH",
"140 530 LINE SMOOTH",
"155 511 OFFCURVE",
"173 500 OFFCURVE",
"190 500 CURVE SMOOTH",
"240 500 LINE",
"240 565 LINE",
"225 565 OFFCURVE",
"212 573 OFFCURVE",
"205 585 CURVE",
"100 710 LINE",
"83 735 OFFCURVE",
"58 750 OFFCURVE",
"35 750 CURVE SMOOTH"
);
}
);
width = 260;
},
{
layerId = "DF715B94-208D-4FDD-A2D8-DFDAF561BFB9";
name = Bold;
paths = (
{
closed = 1;
nodes = (
"-10 500 LINE",
"-10 420 LINE",
"55 420 LINE",
"55 0 LINE",
"255 0 LINE",
"255 420 LINE",
"320 420 LINE",
"320 500 LINE"
);
},
{
closed = 1;
nodes = (
"-165 700 LINE",
"-165 625 LINE",
"-140 625 LINE SMOOTH",
"-136 625 OFFCURVE",
"-131 623 OFFCURVE",
"-124 619 CURVE",
"-118 615 OFFCURVE",
"-110 609 OFFCURVE",
"-100 600 CURVE SMOOTH",
"5 511 LINE",
"12 504 OFFCURVE",
"27 501 OFFCURVE",
"50 501 CURVE SMOOTH",
"150 501 LINE",
"150 565 LINE",
"125 565 LINE SMOOTH",
"112 565 OFFCURVE",
"98 572 OFFCURVE",
"85 585 CURVE",
"-5 660 LINE",
"-30 685 OFFCURVE",
"-57 700 OFFCURVE",
"-80 700 CURVE SMOOTH"
);
},
{
closed = 1;
nodes = (
"15 750 LINE",
"15 675 LINE",
"40 675 LINE SMOOTH",
"60 675 OFFCURVE",
"79 664 OFFCURVE",
"90 645 CURVE",
"185 525 LINE",
"198 510 OFFCURVE",
"215 501 OFFCURVE",
"230 501 CURVE SMOOTH",
"315 501 LINE",
"315 565 LINE",
"300 565 OFFCURVE",
"287 573 OFFCURVE",
"280 585 CURVE",
"180 715 LINE",
"168 736 OFFCURVE",
"144 750 OFFCURVE",
"120 750 CURVE SMOOTH"
);
}
);
width = 310;
}
);
unicode = 094C;
},
{
glyphname = uni093B;
lastChange = "2014-09-28 16:53:19 +0000";
layers = (
{
layerId = "5BCE6BDF-3D16-43B2-91D3-33CD61D1CB11";
name = Regular;
paths = (
{
closed = 1;
nodes = (
"-10 500 LINE",
"-10 440 LINE",
"60 440 LINE",
"60 0 LINE",
"200 0 LINE",
"200 440 LINE",
"270 440 LINE",
"270 500 LINE"
);
},
{
closed = 1;
nodes = (
"60 650 LINE",
"60 510 LINE",
"200 510 LINE",
"200 650 LINE"
);
}
);
width = 260;
},
{
layerId = "DF715B94-208D-4FDD-A2D8-DFDAF561BFB9";
name = Bold;
paths = (
{
closed = 1;
nodes = (
"-10 500 LINE",
"-10 420 LINE",
"55 420 LINE",
"55 0 LINE",
"255 0 LINE",
"255 420 LINE",
"320 420 LINE",
"320 500 LINE"
);
},
{
closed = 1;
nodes = (
"55 618 LINE",
"55 514 LINE",
"255 514 LINE",
"255 618 LINE"
);
}
);
width = 310;
}
);
unicode = 093B;
},
{
glyphname = "awVowel-deva";
lastChange = "2014-09-28 12:00:33 +0000";
layers = (
{
layerId = "5BCE6BDF-3D16-43B2-91D3-33CD61D1CB11";
name = Regular;
paths = (
{
closed = 1;
nodes = (
"-200 737 LINE",
"-196 692 OFFCURVE",
"-142 657 OFFCURVE",
"-75 657 CURVE SMOOTH",
"-62 657 OFFCURVE",
"-42 658 OFFCURVE",
"-17 660 CURVE",
"9 661 OFFCURVE",
"29 662 OFFCURVE",
"42 662 CURVE SMOOTH",
"91 662 OFFCURVE",
"132 589 OFFCURVE",
"132 501 CURVE",
"121 501 LINE",
"109 569 OFFCURVE",
"43 620 OFFCURVE",
"-37 620 CURVE SMOOTH",
"-48 620 OFFCURVE",
"-63 619 OFFCURVE",
"-83 618 CURVE",
"-104 616 OFFCURVE",
"-119 615 OFFCURVE",
"-130 615 CURVE SMOOTH",
"-163 615 OFFCURVE",
"-190 633 OFFCURVE",
"-194 657 CURVE",
"-303 632 LINE",
"-296 592 OFFCURVE",
"-242 562 OFFCURVE",
"-175 562 CURVE SMOOTH",
"-160 562 OFFCURVE",
"-139 563 OFFCURVE",
"-110 566 CURVE SMOOTH",
"-81 569 OFFCURVE",
"-59 570 OFFCURVE",
"-44 570 CURVE SMOOTH",
"-8.3006 570 OFFCURVE",
"22.4818 539.515 OFFCURVE",
"27.8691 500 CURVE",
"-10 500 LINE",
"-10 440 LINE",
"59.9999 440 LINE",
"59.9999 0 LINE",
"200 0 LINE",
"200 440 LINE",
"270 440 LINE",
"270 500 LINE",
"230.998 500 LINE",
"230.515 616.558 OFFCURVE",
"145.704 714 OFFCURVE",
"42 714 CURVE SMOOTH",
"32 714 OFFCURVE",
"17 713 OFFCURVE",
"-4 712 CURVE",
"-25 710 OFFCURVE",
"-40 709 OFFCURVE",
"-50 709 CURVE SMOOTH",
"-78 709 OFFCURVE",
"-100 732 OFFCURVE",
"-100 760 CURVE"
);
}
);
width = 260;
},
{
layerId = "DF715B94-208D-4FDD-A2D8-DFDAF561BFB9";
name = Bold;
paths = (
{
closed = 1;
nodes = (
"-249 752 LINE",
"-224 710 OFFCURVE",
"-174 646 OFFCURVE",
"-84 646 CURVE SMOOTH",
"-76 646 OFFCURVE",
"-68 647 OFFCURVE",
"-59 648 CURVE SMOOTH",
"-35 651 OFFCURVE",
"-16 651 OFFCURVE",
"1 651 CURVE SMOOTH",
"43 651 OFFCURVE",
"78 631 OFFCURVE",
"138 500 CURVE",
"127 500 LINE",
"89 586 OFFCURVE",
"40 623 OFFCURVE",
"-37 623 CURVE SMOOTH",
"-51 623 OFFCURVE",
"-66 621 OFFCURVE",
"-82 619 CURVE SMOOTH",
"-88 618 OFFCURVE",
"-94 618 OFFCURVE",
"-99 618 CURVE SMOOTH",
"-152 618 OFFCURVE",
"-198 649 OFFCURVE",
"-219 684 CURVE",
"-289 632 LINE",
"-258 579 OFFCURVE",
"-194 533 OFFCURVE",
"-118 533 CURVE SMOOTH",
"-108 533 OFFCURVE",
"-98 533 OFFCURVE",
"-88 535 CURVE SMOOTH",
"-70 538 OFFCURVE",
"-54 540 OFFCURVE",
"-39 540 CURVE SMOOTH",
"-3 540 OFFCURVE",
"25 529 OFFCURVE",
"54 500 CURVE",
"-10 500 LINE",
"-10 420 LINE",
"55 420 LINE",
"55 0 LINE",
"255 0 LINE",
"255 420 LINE",
"320 420 LINE",
"320 500 LINE",
"254 500 LINE",
"187 684 OFFCURVE",
"160 725 OFFCURVE",
"55 725 CURVE SMOOTH",
"35 725 OFFCURVE",
"13 723 OFFCURVE",
"-13 721 CURVE SMOOTH",
"-18 721 OFFCURVE",
"-23 720 OFFCURVE",
"-28 720 CURVE SMOOTH",
"-94 720 OFFCURVE",
"-152 756 OFFCURVE",
"-179 804 CURVE"
);
}
);
width = 310;
}
);
unicode = 094F;
},
